<svg version="1.1" xmlns="http://www.w3.org/2000/svg" xmlns:xlink="http://www.w3.org/1999/xlink" width="122" height="110"><defs></defs><g><g transform="translate(-142,-78) scale(1,1)"><rect fill="#C0C0C0" stroke="none" x="159" y="95" width="102" height="90" opacity="0.2"></rect></g><g transform="translate(-142,-78) scale(1,1)"><rect fill="#ffffff" stroke="none" x="152" y="88" width="102" height="90"></rect></g><g transform="translate(-142,-78) scale(1,1)"><path fill="none" stroke="#000000" d="M 152 88 L 254 88 L 254 178 L 152 178 L 152 88 Z Z" stroke-miterlimit="10"></path></g><g transform="translate(-142,-78) scale(1,1)"><path fill="none" stroke="#000000" d="M 152 126 L 254 126" stroke-miterlimit="10"></path></g><g transform="translate(-142,-78) scale(1,1)"><g><path fill="none" stroke="none"></path><text fill="#000000" stroke="none" font-family="Arial" font-size="13px" font-style="normal" font-weight="normal" text-decoration="none" x="160.5" y="105.5">«enumeration»</text></g></g><g transform="translate(-142,-78) scale(1,1)"><g><path fill="none" stroke="none"></path><text fill="#000000" stroke="none" font-family="Arial" font-size="13px" font-style="normal" font-weight="bold" text-decoration="none" x="160" y="120.5">E3dModelType</text></g></g><g transform="translate(-142,-78) scale(1,1)"><g><path fill="none" stroke="none"></path><text fill="#000000" stroke="none" font-family="Arial" font-size="13px" font-style="normal" font-weight="normal" text-decoration="none" x="157" y="143.5">POINT_CLOUD</text></g></g><g transform="translate(-142,-78) scale(1,1)"><g><path fill="none" stroke="none"></path><text fill="#000000" stroke="none" font-family="Arial" font-size="13px" font-style="normal" font-weight="normal" text-decoration="none" x="157" y="158.5">MESH</text></g></g><g transform="translate(-142,-78) scale(1,1)"><g><path fill="none" stroke="none"></path><text fill="#000000" stroke="none" font-family="Arial" font-size="13px" font-style="normal" font-weight="normal" text-decoration="none" x="157" y="173.5">TEXTURED</text></g></g></g></svg>