<svg version="1.1" xmlns="http://www.w3.org/2000/svg" xmlns:xlink="http://www.w3.org/1999/xlink" width="350.19775390625" height="167"><defs/><g><g transform="translate(-494,-897) scale(1,1)"><rect fill="#C0C0C0" stroke="none" x="511" y="914" width="330.19775390625" height="147" opacity="0.2"/></g><g transform="translate(-494,-897) scale(1,1)"><rect fill="#ffffff" stroke="none" x="504" y="907" width="330.19775390625" height="147"/></g><g transform="translate(-494,-897) scale(1,1)"><path fill="none" stroke="#000000" d="M 504 907 L 834.19775390625 907 L 834.19775390625 1054 L 504 1054 L 504 907 Z Z" stroke-miterlimit="10"/></g><g transform="translate(-494,-897) scale(1,1)"><path fill="none" stroke="#000000" d="M 504 932 L 834.19775390625 932" stroke-miterlimit="10"/></g><g transform="translate(-494,-897) scale(1,1)"><path fill="none" stroke="#000000" d="M 504 942 L 834.19775390625 942" stroke-miterlimit="10"/></g><g transform="translate(-494,-897) scale(1,1)"><g><path fill="none" stroke="none"/><text fill="#000000" stroke="none" font-family="Arial" font-size="13px" font-style="italic" font-weight="bold" text-decoration="none" x="613.0966796875" y="926.5">AContextDataStore</text></g></g><g transform="translate(-494,-897) scale(1,1)"><g><path fill="none" stroke="none"/><text fill="#000000" stroke="none" font-family="Arial" font-size="13px" font-style="italic" font-weight="normal" text-decoration="none" x="509" y="959.5">+getSupportedDataTypes(): const vector&lt;EDataTypes&gt;</text></g></g><g transform="translate(-494,-897) scale(1,1)"><g><path fill="none" stroke="none"/><text fill="#000000" stroke="none" font-family="Arial" font-size="13px" font-style="italic" font-weight="normal" text-decoration="none" x="509" y="974.5">+InitializeFromStorage(dataset: DataSet)</text></g></g><g transform="translate(-494,-897) scale(1,1)"><g><path fill="none" stroke="none"/><text fill="#000000" stroke="none" font-family="Arial" font-size="13px" font-style="italic" font-weight="normal" text-decoration="none" x="509" y="989.5">+getData(): *TDataPacket</text></g></g><g transform="translate(-494,-897) scale(1,1)"><g><path fill="none" stroke="none"/><text fill="#000000" stroke="none" font-family="Arial" font-size="13px" font-style="italic" font-weight="normal" text-decoration="none" x="509" y="1004.5">+applyToDataView(view: *ADataView)</text></g></g><g transform="translate(-494,-897) scale(1,1)"><g><path fill="none" stroke="none"/><text fill="#000000" stroke="none" font-family="Arial" font-size="13px" font-style="normal" font-weight="normal" text-decoration="none" x="509" y="1019.5">+getId(): QString</text></g></g><g transform="translate(-494,-897) scale(1,1)"><g><path fill="none" stroke="none"/><text fill="#000000" stroke="none" font-family="Arial" font-size="13px" font-style="normal" font-weight="normal" text-decoration="none" x="509" y="1034.5">+Serialize()</text></g></g><g transform="translate(-494,-897) scale(1,1)"><g><path fill="none" stroke="none"/><text fill="#000000" stroke="none" font-family="Arial" font-size="13px" font-style="normal" font-weight="normal" text-decoration="none" x="509" y="1049.5">+getCurrentCalculationStep(): uint32</text></g></g></g></svg>