<svg version="1.1" xmlns="http://www.w3.org/2000/svg" xmlns:xlink="http://www.w3.org/1999/xlink" width="621.2744140625" height="167"><defs/><g><g transform="translate(-324,-370) scale(1,1)"><rect fill="#C0C0C0" stroke="none" x="341" y="387" width="330.19775390625" height="147" opacity="0.2"/></g><g transform="translate(-324,-370) scale(1,1)"><rect fill="#ffffff" stroke="none" x="334" y="380" width="330.19775390625" height="147"/></g><g transform="translate(-324,-370) scale(1,1)"><path fill="none" stroke="#000000" d="M 334 380 L 664.19775390625 380 L 664.19775390625 527 L 334 527 L 334 380 Z Z" stroke-miterlimit="10"/></g><g transform="translate(-324,-370) scale(1,1)"><path fill="none" stroke="#000000" d="M 334 405 L 664.19775390625 405" stroke-miterlimit="10"/></g><g transform="translate(-324,-370) scale(1,1)"><path fill="none" stroke="#000000" d="M 334 415 L 664.19775390625 415" stroke-miterlimit="10"/></g><g transform="translate(-324,-370) scale(1,1)"><g><path fill="none" stroke="none"/><text fill="#000000" stroke="none" font-family="Arial" font-size="13px" font-style="italic" font-weight="bold" text-decoration="none" x="443.0966796875" y="399.5">AContextDataStore</text></g></g><g transform="translate(-324,-370) scale(1,1)"><g><path fill="none" stroke="none"/><text fill="#000000" stroke="none" font-family="Arial" font-size="13px" font-style="italic" font-weight="normal" text-decoration="none" x="339" y="432.5">+getSupportedDataTypes(): const vector&lt;EDataTypes&gt;</text></g></g><g transform="translate(-324,-370) scale(1,1)"><g><path fill="none" stroke="none"/><text fill="#000000" stroke="none" font-family="Arial" font-size="13px" font-style="italic" font-weight="normal" text-decoration="none" x="339" y="447.5">+InitializeFromStorage(dataset: DataSet)</text></g></g><g transform="translate(-324,-370) scale(1,1)"><g><path fill="none" stroke="none"/><text fill="#000000" stroke="none" font-family="Arial" font-size="13px" font-style="italic" font-weight="normal" text-decoration="none" x="339" y="462.5">+getData(): *TDataPacket</text></g></g><g transform="translate(-324,-370) scale(1,1)"><g><path fill="none" stroke="none"/><text fill="#000000" stroke="none" font-family="Arial" font-size="13px" font-style="italic" font-weight="normal" text-decoration="none" x="339" y="477.5">+applyToDataView(view: *ADataView)</text></g></g><g transform="translate(-324,-370) scale(1,1)"><g><path fill="none" stroke="none"/><text fill="#000000" stroke="none" font-family="Arial" font-size="13px" font-style="normal" font-weight="normal" text-decoration="none" x="339" y="492.5">+getId(): String</text></g></g><g transform="translate(-324,-370) scale(1,1)"><g><path fill="none" stroke="none"/><text fill="#000000" stroke="none" font-family="Arial" font-size="13px" font-style="normal" font-weight="normal" text-decoration="none" x="339" y="507.5">+Serialize()</text></g></g><g transform="translate(-324,-370) scale(1,1)"><g><path fill="none" stroke="none"/><text fill="#000000" stroke="none" font-family="Arial" font-size="13px" font-style="normal" font-weight="normal" text-decoration="none" x="339" y="522.5">+getCurrentCalculationStep(): uint32</text></g></g><g transform="translate(-324,-370) scale(1,1)"><rect fill="#C0C0C0" stroke="none" x="783" y="423" width="159.2744140625" height="85" opacity="0.2"/></g><g transform="translate(-324,-370) scale(1,1)"><rect fill="#ffffff" stroke="none" x="776" y="416" width="159.2744140625" height="85"/></g><g transform="translate(-324,-370) scale(1,1)"><path fill="none" stroke="#000000" d="M 776 416 L 935.2744140625 416 L 935.2744140625 501 L 776 501 L 776 416 Z Z" stroke-miterlimit="10"/></g><g transform="translate(-324,-370) scale(1,1)"><path fill="none" stroke="#000000" d="M 776 469 L 935.2744140625 469" stroke-miterlimit="10"/></g><g transform="translate(-324,-370) scale(1,1)"><path fill="none" stroke="#000000" d="M 776 492 L 935.2744140625 492" stroke-miterlimit="10"/></g><g transform="translate(-324,-370) scale(1,1)"><g><path fill="none" stroke="none"/><text fill="#000000" stroke="none" font-family="Arial" font-size="13px" font-style="normal" font-weight="normal" text-decoration="none" x="831.424072265625" y="433.5">«signal»</text></g></g><g transform="translate(-324,-370) scale(1,1)"><g><path fill="none" stroke="none"/><text fill="#000000" stroke="none" font-family="Arial" font-size="13px" font-style="normal" font-weight="bold" text-decoration="none" x="815.523193359375" y="448.5">DataChanged</text></g></g><g transform="translate(-324,-370) scale(1,1)"><g><path fill="none" stroke="none"/><text fill="#000000" stroke="none" font-family="Arial" font-size="13px" font-style="normal" font-weight="normal" text-decoration="none" x="780.5" y="463.5">(from AContextDataStore)</text></g></g><g transform="translate(-324,-370) scale(1,1)"><g><path fill="none" stroke="none"/><text fill="#000000" stroke="none" font-family="Arial" font-size="13px" font-style="normal" font-weight="normal" text-decoration="none" x="781" y="486.5">+data: *SDataChanged</text></g></g><g transform="translate(-324,-370) scale(1,1)"><path fill="none" stroke="#000000" d="M 665 455 L 775 457" stroke-miterlimit="10" stroke-dasharray="3"/></g><g transform="translate(-324,-370) scale(1,1)"><path fill="none" stroke="#000000" d="M 764.7624804680675 461.02407676781877 L 775 457 L 764.9155285459009 452.6064324869806" stroke-miterlimit="10"/></g></g></svg>