<svg version="1.1" xmlns="http://www.w3.org/2000/svg" xmlns:xlink="http://www.w3.org/1999/xlink" width="644.18359375" height="193"><defs/><g><g transform="translate(-214,-257) scale(1,1)"><rect fill="#C0C0C0" stroke="none" x="287" y="279" width="58.10546875" height="24" opacity="0.2"/></g><g transform="translate(-214,-257) scale(1,1)"><rect fill="#ffffff" stroke="none" x="280" y="272" width="58.10546875" height="24"/></g><g transform="translate(-214,-257) scale(1,1)"><path fill="none" stroke="#000000" d="M 280 272 L 338.10546875 272 L 338.10546875 296 L 280 296 L 280 272 Z Z" stroke-miterlimit="10"/></g><g transform="translate(-214,-257) scale(1,1)"><g><path fill="none" stroke="none"/><text fill="#000000" stroke="none" font-family="Arial" font-size="13px" font-style="italic" font-weight="bold" text-decoration="none" x="286.648681640625" y="291.5">APlugin</text></g></g><g transform="translate(-214,-257) scale(1,1)"><rect fill="#C0C0C0" stroke="none" x="543" y="287" width="86.3271484375" height="24" opacity="0.2"/></g><g transform="translate(-214,-257) scale(1,1)"><rect fill="#ffffff" stroke="none" x="536" y="280" width="86.3271484375" height="24"/></g><g transform="translate(-214,-257) scale(1,1)"><path fill="none" stroke="#000000" d="M 536 280 L 622.3271484375 280 L 622.3271484375 304 L 536 304 L 536 280 Z Z" stroke-miterlimit="10"/></g><g transform="translate(-214,-257) scale(1,1)"><g><path fill="none" stroke="none"/><text fill="#000000" stroke="none" font-family="Arial" font-size="13px" font-style="italic" font-weight="bold" text-decoration="none" x="542.67724609375" y="299.5">IDataAccess</text></g></g><g transform="translate(-214,-257) scale(1,1)"><path fill="none" stroke="#000000" d="M 339 285 L 535 291" stroke-miterlimit="10"/></g><g transform="translate(-214,-257) scale(1,1)"><path fill="none" stroke="#000000" d="M 524.7132811164523 294.8965901261056 L 535 291 L 524.9708860196099 286.48149662295754" stroke-miterlimit="10"/></g><g transform="translate(-214,-257) scale(1,1)"><g><path fill="none" stroke="none"/><text fill="#000000" stroke="none" font-family="Arial" font-size="13px" font-style="normal" font-weight="normal" text-decoration="none" x="420" y="280">#Data</text></g></g><g transform="translate(-214,-257) scale(1,1)"><rect fill="#C0C0C0" stroke="none" x="727" y="279" width="128.18359375" height="24" opacity="0.2"/></g><g transform="translate(-214,-257) scale(1,1)"><rect fill="#ffffff" stroke="none" x="720" y="272" width="128.18359375" height="24"/></g><g transform="translate(-214,-257) scale(1,1)"><path fill="none" stroke="#000000" d="M 720 272 L 848.18359375 272 L 848.18359375 296 L 720 296 L 720 272 Z Z" stroke-miterlimit="10"/></g><g transform="translate(-214,-257) scale(1,1)"><g><path fill="none" stroke="none"/><text fill="#000000" stroke="none" font-family="Arial" font-size="13px" font-style="italic" font-weight="bold" text-decoration="none" x="728.089599609375" y="291.5">AContextDataStore</text></g></g><g transform="translate(-214,-257) scale(1,1)"><path fill="none" stroke="#000000" d="M 623 290 L 719 287" stroke-miterlimit="10"/></g><g transform="translate(-214,-257) scale(1,1)"><path fill="none" stroke="#000000" d="M 708.9737669991969 291.5248924643141 L 719 287 L 708.7108005097193 283.1099648010322" stroke-miterlimit="10"/></g><g transform="translate(-214,-257) scale(1,1)"><rect fill="#C0C0C0" stroke="none" x="503" y="423" width="165.0380859375" height="24" opacity="0.2"/></g><g transform="translate(-214,-257) scale(1,1)"><rect fill="#ffffff" stroke="none" x="496" y="416" width="165.0380859375" height="24"/></g><g transform="translate(-214,-257) scale(1,1)"><path fill="none" stroke="#000000" d="M 496 416 L 661.0380859375 416 L 661.0380859375 440 L 496 440 L 496 416 Z Z" stroke-miterlimit="10"/></g><g transform="translate(-214,-257) scale(1,1)"><g><path fill="none" stroke="none"/><text fill="#000000" stroke="none" font-family="Arial" font-size="13px" font-style="normal" font-weight="bold" text-decoration="none" x="505.5400390625" y="435.5">CStereoRectificationData</text></g></g><g transform="translate(-214,-257) scale(1,1)"><path fill="none" stroke="#000000" d="M 578 415 L 579 305" stroke-miterlimit="10"/></g><g transform="translate(-214,-257) scale(1,1)"><path fill="#FFFFFF" stroke="none" d="M 587.2339193679572 325.401043400816 L 579 305 L 570.3965440888278 325.2479763528239"/></g><g transform="translate(-214,-257) scale(1,1)"><path fill="none" stroke="#000000" d="M 587.2339193679572 325.401043400816 L 579 305 L 570.3965440888278 325.2479763528239 L 587.2339193679572 325.401043400816" stroke-miterlimit="10"/></g><g transform="translate(-214,-257) scale(1,1)"><rect fill="#C0C0C0" stroke="none" x="231" y="423" width="176.578125" height="24" opacity="0.2"/></g><g transform="translate(-214,-257) scale(1,1)"><rect fill="#ffffff" stroke="none" x="224" y="416" width="176.578125" height="24"/></g><g transform="translate(-214,-257) scale(1,1)"><path fill="none" stroke="#000000" d="M 224 416 L 400.578125 416 L 400.578125 440 L 224 440 L 224 416 Z Z" stroke-miterlimit="10"/></g><g transform="translate(-214,-257) scale(1,1)"><g><path fill="none" stroke="none"/><text fill="#000000" stroke="none" font-family="Arial" font-size="13px" font-style="normal" font-weight="bold" text-decoration="none" x="234.971435546875" y="435.5">CStereoRectificationPlugin</text></g></g><g transform="translate(-214,-257) scale(1,1)"><path fill="none" stroke="#000000" d="M 312 415 L 309 297" stroke-miterlimit="10"/></g><g transform="translate(-214,-257) scale(1,1)"><path fill="#FFFFFF" stroke="none" d="M 317.93289519778097 317.1048099564622 L 309 297 L 301.10026331529843 317.53275822466094"/></g><g transform="translate(-214,-257) scale(1,1)"><path fill="none" stroke="#000000" d="M 317.93289519778097 317.1048099564622 L 309 297 L 301.10026331529843 317.53275822466094 L 317.93289519778097 317.1048099564622" stroke-miterlimit="10"/></g><g transform="translate(-214,-257) scale(1,1)"><path fill="none" stroke="#000000" d="M 402 428 L 495 428" stroke-miterlimit="10"/></g><g transform="translate(-214,-257) scale(1,1)"><path fill="none" stroke="#000000" d="M 484.83732514237585 432.209517756016 L 495 428 L 484.83732514237585 423.790482243984" stroke-miterlimit="10"/></g></g></svg>