<svg version="1.1" xmlns="http://www.w3.org/2000/svg" xmlns:xlink="http://www.w3.org/1999/xlink" width="234.5498046875" height="137"><defs/><g><g transform="translate(-408,-357) scale(1,1)"><rect fill="#C0C0C0" stroke="none" x="425" y="374" width="214.5498046875" height="117" opacity="0.2"/></g><g transform="translate(-408,-357) scale(1,1)"><rect fill="#ffffff" stroke="none" x="418" y="367" width="214.5498046875" height="117"/></g><g transform="translate(-408,-357) scale(1,1)"><path fill="none" stroke="#000000" d="M 418 367 L 632.5498046875 367 L 632.5498046875 484 L 418 484 L 418 367 Z Z" stroke-miterlimit="10"/></g><g transform="translate(-408,-357) scale(1,1)"><path fill="none" stroke="#000000" d="M 418 392 L 632.5498046875 392" stroke-miterlimit="10"/></g><g transform="translate(-408,-357) scale(1,1)"><path fill="none" stroke="#000000" d="M 418 402 L 632.5498046875 402" stroke-miterlimit="10"/></g><g transform="translate(-408,-357) scale(1,1)"><g><path fill="none" stroke="none"/><text fill="#000000" stroke="none" font-family="Arial" font-size="13px" font-style="italic" font-weight="bold" text-decoration="none" x="502.870849609375" y="386.5">APlugin</text></g></g><g transform="translate(-408,-357) scale(1,1)"><g><path fill="none" stroke="none"/><text fill="#000000" stroke="none" font-family="Arial" font-size="13px" font-style="italic" font-weight="normal" text-decoration="none" x="423" y="419.5">+DataAccess(): const *IDataAccess</text></g></g><g transform="translate(-408,-357) scale(1,1)"><g><path fill="none" stroke="none"/><text fill="#000000" stroke="none" font-family="Arial" font-size="13px" font-style="italic" font-weight="normal" text-decoration="none" x="423" y="434.5">+GetAlgorithm(): const *IAlgorithm</text></g></g><g transform="translate(-408,-357) scale(1,1)"><g><path fill="none" stroke="none"/><text fill="#000000" stroke="none" font-family="Arial" font-size="13px" font-style="normal" font-weight="normal" text-decoration="none" x="423" y="449.5">+Autor(): String</text></g></g><g transform="translate(-408,-357) scale(1,1)"><g><path fill="none" stroke="none"/><text fill="#000000" stroke="none" font-family="Arial" font-size="13px" font-style="normal" font-weight="normal" text-decoration="none" x="423" y="464.5">+Date(): TimeStamp</text></g></g><g transform="translate(-408,-357) scale(1,1)"><g><path fill="none" stroke="none"/><text fill="#000000" stroke="none" font-family="Arial" font-size="13px" font-style="normal" font-weight="normal" text-decoration="none" x="423" y="479.5">+Version(): int32</text></g></g></g></svg>