<svg version="1.1" xmlns="http://www.w3.org/2000/svg" xmlns:xlink="http://www.w3.org/1999/xlink" width="234.5498046875" height="137"><defs/><g><g transform="translate(-416,-337) scale(1,1)"><rect fill="#C0C0C0" stroke="none" x="433" y="354" width="214.5498046875" height="117" opacity="0.2"/></g><g transform="translate(-416,-337) scale(1,1)"><rect fill="#ffffff" stroke="none" x="426" y="347" width="214.5498046875" height="117"/></g><g transform="translate(-416,-337) scale(1,1)"><path fill="none" stroke="#000000" d="M 426 347 L 640.5498046875 347 L 640.5498046875 464 L 426 464 L 426 347 Z Z" stroke-miterlimit="10"/></g><g transform="translate(-416,-337) scale(1,1)"><path fill="none" stroke="#000000" d="M 426 372 L 640.5498046875 372" stroke-miterlimit="10"/></g><g transform="translate(-416,-337) scale(1,1)"><path fill="none" stroke="#000000" d="M 426 382 L 640.5498046875 382" stroke-miterlimit="10"/></g><g transform="translate(-416,-337) scale(1,1)"><g><path fill="none" stroke="none"/><text fill="#000000" stroke="none" font-family="Arial" font-size="13px" font-style="italic" font-weight="bold" text-decoration="none" x="510.870849609375" y="366.5">APlugin</text></g></g><g transform="translate(-416,-337) scale(1,1)"><g><path fill="none" stroke="none"/><text fill="#000000" stroke="none" font-family="Arial" font-size="13px" font-style="italic" font-weight="normal" text-decoration="none" x="431" y="399.5">+DataAccess(): const *IDataAccess</text></g></g><g transform="translate(-416,-337) scale(1,1)"><g><path fill="none" stroke="none"/><text fill="#000000" stroke="none" font-family="Arial" font-size="13px" font-style="italic" font-weight="normal" text-decoration="none" x="431" y="414.5">+GetAlgorithm(): const *IAlgorithm</text></g></g><g transform="translate(-416,-337) scale(1,1)"><g><path fill="none" stroke="none"/><text fill="#000000" stroke="none" font-family="Arial" font-size="13px" font-style="normal" font-weight="normal" text-decoration="none" x="431" y="429.5">+Autor(): QString</text></g></g><g transform="translate(-416,-337) scale(1,1)"><g><path fill="none" stroke="none"/><text fill="#000000" stroke="none" font-family="Arial" font-size="13px" font-style="normal" font-weight="normal" text-decoration="none" x="431" y="444.5">+Date(): TimeStamp</text></g></g><g transform="translate(-416,-337) scale(1,1)"><g><path fill="none" stroke="none"/><text fill="#000000" stroke="none" font-family="Arial" font-size="13px" font-style="normal" font-weight="normal" text-decoration="none" x="431" y="459.5">+Version(): int32</text></g></g></g></svg>