<svg version="1.1" xmlns="http://www.w3.org/2000/svg" xmlns:xlink="http://www.w3.org/1999/xlink" width="659.060546875" height="227"><defs/><g><g transform="translate(-394,-682) scale(1,1)"><rect fill="#C0C0C0" stroke="none" x="411" y="699" width="331.67041015625" height="207" opacity="0.2"/></g><g transform="translate(-394,-682) scale(1,1)"><rect fill="#ffffff" stroke="none" x="404" y="692" width="331.67041015625" height="207"/></g><g transform="translate(-394,-682) scale(1,1)"><path fill="none" stroke="#000000" d="M 404 692 L 735.67041015625 692 L 735.67041015625 899 L 404 899 L 404 692 Z Z" stroke-miterlimit="10"/></g><g transform="translate(-394,-682) scale(1,1)"><path fill="none" stroke="#000000" d="M 404 717 L 735.67041015625 717" stroke-miterlimit="10"/></g><g transform="translate(-394,-682) scale(1,1)"><path fill="none" stroke="#000000" d="M 404 727 L 735.67041015625 727" stroke-miterlimit="10"/></g><g transform="translate(-394,-682) scale(1,1)"><g><path fill="none" stroke="none"/><text fill="#000000" stroke="none" font-family="Arial" font-size="13px" font-style="italic" font-weight="bold" text-decoration="none" x="538.776123046875" y="711.5">AWorkflow</text></g></g><g transform="translate(-394,-682) scale(1,1)"><g><path fill="none" stroke="none"/><text fill="#000000" stroke="none" font-family="Arial" font-size="13px" font-style="italic" font-weight="normal" text-decoration="none" x="409" y="744.5">+getStepCount(): const uint32</text></g></g><g transform="translate(-394,-682) scale(1,1)"><g><path fill="none" stroke="none"/><text fill="#000000" stroke="none" font-family="Arial" font-size="13px" font-style="italic" font-weight="normal" text-decoration="none" x="409" y="759.5">+getStepType(step: const uint32): EAlgorithmType</text></g></g><g transform="translate(-394,-682) scale(1,1)"><g><path fill="none" stroke="none"/><text fill="#000000" stroke="none" font-family="Arial" font-size="13px" font-style="italic" font-weight="normal" text-decoration="none" x="409" y="774.5">+trySetStep(step: const uint32, algo: *APlugin): Boolean</text></g></g><g transform="translate(-394,-682) scale(1,1)"><g><path fill="none" stroke="none"/><text fill="#000000" stroke="none" font-family="Arial" font-size="13px" font-style="italic" font-weight="normal" text-decoration="none" x="409" y="789.5">+getStep(step: const uint32): *APlugin</text></g></g><g transform="translate(-394,-682) scale(1,1)"><g><path fill="none" stroke="none"/><text fill="#000000" stroke="none" font-family="Arial" font-size="13px" font-style="italic" font-weight="normal" text-decoration="none" x="409" y="804.5">+getDataStores(): vector&lt;*AContextDataStore&gt;</text></g></g><g transform="translate(-394,-682) scale(1,1)"><g><path fill="none" stroke="none"/><text fill="#000000" stroke="none" font-family="Arial" font-size="13px" font-style="italic" font-weight="normal" text-decoration="none" x="409" y="819.5">+addDataStore(): *AContextDataStore</text></g></g><g transform="translate(-394,-682) scale(1,1)"><g><path fill="none" stroke="none"/><text fill="#000000" stroke="none" font-family="Arial" font-size="13px" font-style="italic" font-weight="normal" text-decoration="none" x="409" y="834.5">+removeDataStore(id: const QString): Boolean</text></g></g><g transform="translate(-394,-682) scale(1,1)"><g><path fill="none" stroke="none"/><text fill="#000000" stroke="none" font-family="Arial" font-size="13px" font-style="normal" font-weight="normal" text-decoration="none" x="409" y="849.5">+run(storeId: const QString)</text></g></g><g transform="translate(-394,-682) scale(1,1)"><g><path fill="none" stroke="none"/><text fill="#000000" stroke="none" font-family="Arial" font-size="13px" font-style="normal" font-weight="normal" text-decoration="none" x="409" y="864.5">+getState(storeId: const QString): uint32</text></g></g><g transform="translate(-394,-682) scale(1,1)"><g><path fill="none" stroke="none"/><text fill="#000000" stroke="none" font-family="Arial" font-size="13px" font-style="normal" font-weight="normal" text-decoration="none" x="409" y="879.5">+stop(storeId: const QString)</text></g></g><g transform="translate(-394,-682) scale(1,1)"><g><path fill="none" stroke="none"/><text fill="#000000" stroke="none" font-family="Arial" font-size="13px" font-style="normal" font-weight="normal" text-decoration="none" x="409" y="894.5">+checkAvaliableDataTypes(): Boolean</text></g></g><g transform="translate(-394,-682) scale(1,1)"><rect fill="#C0C0C0" stroke="none" x="847" y="759" width="203.060546875" height="85" opacity="0.2"/></g><g transform="translate(-394,-682) scale(1,1)"><rect fill="#ffffff" stroke="none" x="840" y="752" width="203.060546875" height="85"/></g><g transform="translate(-394,-682) scale(1,1)"><path fill="none" stroke="#000000" d="M 840 752 L 1043.060546875 752 L 1043.060546875 837 L 840 837 L 840 752 Z Z" stroke-miterlimit="10"/></g><g transform="translate(-394,-682) scale(1,1)"><path fill="none" stroke="#000000" d="M 840 805 L 1043.060546875 805" stroke-miterlimit="10"/></g><g transform="translate(-394,-682) scale(1,1)"><path fill="none" stroke="#000000" d="M 840 828 L 1043.060546875 828" stroke-miterlimit="10"/></g><g transform="translate(-394,-682) scale(1,1)"><g><path fill="none" stroke="none"/><text fill="#000000" stroke="none" font-family="Arial" font-size="13px" font-style="normal" font-weight="normal" text-decoration="none" x="917.317138671875" y="769.5">«signal»</text></g></g><g transform="translate(-394,-682) scale(1,1)"><g><path fill="none" stroke="none"/><text fill="#000000" stroke="none" font-family="Arial" font-size="13px" font-style="normal" font-weight="bold" text-decoration="none" x="871.423583984375" y="784.5">ExecutionStateChanged</text></g></g><g transform="translate(-394,-682) scale(1,1)"><g><path fill="none" stroke="none"/><text fill="#000000" stroke="none" font-family="Arial" font-size="13px" font-style="normal" font-weight="normal" text-decoration="none" x="891.336181640625" y="799.5">(from AWorkflow)</text></g></g><g transform="translate(-394,-682) scale(1,1)"><g><path fill="none" stroke="none"/><text fill="#000000" stroke="none" font-family="Arial" font-size="13px" font-style="normal" font-weight="normal" text-decoration="none" x="845" y="822.5">+data: *SExecutionStateChanged</text></g></g><g transform="translate(-394,-682) scale(1,1)"><path fill="none" stroke="#000000" d="M 737 795 L 839 794" stroke-miterlimit="10" stroke-dasharray="3"/></g><g transform="translate(-394,-682) scale(1,1)"><path fill="none" stroke="#000000" d="M 828.8790813081646 798.3089447470649 L 839 794 L 828.7965457107579 789.8903138115733" stroke-miterlimit="10"/></g></g></svg>