<svg version="1.1" xmlns="http://www.w3.org/2000/svg" xmlns:xlink="http://www.w3.org/1999/xlink" width="682.060546875" height="227"><defs/><g><g transform="translate(-499,-346) scale(1,1)"><rect fill="#C0C0C0" stroke="none" x="516" y="363" width="331.67041015625" height="207" opacity="0.2"/></g><g transform="translate(-499,-346) scale(1,1)"><rect fill="#ffffff" stroke="none" x="509" y="356" width="331.67041015625" height="207"/></g><g transform="translate(-499,-346) scale(1,1)"><path fill="none" stroke="#000000" d="M 509 356 L 840.67041015625 356 L 840.67041015625 563 L 509 563 L 509 356 Z Z" stroke-miterlimit="10"/></g><g transform="translate(-499,-346) scale(1,1)"><path fill="none" stroke="#000000" d="M 509 381 L 840.67041015625 381" stroke-miterlimit="10"/></g><g transform="translate(-499,-346) scale(1,1)"><path fill="none" stroke="#000000" d="M 509 391 L 840.67041015625 391" stroke-miterlimit="10"/></g><g transform="translate(-499,-346) scale(1,1)"><g><path fill="none" stroke="none"/><text fill="#000000" stroke="none" font-family="Arial" font-size="13px" font-style="italic" font-weight="bold" text-decoration="none" x="643.776123046875" y="375.5">AWorkflow</text></g></g><g transform="translate(-499,-346) scale(1,1)"><g><path fill="none" stroke="none"/><text fill="#000000" stroke="none" font-family="Arial" font-size="13px" font-style="italic" font-weight="normal" text-decoration="none" x="514" y="408.5">+getStepCount(): const uint32</text></g></g><g transform="translate(-499,-346) scale(1,1)"><g><path fill="none" stroke="none"/><text fill="#000000" stroke="none" font-family="Arial" font-size="13px" font-style="italic" font-weight="normal" text-decoration="none" x="514" y="423.5">+getStepType(step: const uint32): EAlgorithmType</text></g></g><g transform="translate(-499,-346) scale(1,1)"><g><path fill="none" stroke="none"/><text fill="#000000" stroke="none" font-family="Arial" font-size="13px" font-style="italic" font-weight="normal" text-decoration="none" x="514" y="438.5">+trySetStep(step: const uint32, algo: *APlugin): Boolean</text></g></g><g transform="translate(-499,-346) scale(1,1)"><g><path fill="none" stroke="none"/><text fill="#000000" stroke="none" font-family="Arial" font-size="13px" font-style="italic" font-weight="normal" text-decoration="none" x="514" y="453.5">+getStep(step: const uint32): *APlugin</text></g></g><g transform="translate(-499,-346) scale(1,1)"><g><path fill="none" stroke="none"/><text fill="#000000" stroke="none" font-family="Arial" font-size="13px" font-style="italic" font-weight="normal" text-decoration="none" x="514" y="468.5">+getDataStores(): vector&lt;*AContextDataStore&gt;</text></g></g><g transform="translate(-499,-346) scale(1,1)"><g><path fill="none" stroke="none"/><text fill="#000000" stroke="none" font-family="Arial" font-size="13px" font-style="italic" font-weight="normal" text-decoration="none" x="514" y="483.5">+addDataStore(): *AContextDataStore</text></g></g><g transform="translate(-499,-346) scale(1,1)"><g><path fill="none" stroke="none"/><text fill="#000000" stroke="none" font-family="Arial" font-size="13px" font-style="italic" font-weight="normal" text-decoration="none" x="514" y="498.5">+removeDataStore(id: const String): Boolean</text></g></g><g transform="translate(-499,-346) scale(1,1)"><g><path fill="none" stroke="none"/><text fill="#000000" stroke="none" font-family="Arial" font-size="13px" font-style="normal" font-weight="normal" text-decoration="none" x="514" y="513.5">+run(storeId: const String)</text></g></g><g transform="translate(-499,-346) scale(1,1)"><g><path fill="none" stroke="none"/><text fill="#000000" stroke="none" font-family="Arial" font-size="13px" font-style="normal" font-weight="normal" text-decoration="none" x="514" y="528.5">+getState(storeId: const String): uint32</text></g></g><g transform="translate(-499,-346) scale(1,1)"><g><path fill="none" stroke="none"/><text fill="#000000" stroke="none" font-family="Arial" font-size="13px" font-style="normal" font-weight="normal" text-decoration="none" x="514" y="543.5">+stop(storeId: const String)</text></g></g><g transform="translate(-499,-346) scale(1,1)"><g><path fill="none" stroke="none"/><text fill="#000000" stroke="none" font-family="Arial" font-size="13px" font-style="normal" font-weight="normal" text-decoration="none" x="514" y="558.5">+checkAvaliableDataTypes(): Boolean</text></g></g><g transform="translate(-499,-346) scale(1,1)"><rect fill="#C0C0C0" stroke="none" x="975" y="423" width="203.060546875" height="85" opacity="0.2"/></g><g transform="translate(-499,-346) scale(1,1)"><rect fill="#ffffff" stroke="none" x="968" y="416" width="203.060546875" height="85"/></g><g transform="translate(-499,-346) scale(1,1)"><path fill="none" stroke="#000000" d="M 968 416 L 1171.060546875 416 L 1171.060546875 501 L 968 501 L 968 416 Z Z" stroke-miterlimit="10"/></g><g transform="translate(-499,-346) scale(1,1)"><path fill="none" stroke="#000000" d="M 968 469 L 1171.060546875 469" stroke-miterlimit="10"/></g><g transform="translate(-499,-346) scale(1,1)"><path fill="none" stroke="#000000" d="M 968 492 L 1171.060546875 492" stroke-miterlimit="10"/></g><g transform="translate(-499,-346) scale(1,1)"><g><path fill="none" stroke="none"/><text fill="#000000" stroke="none" font-family="Arial" font-size="13px" font-style="normal" font-weight="normal" text-decoration="none" x="1045.317138671875" y="433.5">«signal»</text></g></g><g transform="translate(-499,-346) scale(1,1)"><g><path fill="none" stroke="none"/><text fill="#000000" stroke="none" font-family="Arial" font-size="13px" font-style="normal" font-weight="bold" text-decoration="none" x="999.423583984375" y="448.5">ExecutionStateChanged</text></g></g><g transform="translate(-499,-346) scale(1,1)"><g><path fill="none" stroke="none"/><text fill="#000000" stroke="none" font-family="Arial" font-size="13px" font-style="normal" font-weight="normal" text-decoration="none" x="1019.336181640625" y="463.5">(from AWorkflow)</text></g></g><g transform="translate(-499,-346) scale(1,1)"><g><path fill="none" stroke="none"/><text fill="#000000" stroke="none" font-family="Arial" font-size="13px" font-style="normal" font-weight="normal" text-decoration="none" x="973" y="486.5">+data: *SExecutionStateChanged</text></g></g><g transform="translate(-499,-346) scale(1,1)"><path fill="none" stroke="#000000" d="M 842 459 L 967 458" stroke-miterlimit="10" stroke-dasharray="3"/></g><g transform="translate(-499,-346) scale(1,1)"><path fill="none" stroke="#000000" d="M 956.8713253968256 462.2906818552544 L 967 458 L 956.803975267899 453.87191573942783" stroke-miterlimit="10"/></g></g></svg>