<svg version="1.1" xmlns="http://www.w3.org/2000/svg" xmlns:xlink="http://www.w3.org/1999/xlink" width="473.47265625" height="129"><defs/><g><g transform="translate(-430,-177) scale(1,1)"><rect fill="#C0C0C0" stroke="none" x="471" y="207" width="76.8818359375" height="24" opacity="0.2"/></g><g transform="translate(-430,-177) scale(1,1)"><rect fill="#ffffff" stroke="none" x="464" y="200" width="76.8818359375" height="24"/></g><g transform="translate(-430,-177) scale(1,1)"><path fill="none" stroke="#000000" d="M 464 200 L 540.8818359375 200 L 540.8818359375 224 L 464 224 L 464 200 Z Z" stroke-miterlimit="10"/></g><g transform="translate(-430,-177) scale(1,1)"><g><path fill="none" stroke="none"/><text fill="#000000" stroke="none" font-family="Arial" font-size="13px" font-style="italic" font-weight="bold" text-decoration="none" x="471.3818359375" y="219.5">AWorkflow</text></g></g><g transform="translate(-430,-177) scale(1,1)"><rect fill="#C0C0C0" stroke="none" x="447" y="279" width="144.0654296875" height="24" opacity="0.2"/></g><g transform="translate(-430,-177) scale(1,1)"><rect fill="#ffffff" stroke="none" x="440" y="272" width="144.0654296875" height="24"/></g><g transform="translate(-430,-177) scale(1,1)"><path fill="none" stroke="#000000" d="M 440 272 L 584.0654296875 272 L 584.0654296875 296 L 440 296 L 440 272 Z Z" stroke-miterlimit="10"/></g><g transform="translate(-430,-177) scale(1,1)"><g><path fill="none" stroke="none"/><text fill="#000000" stroke="none" font-family="Arial" font-size="13px" font-style="normal" font-weight="bold" text-decoration="none" x="448.819580078125" y="291.5">CFourPhaseWorkflow</text></g></g><g transform="translate(-430,-177) scale(1,1)"><path fill="none" stroke="#000000" d="M 510 271 L 504 225" stroke-miterlimit="10"/></g><g transform="translate(-430,-177) scale(1,1)"><path fill="#FFFFFF" stroke="none" d="M 514.9771832235846 244.0657139513802 L 504 225 L 498.28054507253995 246.24353631890776"/></g><g transform="translate(-430,-177) scale(1,1)"><path fill="none" stroke="#000000" d="M 514.9771832235846 244.0657139513802 L 504 225 L 498.28054507253995 246.24353631890776 L 514.9771832235846 244.0657139513802" stroke-miterlimit="10"/></g><g transform="translate(-430,-177) scale(1,1)"><rect fill="#C0C0C0" stroke="none" x="735" y="199" width="128.18359375" height="24" opacity="0.2"/></g><g transform="translate(-430,-177) scale(1,1)"><rect fill="#ffffff" stroke="none" x="728" y="192" width="128.18359375" height="24"/></g><g transform="translate(-430,-177) scale(1,1)"><path fill="none" stroke="#000000" d="M 728 192 L 856.18359375 192 L 856.18359375 216 L 728 216 L 728 192 Z Z" stroke-miterlimit="10"/></g><g transform="translate(-430,-177) scale(1,1)"><g><path fill="none" stroke="none"/><text fill="#000000" stroke="none" font-family="Arial" font-size="13px" font-style="italic" font-weight="bold" text-decoration="none" x="736.089599609375" y="211.5">AContextDataStore</text></g></g><g transform="translate(-430,-177) scale(1,1)"><path fill="none" stroke="#000000" d="M 542 211 L 727 206" stroke-miterlimit="10"/></g><g transform="translate(-430,-177) scale(1,1)"><path fill="none" stroke="#000000" d="M 716.9547640452824 210.4825477815691 L 727 206 L 716.7273056044601 202.06658547114054" stroke-miterlimit="10"/></g><g transform="translate(-430,-177) scale(1,1)"><g><path fill="none" stroke="none"/><text fill="#000000" stroke="none" font-family="Arial" font-size="13px" font-style="normal" font-weight="normal" text-decoration="none" x="580" y="200">#ActiveDataStores</text></g></g><g transform="translate(-430,-177) scale(1,1)"><g><path fill="none" stroke="none"/><text fill="#000000" stroke="none" font-family="Arial" font-size="13px" font-style="normal" font-weight="normal" text-decoration="none" x="560" y="229">1</text></g></g><g transform="translate(-430,-177) scale(1,1)"><g><path fill="none" stroke="none"/><text fill="#000000" stroke="none" font-family="Arial" font-size="13px" font-style="normal" font-weight="normal" text-decoration="none" x="696" y="226">0..*</text></g></g><g transform="translate(-430,-177) scale(1,1)"><rect fill="#C0C0C0" stroke="none" x="695" y="279" width="205.47265625" height="24" opacity="0.2"/></g><g transform="translate(-430,-177) scale(1,1)"><rect fill="#ffffff" stroke="none" x="688" y="272" width="205.47265625" height="24"/></g><g transform="translate(-430,-177) scale(1,1)"><path fill="none" stroke="#000000" d="M 688 272 L 893.47265625 272 L 893.47265625 296 L 688 296 L 688 272 Z Z" stroke-miterlimit="10"/></g><g transform="translate(-430,-177) scale(1,1)"><g><path fill="none" stroke="none"/><text fill="#000000" stroke="none" font-family="Arial" font-size="13px" font-style="normal" font-weight="bold" text-decoration="none" x="698.25732421875" y="291.5">CFourPhaseWorkflowDataStore</text></g></g><g transform="translate(-430,-177) scale(1,1)"><path fill="none" stroke="#000000" d="M 585 284 L 687 284" stroke-miterlimit="10"/></g><g transform="translate(-430,-177) scale(1,1)"><path fill="none" stroke="#000000" d="M 676.8373251423759 288.209517756016 L 687 284 L 676.8373251423758 279.790482243984" stroke-miterlimit="10"/></g><g transform="translate(-430,-177) scale(1,1)"><g><path fill="none" stroke="none"/><text fill="#000000" stroke="none" font-family="Arial" font-size="13px" font-style="normal" font-weight="normal" text-decoration="none" x="600" y="276">#DataStores</text></g></g><g transform="translate(-430,-177) scale(1,1)"><path fill="none" stroke="#000000" d="M 790 271 L 792 217" stroke-miterlimit="10"/></g><g transform="translate(-430,-177) scale(1,1)"><path fill="#FFFFFF" stroke="none" d="M 799.6609921297774 237.62302595613673 L 792 217 L 782.8344579834119 236.99982098775283"/></g><g transform="translate(-430,-177) scale(1,1)"><path fill="none" stroke="#000000" d="M 799.6609921297774 237.62302595613673 L 792 217 L 782.8344579834119 236.99982098775283 L 799.6609921297774 237.62302595613673" stroke-miterlimit="10"/></g></g></svg>