<svg version="1.1" xmlns="http://www.w3.org/2000/svg" xmlns:xlink="http://www.w3.org/1999/xlink" width="344.8818359375" height="44"><defs/><g><g transform="translate(-286,-2438) scale(1,1)"><rect fill="#C0C0C0" stroke="none" x="303" y="2455" width="144.0654296875" height="24" opacity="0.2"/></g><g transform="translate(-286,-2438) scale(1,1)"><rect fill="#ffffff" stroke="none" x="296" y="2448" width="144.0654296875" height="24"/></g><g transform="translate(-286,-2438) scale(1,1)"><path fill="none" stroke="#000000" d="M 296 2448 L 440.0654296875 2448 L 440.0654296875 2472 L 296 2472 L 296 2448 Z Z" stroke-miterlimit="10"/></g><g transform="translate(-286,-2438) scale(1,1)"><g><path fill="none" stroke="none"/><text fill="#000000" stroke="none" font-family="Arial" font-size="13px" font-style="normal" font-weight="bold" text-decoration="none" x="304.819580078125" y="2467.5">CFourPhaseWorkflow</text></g></g><g transform="translate(-286,-2438) scale(1,1)"><rect fill="#C0C0C0" stroke="none" x="551" y="2455" width="76.8818359375" height="24" opacity="0.2"/></g><g transform="translate(-286,-2438) scale(1,1)"><rect fill="#ffffff" stroke="none" x="544" y="2448" width="76.8818359375" height="24"/></g><g transform="translate(-286,-2438) scale(1,1)"><path fill="none" stroke="#000000" d="M 544 2448 L 620.8818359375 2448 L 620.8818359375 2472 L 544 2472 L 544 2448 Z Z" stroke-miterlimit="10"/></g><g transform="translate(-286,-2438) scale(1,1)"><g><path fill="none" stroke="none"/><text fill="#000000" stroke="none" font-family="Arial" font-size="13px" font-style="italic" font-weight="bold" text-decoration="none" x="551.3818359375" y="2467.5">AWorkflow</text></g></g><g transform="translate(-286,-2438) scale(1,1)"><path fill="none" stroke="#000000" d="M 441 2460 L 543 2460" stroke-miterlimit="10"/></g><g transform="translate(-286,-2438) scale(1,1)"><path fill="#FFFFFF" stroke="none" d="M 522.6746502847517 2468.4190355120318 L 543 2460 L 522.6746502847517 2451.5809644879682"/></g><g transform="translate(-286,-2438) scale(1,1)"><path fill="none" stroke="#000000" d="M 522.6746502847517 2468.4190355120318 L 543 2460 L 522.6746502847517 2451.5809644879682 L 522.6746502847517 2468.4190355120318" stroke-miterlimit="10"/></g></g></svg>