<svg version="1.1" xmlns="http://www.w3.org/2000/svg" xmlns:xlink="http://www.w3.org/1999/xlink" width="431.18359375" height="45"><defs/><g><g transform="translate(-347,-2486) scale(1,1)"><rect fill="#C0C0C0" stroke="none" x="364" y="2504" width="205.47265625" height="24" opacity="0.2"/></g><g transform="translate(-347,-2486) scale(1,1)"><rect fill="#ffffff" stroke="none" x="357" y="2497" width="205.47265625" height="24"/></g><g transform="translate(-347,-2486) scale(1,1)"><path fill="none" stroke="#000000" d="M 357 2497 L 562.47265625 2497 L 562.47265625 2521 L 357 2521 L 357 2497 Z Z" stroke-miterlimit="10"/></g><g transform="translate(-347,-2486) scale(1,1)"><g><path fill="none" stroke="none"/><text fill="#000000" stroke="none" font-family="Arial" font-size="13px" font-style="normal" font-weight="bold" text-decoration="none" x="367.25732421875" y="2516.5">CFourPhaseWorkflowDataStore</text></g></g><g transform="translate(-347,-2486) scale(1,1)"><rect fill="#C0C0C0" stroke="none" x="647" y="2503" width="128.18359375" height="24" opacity="0.2"/></g><g transform="translate(-347,-2486) scale(1,1)"><rect fill="#ffffff" stroke="none" x="640" y="2496" width="128.18359375" height="24"/></g><g transform="translate(-347,-2486) scale(1,1)"><path fill="none" stroke="#000000" d="M 640 2496 L 768.18359375 2496 L 768.18359375 2520 L 640 2520 L 640 2496 Z Z" stroke-miterlimit="10"/></g><g transform="translate(-347,-2486) scale(1,1)"><g><path fill="none" stroke="none"/><text fill="#000000" stroke="none" font-family="Arial" font-size="13px" font-style="italic" font-weight="bold" text-decoration="none" x="648.089599609375" y="2515.5">AContextDataStore</text></g></g><g transform="translate(-347,-2486) scale(1,1)"><path fill="none" stroke="#000000" d="M 563 2509 L 639 2508" stroke-miterlimit="10"/></g><g transform="translate(-347,-2486) scale(1,1)"><path fill="#FFFFFF" stroke="none" d="M 618.7871767170859 2516.685722476207 L 639 2508 L 618.5656423272958 2499.8491088521564"/></g><g transform="translate(-347,-2486) scale(1,1)"><path fill="none" stroke="#000000" d="M 618.7871767170859 2516.685722476207 L 639 2508 L 618.5656423272958 2499.8491088521564 L 618.7871767170859 2516.685722476207" stroke-miterlimit="10"/></g></g></svg>