<svg version="1.1" xmlns="http://www.w3.org/2000/svg" xmlns:xlink="http://www.w3.org/1999/xlink" width="372.59228515625" height="135"><defs/><g><g transform="translate(-282,-350) scale(1,1)"><rect fill="#C0C0C0" stroke="none" x="299" y="367" width="352.59228515625" height="115" opacity="0.2"/></g><g transform="translate(-282,-350) scale(1,1)"><rect fill="#ffffff" stroke="none" x="292" y="360" width="352.59228515625" height="115"/></g><g transform="translate(-282,-350) scale(1,1)"><path fill="none" stroke="#000000" d="M 292 360 L 644.59228515625 360 L 644.59228515625 475 L 292 475 L 292 360 Z Z" stroke-miterlimit="10"/></g><g transform="translate(-282,-350) scale(1,1)"><path fill="none" stroke="#000000" d="M 292 398 L 644.59228515625 398" stroke-miterlimit="10"/></g><g transform="translate(-282,-350) scale(1,1)"><path fill="none" stroke="#000000" d="M 292 408 L 644.59228515625 408" stroke-miterlimit="10"/></g><g transform="translate(-282,-350) scale(1,1)"><g><path fill="none" stroke="none"/><text fill="#000000" stroke="none" font-family="Arial" font-size="13px" font-style="normal" font-weight="normal" text-decoration="none" x="435.047119140625" y="377.5">«singleton»</text></g></g><g transform="translate(-282,-350) scale(1,1)"><g><path fill="none" stroke="none"/><text fill="#000000" stroke="none" font-family="Arial" font-size="13px" font-style="normal" font-weight="bold" text-decoration="none" x="419.87939453125" y="392.5">CPluginManager</text></g></g><g transform="translate(-282,-350) scale(1,1)"><g><path fill="none" stroke="none"/><text fill="#000000" stroke="none" font-family="Arial" font-size="13px" font-style="normal" font-weight="normal" text-decoration="none" x="297" y="425.5">+Instance(): *CPluginManager</text><path fill="none" stroke="#000000" d="M 297 425.5 L 471.509765625 425.5" stroke-miterlimit="10"/></g></g><g transform="translate(-282,-350) scale(1,1)"><g><path fill="none" stroke="none"/><text fill="#000000" stroke="none" font-family="Arial" font-size="13px" font-style="normal" font-weight="normal" text-decoration="none" x="297" y="440.5">+Initialize(): uint32</text></g></g><g transform="translate(-282,-350) scale(1,1)"><g><path fill="none" stroke="none"/><text fill="#000000" stroke="none" font-family="Arial" font-size="13px" font-style="normal" font-weight="normal" text-decoration="none" x="297" y="455.5">+getPlugins(): const vector&lt;*APlugin&gt;</text></g></g><g transform="translate(-282,-350) scale(1,1)"><g><path fill="none" stroke="none"/><text fill="#000000" stroke="none" font-family="Arial" font-size="13px" font-style="normal" font-weight="normal" text-decoration="none" x="297" y="470.5">+getPlugins(type: const EAlgorithmType): vector&lt;*APlugin&gt;</text></g></g></g></svg>