<svg version="1.1" xmlns="http://www.w3.org/2000/svg" xmlns:xlink="http://www.w3.org/1999/xlink" width="389.3271484375" height="48"><defs/><g><g transform="translate(-283,-2381) scale(1,1)"><rect fill="#C0C0C0" stroke="none" x="300" y="2398" width="165.0380859375" height="24" opacity="0.2"/></g><g transform="translate(-283,-2381) scale(1,1)"><rect fill="#ffffff" stroke="none" x="293" y="2391" width="165.0380859375" height="24"/></g><g transform="translate(-283,-2381) scale(1,1)"><path fill="none" stroke="#000000" d="M 293 2391 L 458.0380859375 2391 L 458.0380859375 2415 L 293 2415 L 293 2391 Z Z" stroke-miterlimit="10"/></g><g transform="translate(-283,-2381) scale(1,1)"><g><path fill="none" stroke="none"/><text fill="#000000" stroke="none" font-family="Arial" font-size="13px" font-style="normal" font-weight="bold" text-decoration="none" x="302.5400390625" y="2410.5">CStereoRectificationData</text></g></g><g transform="translate(-283,-2381) scale(1,1)"><rect fill="#C0C0C0" stroke="none" x="583" y="2402" width="86.3271484375" height="24" opacity="0.2"/></g><g transform="translate(-283,-2381) scale(1,1)"><rect fill="#ffffff" stroke="none" x="576" y="2395" width="86.3271484375" height="24"/></g><g transform="translate(-283,-2381) scale(1,1)"><path fill="none" stroke="#000000" d="M 576 2395 L 662.3271484375 2395 L 662.3271484375 2419 L 576 2419 L 576 2395 Z Z" stroke-miterlimit="10"/></g><g transform="translate(-283,-2381) scale(1,1)"><g><path fill="none" stroke="none"/><text fill="#000000" stroke="none" font-family="Arial" font-size="13px" font-style="italic" font-weight="bold" text-decoration="none" x="582.67724609375" y="2414.5">IDataAccess</text></g></g><g transform="translate(-283,-2381) scale(1,1)"><path fill="none" stroke="#000000" d="M 459 2404 L 575 2406" stroke-miterlimit="10"/></g><g transform="translate(-283,-2381) scale(1,1)"><path fill="#FFFFFF" stroke="none" d="M 554.5325364059405 2414.0673994586764 L 575 2406 L 554.8228048351812 2397.2318305627223"/></g><g transform="translate(-283,-2381) scale(1,1)"><path fill="none" stroke="#000000" d="M 554.5325364059405 2414.0673994586764 L 575 2406 L 554.8228048351812 2397.2318305627223 L 554.5325364059405 2414.0673994586764" stroke-miterlimit="10"/></g></g></svg>