<svg version="1.1" xmlns="http://www.w3.org/2000/svg" xmlns:xlink="http://www.w3.org/1999/xlink" width="330.10546875" height="44"><defs/><g><g transform="translate(-378,-2374) scale(1,1)"><rect fill="#C0C0C0" stroke="none" x="647" y="2391" width="58.10546875" height="24" opacity="0.2"/></g><g transform="translate(-378,-2374) scale(1,1)"><rect fill="#ffffff" stroke="none" x="640" y="2384" width="58.10546875" height="24"/></g><g transform="translate(-378,-2374) scale(1,1)"><path fill="none" stroke="#000000" d="M 640 2384 L 698.10546875 2384 L 698.10546875 2408 L 640 2408 L 640 2384 Z Z" stroke-miterlimit="10"/></g><g transform="translate(-378,-2374) scale(1,1)"><g><path fill="none" stroke="none"/><text fill="#000000" stroke="none" font-family="Arial" font-size="13px" font-style="italic" font-weight="bold" text-decoration="none" x="646.648681640625" y="2403.5">APlugin</text></g></g><g transform="translate(-378,-2374) scale(1,1)"><rect fill="#C0C0C0" stroke="none" x="395" y="2391" width="176.578125" height="24" opacity="0.2"/></g><g transform="translate(-378,-2374) scale(1,1)"><rect fill="#ffffff" stroke="none" x="388" y="2384" width="176.578125" height="24"/></g><g transform="translate(-378,-2374) scale(1,1)"><path fill="none" stroke="#000000" d="M 388 2384 L 564.578125 2384 L 564.578125 2408 L 388 2408 L 388 2384 Z Z" stroke-miterlimit="10"/></g><g transform="translate(-378,-2374) scale(1,1)"><g><path fill="none" stroke="none"/><text fill="#000000" stroke="none" font-family="Arial" font-size="13px" font-style="normal" font-weight="bold" text-decoration="none" x="398.971435546875" y="2403.5">CStereoRectificationPlugin</text></g></g><g transform="translate(-378,-2374) scale(1,1)"><path fill="none" stroke="#000000" d="M 566 2396 L 639 2396" stroke-miterlimit="10"/></g><g transform="translate(-378,-2374) scale(1,1)"><path fill="#FFFFFF" stroke="none" d="M 618.6746502847517 2404.4190355120318 L 639 2396 L 618.6746502847517 2387.5809644879682"/></g><g transform="translate(-378,-2374) scale(1,1)"><path fill="none" stroke="#000000" d="M 618.6746502847517 2404.4190355120318 L 639 2396 L 618.6746502847517 2387.5809644879682 L 618.6746502847517 2404.4190355120318" stroke-miterlimit="10"/></g></g></svg>