<svg version="1.1" xmlns="http://www.w3.org/2000/svg" xmlns:xlink="http://www.w3.org/1999/xlink" width="502.99365234375" height="57"><defs/><g><g transform="translate(-221,-2454) scale(1,1)"><rect fill="#C0C0C0" stroke="none" x="487" y="2471" width="96.4453125" height="37" opacity="0.2"/></g><g transform="translate(-221,-2454) scale(1,1)"><rect fill="#ffffff" stroke="none" x="480" y="2464" width="96.4453125" height="37"/></g><g transform="translate(-221,-2454) scale(1,1)"><path fill="none" stroke="#000000" d="M 480 2464 L 576.4453125 2464 L 576.4453125 2501 L 480 2501 L 480 2464 Z Z" stroke-miterlimit="10"/></g><g transform="translate(-221,-2454) scale(1,1)"><g><path fill="none" stroke="none"/><text fill="#000000" stroke="none" font-family="Arial" font-size="13px" font-style="normal" font-weight="normal" text-decoration="none" x="484.5" y="2481.5">«template&lt;T&gt;»</text></g></g><g transform="translate(-221,-2454) scale(1,1)"><g><path fill="none" stroke="none"/><text fill="#000000" stroke="none" font-family="Arial" font-size="13px" font-style="italic" font-weight="bold" text-decoration="none" x="496.798583984375" y="2496.5">TAlgorithm</text></g></g><g transform="translate(-221,-2454) scale(1,1)"><rect fill="#C0C0C0" stroke="none" x="647" y="2471" width="73.99365234375" height="24" opacity="0.2"/></g><g transform="translate(-221,-2454) scale(1,1)"><rect fill="#ffffff" stroke="none" x="640" y="2464" width="73.99365234375" height="24"/></g><g transform="translate(-221,-2454) scale(1,1)"><path fill="none" stroke="#000000" d="M 640 2464 L 713.99365234375 2464 L 713.99365234375 2488 L 640 2488 L 640 2464 Z Z" stroke-miterlimit="10"/></g><g transform="translate(-221,-2454) scale(1,1)"><g><path fill="none" stroke="none"/><text fill="#000000" stroke="none" font-family="Arial" font-size="13px" font-style="italic" font-weight="bold" text-decoration="none" x="647.7373046875" y="2483.5">IAlgorithm</text></g></g><g transform="translate(-221,-2454) scale(1,1)"><path fill="none" stroke="#000000" d="M 577 2480 L 639 2478" stroke-miterlimit="10"/></g><g transform="translate(-221,-2454) scale(1,1)"><path fill="#FFFFFF" stroke="none" d="M 618.9566577418414 2487.069974152241 L 639 2478 L 618.4137765433771 2470.2406569998493"/></g><g transform="translate(-221,-2454) scale(1,1)"><path fill="none" stroke="#000000" d="M 618.9566577418414 2487.069974152241 L 639 2478 L 618.4137765433771 2470.2406569998493 L 618.9566577418414 2487.069974152241" stroke-miterlimit="10"/></g><g transform="translate(-221,-2454) scale(1,1)"><rect fill="#C0C0C0" stroke="none" x="238" y="2479" width="198.24267578125" height="24" opacity="0.2"/></g><g transform="translate(-221,-2454) scale(1,1)"><rect fill="#ffffff" stroke="none" x="231" y="2472" width="198.24267578125" height="24"/></g><g transform="translate(-221,-2454) scale(1,1)"><path fill="none" stroke="#000000" d="M 231 2472 L 429.24267578125 2472 L 429.24267578125 2496 L 231 2496 L 231 2472 Z Z" stroke-miterlimit="10"/></g><g transform="translate(-221,-2454) scale(1,1)"><g><path fill="none" stroke="none"/><text fill="#000000" stroke="none" font-family="Arial" font-size="13px" font-style="normal" font-weight="bold" text-decoration="none" x="243.418701171875" y="2491.5">CStereoRectificationAlgorithm</text></g></g><g transform="translate(-221,-2454) scale(1,1)"><path fill="none" stroke="#000000" d="M 430 2483 L 479 2482" stroke-miterlimit="10"/></g><g transform="translate(-221,-2454) scale(1,1)"><path fill="#FFFFFF" stroke="none" d="M 458.8506629294146 2490.8319995253587 L 479 2482 L 458.5071003651582 2473.997433876793"/></g><g transform="translate(-221,-2454) scale(1,1)"><path fill="none" stroke="#000000" d="M 458.8506629294146 2490.8319995253587 L 479 2482 L 458.5071003651582 2473.997433876793 L 458.8506629294146 2490.8319995253587" stroke-miterlimit="10"/></g></g></svg>