<svg version="1.1" xmlns="http://www.w3.org/2000/svg" xmlns:xlink="http://www.w3.org/1999/xlink" width="283.6298828125" height="120"><defs/><g><g transform="translate(-631,-2492) scale(1,1)"><rect fill="#C0C0C0" stroke="none" x="648" y="2509" width="263.6298828125" height="100" opacity="0.2"/></g><g transform="translate(-631,-2492) scale(1,1)"><rect fill="#ffffff" stroke="none" x="641" y="2502" width="263.6298828125" height="100"/></g><g transform="translate(-631,-2492) scale(1,1)"><path fill="none" stroke="#000000" d="M 641 2502 L 904.6298828125 2502 L 904.6298828125 2602 L 641 2602 L 641 2502 Z Z" stroke-miterlimit="10"/></g><g transform="translate(-631,-2492) scale(1,1)"><path fill="none" stroke="#000000" d="M 641 2540 L 904.6298828125 2540" stroke-miterlimit="10"/></g><g transform="translate(-631,-2492) scale(1,1)"><path fill="none" stroke="#000000" d="M 641 2550 L 904.6298828125 2550" stroke-miterlimit="10"/></g><g transform="translate(-631,-2492) scale(1,1)"><g><path fill="none" stroke="none"/><text fill="#000000" stroke="none" font-family="Arial" font-size="13px" font-style="normal" font-weight="normal" text-decoration="none" x="739.56591796875" y="2519.5">«singleton»</text></g></g><g transform="translate(-631,-2492) scale(1,1)"><g><path fill="none" stroke="none"/><text fill="#000000" stroke="none" font-family="Arial" font-size="13px" font-style="normal" font-weight="bold" text-decoration="none" x="715.7431640625" y="2534.5">CWorkflowManager</text></g></g><g transform="translate(-631,-2492) scale(1,1)"><g><path fill="none" stroke="none"/><text fill="#000000" stroke="none" font-family="Arial" font-size="13px" font-style="normal" font-weight="normal" text-decoration="none" x="646" y="2567.5">+Instance(): *CWorkflowManager</text><path fill="none" stroke="#000000" d="M 646 2567.5 L 837.81982421875 2567.5" stroke-miterlimit="10"/></g></g><g transform="translate(-631,-2492) scale(1,1)"><g><path fill="none" stroke="none"/><text fill="#000000" stroke="none" font-family="Arial" font-size="13px" font-style="normal" font-weight="normal" text-decoration="none" x="646" y="2582.5">+getAvailableWorkflows(): vector&lt;string&gt;</text></g></g><g transform="translate(-631,-2492) scale(1,1)"><g><path fill="none" stroke="none"/><text fill="#000000" stroke="none" font-family="Arial" font-size="13px" font-style="normal" font-weight="normal" text-decoration="none" x="646" y="2597.5">+getWorkflow(workflow: string): *AWorkflow</text></g></g></g></svg>