<svg version="1.1" xmlns="http://www.w3.org/2000/svg" xmlns:xlink="http://www.w3.org/1999/xlink" width="280.748046875" height="120"><defs/><g><g transform="translate(-435,-545) scale(1,1)"><rect fill="#C0C0C0" stroke="none" x="452" y="562" width="260.748046875" height="100" opacity="0.2"/></g><g transform="translate(-435,-545) scale(1,1)"><rect fill="#ffffff" stroke="none" x="445" y="555" width="260.748046875" height="100"/></g><g transform="translate(-435,-545) scale(1,1)"><path fill="none" stroke="#000000" d="M 445 555 L 705.748046875 555 L 705.748046875 655 L 445 655 L 445 555 Z Z" stroke-miterlimit="10"/></g><g transform="translate(-435,-545) scale(1,1)"><path fill="none" stroke="#000000" d="M 445 593 L 705.748046875 593" stroke-miterlimit="10"/></g><g transform="translate(-435,-545) scale(1,1)"><path fill="none" stroke="#000000" d="M 445 603 L 705.748046875 603" stroke-miterlimit="10"/></g><g transform="translate(-435,-545) scale(1,1)"><g><path fill="none" stroke="none"/><text fill="#000000" stroke="none" font-family="Arial" font-size="13px" font-style="normal" font-weight="normal" text-decoration="none" x="542.125" y="572.5">«singleton»</text></g></g><g transform="translate(-435,-545) scale(1,1)"><g><path fill="none" stroke="none"/><text fill="#000000" stroke="none" font-family="Arial" font-size="13px" font-style="normal" font-weight="bold" text-decoration="none" x="518.30224609375" y="587.5">CWorkflowManager</text></g></g><g transform="translate(-435,-545) scale(1,1)"><g><path fill="none" stroke="none"/><text fill="#000000" stroke="none" font-family="Arial" font-size="13px" font-style="normal" font-weight="normal" text-decoration="none" x="450" y="620.5">+Instance(): *CWorkflowManager</text><path fill="none" stroke="#000000" d="M 450 620.5 L 641.81982421875 620.5" stroke-miterlimit="10"/></g></g><g transform="translate(-435,-545) scale(1,1)"><g><path fill="none" stroke="none"/><text fill="#000000" stroke="none" font-family="Arial" font-size="13px" font-style="normal" font-weight="normal" text-decoration="none" x="450" y="635.5">+getAvailableWorkflows(): vector&lt;QString&gt;</text></g></g><g transform="translate(-435,-545) scale(1,1)"><g><path fill="none" stroke="none"/><text fill="#000000" stroke="none" font-family="Arial" font-size="13px" font-style="normal" font-weight="normal" text-decoration="none" x="450" y="650.5">+getWorkflow(workflow: string): *AWorkflow</text></g></g></g></svg>