<svg version="1.1" xmlns="http://www.w3.org/2000/svg" xmlns:xlink="http://www.w3.org/1999/xlink" width="129.39453125" height="125"><defs/><g><g transform="translate(-523,-371) scale(1,1)"><rect fill="#C0C0C0" stroke="none" x="540" y="388" width="109.39453125" height="105" opacity="0.2"/></g><g transform="translate(-523,-371) scale(1,1)"><rect fill="#ffffff" stroke="none" x="533" y="381" width="109.39453125" height="105"/></g><g transform="translate(-523,-371) scale(1,1)"><path fill="none" stroke="#000000" d="M 533 381 L 642.39453125 381 L 642.39453125 486 L 533 486 L 533 381 Z Z" stroke-miterlimit="10"/></g><g transform="translate(-523,-371) scale(1,1)"><path fill="none" stroke="#000000" d="M 533 419 L 642.39453125 419" stroke-miterlimit="10"/></g><g transform="translate(-523,-371) scale(1,1)"><g><path fill="none" stroke="none"/><text fill="#000000" stroke="none" font-family="Arial" font-size="13px" font-style="normal" font-weight="normal" text-decoration="none" x="544.333251953125" y="398.5">«enumeration»</text></g></g><g transform="translate(-523,-371) scale(1,1)"><g><path fill="none" stroke="none"/><text fill="#000000" stroke="none" font-family="Arial" font-size="13px" font-style="normal" font-weight="bold" text-decoration="none" x="541.457763671875" y="413.5">EAlgorithmType</text></g></g><g transform="translate(-523,-371) scale(1,1)"><g><path fill="none" stroke="none"/><text fill="#000000" stroke="none" font-family="Arial" font-size="13px" font-style="normal" font-weight="normal" text-decoration="none" x="538" y="436.5">FeatureMatcher</text></g></g><g transform="translate(-523,-371) scale(1,1)"><g><path fill="none" stroke="none"/><text fill="#000000" stroke="none" font-family="Arial" font-size="13px" font-style="normal" font-weight="normal" text-decoration="none" x="538" y="451.5">DepthMapper</text></g></g><g transform="translate(-523,-371) scale(1,1)"><g><path fill="none" stroke="none"/><text fill="#000000" stroke="none" font-family="Arial" font-size="13px" font-style="normal" font-weight="normal" text-decoration="none" x="538" y="466.5">PoseEstimator</text></g></g><g transform="translate(-523,-371) scale(1,1)"><g><path fill="none" stroke="none"/><text fill="#000000" stroke="none" font-family="Arial" font-size="13px" font-style="normal" font-weight="normal" text-decoration="none" x="538" y="481.5">PclReconstuctor</text></g></g></g></svg>