<svg version="1.1" xmlns="http://www.w3.org/2000/svg" xmlns:xlink="http://www.w3.org/1999/xlink" width="125.82080078125" height="140"><defs/><g><g transform="translate(-482,-476) scale(1,1)"><rect fill="#C0C0C0" stroke="none" x="499" y="493" width="105.82080078125" height="120" opacity="0.2"/></g><g transform="translate(-482,-476) scale(1,1)"><rect fill="#ffffff" stroke="none" x="492" y="486" width="105.82080078125" height="120"/></g><g transform="translate(-482,-476) scale(1,1)"><path fill="none" stroke="#000000" d="M 492 486 L 597.82080078125 486 L 597.82080078125 606 L 492 606 L 492 486 Z Z" stroke-miterlimit="10"/></g><g transform="translate(-482,-476) scale(1,1)"><path fill="none" stroke="#000000" d="M 492 524 L 597.82080078125 524" stroke-miterlimit="10"/></g><g transform="translate(-482,-476) scale(1,1)"><g><path fill="none" stroke="none"/><text fill="#000000" stroke="none" font-family="Arial" font-size="13px" font-style="normal" font-weight="normal" text-decoration="none" x="501.54638671875" y="503.5">«enumeration»</text></g></g><g transform="translate(-482,-476) scale(1,1)"><g><path fill="none" stroke="none"/><text fill="#000000" stroke="none" font-family="Arial" font-size="13px" font-style="normal" font-weight="bold" text-decoration="none" x="509.14453125" y="518.5">EDataTypes</text></g></g><g transform="translate(-482,-476) scale(1,1)"><g><path fill="none" stroke="none"/><text fill="#000000" stroke="none" font-family="Arial" font-size="13px" font-style="normal" font-weight="normal" text-decoration="none" x="497" y="541.5">Images</text></g></g><g transform="translate(-482,-476) scale(1,1)"><g><path fill="none" stroke="none"/><text fill="#000000" stroke="none" font-family="Arial" font-size="13px" font-style="normal" font-weight="normal" text-decoration="none" x="497" y="556.5">FeatureMatches</text></g></g><g transform="translate(-482,-476) scale(1,1)"><g><path fill="none" stroke="none"/><text fill="#000000" stroke="none" font-family="Arial" font-size="13px" font-style="normal" font-weight="normal" text-decoration="none" x="497" y="571.5">DepthMaps</text></g></g><g transform="translate(-482,-476) scale(1,1)"><g><path fill="none" stroke="none"/><text fill="#000000" stroke="none" font-family="Arial" font-size="13px" font-style="normal" font-weight="normal" text-decoration="none" x="497" y="586.5">PoseEstimations</text></g></g><g transform="translate(-482,-476) scale(1,1)"><g><path fill="none" stroke="none"/><text fill="#000000" stroke="none" font-family="Arial" font-size="13px" font-style="normal" font-weight="normal" text-decoration="none" x="497" y="601.5">PointCloud</text></g></g></g></svg>