<svg version="1.1" xmlns="http://www.w3.org/2000/svg" xmlns:xlink="http://www.w3.org/1999/xlink" width="131.58447265625" height="125"><defs/><g><g transform="translate(-548,-531) scale(1,1)"><rect fill="#C0C0C0" stroke="none" x="565" y="548" width="111.58447265625" height="105" opacity="0.2"/></g><g transform="translate(-548,-531) scale(1,1)"><rect fill="#ffffff" stroke="none" x="558" y="541" width="111.58447265625" height="105"/></g><g transform="translate(-548,-531) scale(1,1)"><path fill="none" stroke="#000000" d="M 558 541 L 669.58447265625 541 L 669.58447265625 646 L 558 646 L 558 541 Z Z" stroke-miterlimit="10"/></g><g transform="translate(-548,-531) scale(1,1)"><path fill="none" stroke="#000000" d="M 558 579 L 669.58447265625 579" stroke-miterlimit="10"/></g><g transform="translate(-548,-531) scale(1,1)"><g><path fill="none" stroke="none"/><text fill="#000000" stroke="none" font-family="Arial" font-size="13px" font-style="normal" font-weight="normal" text-decoration="none" x="570.42822265625" y="558.5">«enumeration»</text></g></g><g transform="translate(-548,-531) scale(1,1)"><g><path fill="none" stroke="none"/><text fill="#000000" stroke="none" font-family="Arial" font-size="13px" font-style="normal" font-weight="bold" text-decoration="none" x="565.734130859375" y="573.5">EExecutionState</text></g></g><g transform="translate(-548,-531) scale(1,1)"><g><path fill="none" stroke="none"/><text fill="#000000" stroke="none" font-family="Arial" font-size="13px" font-style="normal" font-weight="normal" text-decoration="none" x="563" y="596.5">Ready</text></g></g><g transform="translate(-548,-531) scale(1,1)"><g><path fill="none" stroke="none"/><text fill="#000000" stroke="none" font-family="Arial" font-size="13px" font-style="normal" font-weight="normal" text-decoration="none" x="563" y="611.5">Running</text></g></g><g transform="translate(-548,-531) scale(1,1)"><g><path fill="none" stroke="none"/><text fill="#000000" stroke="none" font-family="Arial" font-size="13px" font-style="normal" font-weight="normal" text-decoration="none" x="563" y="626.5">Finished</text></g></g><g transform="translate(-548,-531) scale(1,1)"><g><path fill="none" stroke="none"/><text fill="#000000" stroke="none" font-family="Arial" font-size="13px" font-style="normal" font-weight="normal" text-decoration="none" x="563" y="641.5">Error</text></g></g></g></svg>