<svg version="1.1" xmlns="http://www.w3.org/2000/svg" xmlns:xlink="http://www.w3.org/1999/xlink" width="468.0654296875" height="125"><defs/><g><g transform="translate(-238,-670) scale(1,1)"><rect fill="#C0C0C0" stroke="none" x="255" y="692" width="260.748046875" height="100" opacity="0.2"/></g><g transform="translate(-238,-670) scale(1,1)"><rect fill="#ffffff" stroke="none" x="248" y="685" width="260.748046875" height="100"/></g><g transform="translate(-238,-670) scale(1,1)"><path fill="none" stroke="#000000" d="M 248 685 L 508.748046875 685 L 508.748046875 785 L 248 785 L 248 685 Z Z" stroke-miterlimit="10"/></g><g transform="translate(-238,-670) scale(1,1)"><path fill="none" stroke="#000000" d="M 248 723 L 508.748046875 723" stroke-miterlimit="10"/></g><g transform="translate(-238,-670) scale(1,1)"><path fill="none" stroke="#000000" d="M 248 733 L 508.748046875 733" stroke-miterlimit="10"/></g><g transform="translate(-238,-670) scale(1,1)"><g><path fill="none" stroke="none"/><text fill="#000000" stroke="none" font-family="Arial" font-size="13px" font-style="normal" font-weight="normal" text-decoration="none" x="345.125" y="702.5">«singleton»</text></g></g><g transform="translate(-238,-670) scale(1,1)"><g><path fill="none" stroke="none"/><text fill="#000000" stroke="none" font-family="Arial" font-size="13px" font-style="normal" font-weight="bold" text-decoration="none" x="321.30224609375" y="717.5">CWorkflowManager</text></g></g><g transform="translate(-238,-670) scale(1,1)"><g><path fill="none" stroke="none"/><text fill="#000000" stroke="none" font-family="Arial" font-size="13px" font-style="normal" font-weight="normal" text-decoration="none" x="253" y="750.5">+Instance(): *CWorkflowManager</text><path fill="none" stroke="#000000" d="M 253 750.5 L 444.81982421875 750.5" stroke-miterlimit="10"/></g></g><g transform="translate(-238,-670) scale(1,1)"><g><path fill="none" stroke="none"/><text fill="#000000" stroke="none" font-family="Arial" font-size="13px" font-style="normal" font-weight="normal" text-decoration="none" x="253" y="765.5">+getAvailableWorkflows(): vector&lt;QString&gt;</text></g></g><g transform="translate(-238,-670) scale(1,1)"><g><path fill="none" stroke="none"/><text fill="#000000" stroke="none" font-family="Arial" font-size="13px" font-style="normal" font-weight="normal" text-decoration="none" x="253" y="780.5">+getWorkflow(workflow: string): *AWorkflow</text></g></g><g transform="translate(-238,-670) scale(1,1)"><rect fill="#C0C0C0" stroke="none" x="559" y="767" width="144.0654296875" height="24" opacity="0.2"/></g><g transform="translate(-238,-670) scale(1,1)"><rect fill="#ffffff" stroke="none" x="552" y="760" width="144.0654296875" height="24"/></g><g transform="translate(-238,-670) scale(1,1)"><path fill="none" stroke="#000000" d="M 552 760 L 696.0654296875 760 L 696.0654296875 784 L 552 784 L 552 760 Z Z" stroke-miterlimit="10"/></g><g transform="translate(-238,-670) scale(1,1)"><g><path fill="none" stroke="none"/><text fill="#000000" stroke="none" font-family="Arial" font-size="13px" font-style="normal" font-weight="bold" text-decoration="none" x="560.819580078125" y="779.5">CFourPhaseWorkflow</text></g></g><g transform="translate(-238,-670) scale(1,1)"><rect fill="#C0C0C0" stroke="none" x="591" y="687" width="76.8818359375" height="24" opacity="0.2"/></g><g transform="translate(-238,-670) scale(1,1)"><rect fill="#ffffff" stroke="none" x="584" y="680" width="76.8818359375" height="24"/></g><g transform="translate(-238,-670) scale(1,1)"><path fill="none" stroke="#000000" d="M 584 680 L 660.8818359375 680 L 660.8818359375 704 L 584 704 L 584 680 Z Z" stroke-miterlimit="10"/></g><g transform="translate(-238,-670) scale(1,1)"><g><path fill="none" stroke="none"/><text fill="#000000" stroke="none" font-family="Arial" font-size="13px" font-style="italic" font-weight="bold" text-decoration="none" x="591.3818359375" y="699.5">AWorkflow</text></g></g><g transform="translate(-238,-670) scale(1,1)"><path fill="none" stroke="#000000" d="M 624 759 L 622 705" stroke-miterlimit="10"/></g><g transform="translate(-238,-670) scale(1,1)"><path fill="#FFFFFF" stroke="none" d="M 631.1655420165881 724.9998209877529 L 622 705 L 614.3390078702226 725.6230259561368"/></g><g transform="translate(-238,-670) scale(1,1)"><path fill="none" stroke="#000000" d="M 631.1655420165881 724.9998209877529 L 622 705 L 614.3390078702226 725.6230259561368 L 631.1655420165881 724.9998209877529" stroke-miterlimit="10"/></g></g></svg>