<svg version="1.1" xmlns="http://www.w3.org/2000/svg" xmlns:xlink="http://www.w3.org/1999/xlink" width="476.0654296875" height="128"><defs/><g><g transform="translate(-150,-190) scale(1,1)"><rect fill="#C0C0C0" stroke="none" x="167" y="215" width="263.6298828125" height="100" opacity="0.2"/></g><g transform="translate(-150,-190) scale(1,1)"><rect fill="#ffffff" stroke="none" x="160" y="208" width="263.6298828125" height="100"/></g><g transform="translate(-150,-190) scale(1,1)"><path fill="none" stroke="#000000" d="M 160 208 L 423.6298828125 208 L 423.6298828125 308 L 160 308 L 160 208 Z Z" stroke-miterlimit="10"/></g><g transform="translate(-150,-190) scale(1,1)"><path fill="none" stroke="#000000" d="M 160 246 L 423.6298828125 246" stroke-miterlimit="10"/></g><g transform="translate(-150,-190) scale(1,1)"><path fill="none" stroke="#000000" d="M 160 256 L 423.6298828125 256" stroke-miterlimit="10"/></g><g transform="translate(-150,-190) scale(1,1)"><g><path fill="none" stroke="none"/><text fill="#000000" stroke="none" font-family="Arial" font-size="13px" font-style="normal" font-weight="normal" text-decoration="none" x="258.56591796875" y="225.5">«singleton»</text></g></g><g transform="translate(-150,-190) scale(1,1)"><g><path fill="none" stroke="none"/><text fill="#000000" stroke="none" font-family="Arial" font-size="13px" font-style="normal" font-weight="bold" text-decoration="none" x="234.7431640625" y="240.5">CWorkflowManager</text></g></g><g transform="translate(-150,-190) scale(1,1)"><g><path fill="none" stroke="none"/><text fill="#000000" stroke="none" font-family="Arial" font-size="13px" font-style="normal" font-weight="normal" text-decoration="none" x="165" y="273.5">+Instance(): *CWorkflowManager</text><path fill="none" stroke="#000000" d="M 165 273.5 L 356.81982421875 273.5" stroke-miterlimit="10"/></g></g><g transform="translate(-150,-190) scale(1,1)"><g><path fill="none" stroke="none"/><text fill="#000000" stroke="none" font-family="Arial" font-size="13px" font-style="normal" font-weight="normal" text-decoration="none" x="165" y="288.5">+GetAvailableWorkflows(): vector&lt;string&gt;</text></g></g><g transform="translate(-150,-190) scale(1,1)"><g><path fill="none" stroke="none"/><text fill="#000000" stroke="none" font-family="Arial" font-size="13px" font-style="normal" font-weight="normal" text-decoration="none" x="165" y="303.5">+GetWorkflow(workflow: string): *AWorkflow</text></g></g><g transform="translate(-150,-190) scale(1,1)"><rect fill="#C0C0C0" stroke="none" x="511" y="207" width="76.8818359375" height="24" opacity="0.2"/></g><g transform="translate(-150,-190) scale(1,1)"><rect fill="#ffffff" stroke="none" x="504" y="200" width="76.8818359375" height="24"/></g><g transform="translate(-150,-190) scale(1,1)"><path fill="none" stroke="#000000" d="M 504 200 L 580.8818359375 200 L 580.8818359375 224 L 504 224 L 504 200 Z Z" stroke-miterlimit="10"/></g><g transform="translate(-150,-190) scale(1,1)"><g><path fill="none" stroke="none"/><text fill="#000000" stroke="none" font-family="Arial" font-size="13px" font-style="italic" font-weight="bold" text-decoration="none" x="511.3818359375" y="219.5">AWorkflow</text></g></g><g transform="translate(-150,-190) scale(1,1)"><rect fill="#C0C0C0" stroke="none" x="479" y="287" width="144.0654296875" height="24" opacity="0.2"/></g><g transform="translate(-150,-190) scale(1,1)"><rect fill="#ffffff" stroke="none" x="472" y="280" width="144.0654296875" height="24"/></g><g transform="translate(-150,-190) scale(1,1)"><path fill="none" stroke="#000000" d="M 472 280 L 616.0654296875 280 L 616.0654296875 304 L 472 304 L 472 280 Z Z" stroke-miterlimit="10"/></g><g transform="translate(-150,-190) scale(1,1)"><g><path fill="none" stroke="none"/><text fill="#000000" stroke="none" font-family="Arial" font-size="13px" font-style="normal" font-weight="bold" text-decoration="none" x="480.819580078125" y="299.5">CFourPhaseWorkflow</text></g></g><g transform="translate(-150,-190) scale(1,1)"><path fill="none" stroke="#000000" d="M 544 279 L 542 225" stroke-miterlimit="10"/></g><g transform="translate(-150,-190) scale(1,1)"><path fill="#FFFFFF" stroke="none" d="M 551.1655420165881 244.99982098775283 L 542 225 L 534.3390078702226 245.62302595613673"/></g><g transform="translate(-150,-190) scale(1,1)"><path fill="none" stroke="#000000" d="M 551.1655420165881 244.99982098775283 L 542 225 L 534.3390078702226 245.62302595613673 L 551.1655420165881 244.99982098775283" stroke-miterlimit="10"/></g></g></svg>