<svg version="1.1" xmlns="http://www.w3.org/2000/svg" xmlns:xlink="http://www.w3.org/1999/xlink" width="295.9697265625" height="107"><defs/><g><g transform="translate(-414,-321) scale(1,1)"><rect fill="#C0C0C0" stroke="none" x="431" y="338" width="275.9697265625" height="87" opacity="0.2"/></g><g transform="translate(-414,-321) scale(1,1)"><rect fill="#ffffff" stroke="none" x="424" y="331" width="275.9697265625" height="87"/></g><g transform="translate(-414,-321) scale(1,1)"><path fill="none" stroke="#000000" d="M 424 331 L 699.9697265625 331 L 699.9697265625 418 L 424 418 L 424 331 Z Z" stroke-miterlimit="10"/></g><g transform="translate(-414,-321) scale(1,1)"><path fill="none" stroke="#000000" d="M 424 356 L 699.9697265625 356" stroke-miterlimit="10"/></g><g transform="translate(-414,-321) scale(1,1)"><path fill="none" stroke="#000000" d="M 424 366 L 699.9697265625 366" stroke-miterlimit="10"/></g><g transform="translate(-414,-321) scale(1,1)"><g><path fill="none" stroke="none"/><text fill="#000000" stroke="none" font-family="Arial" font-size="13px" font-style="italic" font-weight="bold" text-decoration="none" x="532.725341796875" y="350.5">IAlgorithm</text></g></g><g transform="translate(-414,-321) scale(1,1)"><g><path fill="none" stroke="none"/><text fill="#000000" stroke="none" font-family="Arial" font-size="13px" font-style="italic" font-weight="normal" text-decoration="none" x="429" y="383.5">+setLogger(log: *Logger)</text></g></g><g transform="translate(-414,-321) scale(1,1)"><g><path fill="none" stroke="none"/><text fill="#000000" stroke="none" font-family="Arial" font-size="13px" font-style="italic" font-weight="normal" text-decoration="none" x="429" y="398.5">+setParameters(p: *CAlgorithmSettingsModel)</text></g></g><g transform="translate(-414,-321) scale(1,1)"><g><path fill="none" stroke="none"/><text fill="#000000" stroke="none" font-family="Arial" font-size="13px" font-style="italic" font-weight="normal" text-decoration="none" x="429" y="413.5">+run()</text></g></g></g></svg>