<svg version="1.1" xmlns="http://www.w3.org/2000/svg" xmlns:xlink="http://www.w3.org/1999/xlink" width="253.37060546875" height="77"><defs/><g><g transform="translate(-457,-451) scale(1,1)"><rect fill="#C0C0C0" stroke="none" x="474" y="468" width="233.37060546875" height="57" opacity="0.2"/></g><g transform="translate(-457,-451) scale(1,1)"><rect fill="#ffffff" stroke="none" x="467" y="461" width="233.37060546875" height="57"/></g><g transform="translate(-457,-451) scale(1,1)"><path fill="none" stroke="#000000" d="M 467 461 L 700.37060546875 461 L 700.37060546875 518 L 467 518 L 467 461 Z Z" stroke-miterlimit="10"/></g><g transform="translate(-457,-451) scale(1,1)"><path fill="none" stroke="#000000" d="M 467 486 L 700.37060546875 486" stroke-miterlimit="10"/></g><g transform="translate(-457,-451) scale(1,1)"><path fill="none" stroke="#000000" d="M 467 496 L 700.37060546875 496" stroke-miterlimit="10"/></g><g transform="translate(-457,-451) scale(1,1)"><g><path fill="none" stroke="none"/><text fill="#000000" stroke="none" font-family="Arial" font-size="13px" font-style="italic" font-weight="bold" text-decoration="none" x="554.060791015625" y="480.5">IDataView</text></g></g><g transform="translate(-457,-451) scale(1,1)"><g><path fill="none" stroke="none"/><text fill="#000000" stroke="none" font-family="Arial" font-size="13px" font-style="italic" font-weight="normal" text-decoration="none" x="472" y="513.5">«template &lt;T&gt;»+applyData(packet: *T)</text></g></g></g></svg>