<svg version="1.1" xmlns="http://www.w3.org/2000/svg" xmlns:xlink="http://www.w3.org/1999/xlink" width="205.66162109375" height="90"><defs/><g><g transform="translate(-576,-351) scale(1,1)"><rect fill="#C0C0C0" stroke="none" x="593" y="368" width="185.66162109375" height="70" opacity="0.2"/></g><g transform="translate(-576,-351) scale(1,1)"><rect fill="#ffffff" stroke="none" x="586" y="361" width="185.66162109375" height="70"/></g><g transform="translate(-576,-351) scale(1,1)"><path fill="none" stroke="#000000" d="M 586 361 L 771.66162109375 361 L 771.66162109375 431 L 586 431 L 586 361 Z Z" stroke-miterlimit="10"/></g><g transform="translate(-576,-351) scale(1,1)"><path fill="none" stroke="#000000" d="M 586 386 L 771.66162109375 386" stroke-miterlimit="10"/></g><g transform="translate(-576,-351) scale(1,1)"><path fill="none" stroke="#000000" d="M 586 409 L 771.66162109375 409" stroke-miterlimit="10"/></g><g transform="translate(-576,-351) scale(1,1)"><g><path fill="none" stroke="none"/><text fill="#000000" stroke="none" font-family="Arial" font-size="13px" font-style="italic" font-weight="bold" text-decoration="none" x="643.423583984375" y="380.5">IDataPacket</text></g></g><g transform="translate(-576,-351) scale(1,1)"><g><path fill="none" stroke="none"/><text fill="#000000" stroke="none" font-family="Arial" font-size="13px" font-style="normal" font-weight="normal" text-decoration="none" x="591" y="403.5">+Id: String</text></g></g><g transform="translate(-576,-351) scale(1,1)"><g><path fill="none" stroke="none"/><text fill="#000000" stroke="none" font-family="Arial" font-size="13px" font-style="italic" font-weight="normal" text-decoration="none" x="591" y="426.5">+getType(): const EDataTypes</text></g></g></g></svg>