<svg version="1.1" xmlns="http://www.w3.org/2000/svg" xmlns:xlink="http://www.w3.org/1999/xlink" width="205.66162109375" height="90"><defs/><g><g transform="translate(-217,-679) scale(1,1)"><rect fill="#C0C0C0" stroke="none" x="234" y="696" width="185.66162109375" height="70" opacity="0.2"/></g><g transform="translate(-217,-679) scale(1,1)"><rect fill="#ffffff" stroke="none" x="227" y="689" width="185.66162109375" height="70"/></g><g transform="translate(-217,-679) scale(1,1)"><path fill="none" stroke="#000000" d="M 227 689 L 412.66162109375 689 L 412.66162109375 759 L 227 759 L 227 689 Z Z" stroke-miterlimit="10"/></g><g transform="translate(-217,-679) scale(1,1)"><path fill="none" stroke="#000000" d="M 227 714 L 412.66162109375 714" stroke-miterlimit="10"/></g><g transform="translate(-217,-679) scale(1,1)"><path fill="none" stroke="#000000" d="M 227 737 L 412.66162109375 737" stroke-miterlimit="10"/></g><g transform="translate(-217,-679) scale(1,1)"><g><path fill="none" stroke="none"/><text fill="#000000" stroke="none" font-family="Arial" font-size="13px" font-style="italic" font-weight="bold" text-decoration="none" x="284.423583984375" y="708.5">IDataPacket</text></g></g><g transform="translate(-217,-679) scale(1,1)"><g><path fill="none" stroke="none"/><text fill="#000000" stroke="none" font-family="Arial" font-size="13px" font-style="normal" font-weight="normal" text-decoration="none" x="232" y="731.5">+Id: QString</text></g></g><g transform="translate(-217,-679) scale(1,1)"><g><path fill="none" stroke="none"/><text fill="#000000" stroke="none" font-family="Arial" font-size="13px" font-style="italic" font-weight="normal" text-decoration="none" x="232" y="754.5">+getType(): const EDataTypes</text></g></g></g></svg>