<svg version="1.1" xmlns="http://www.w3.org/2000/svg" xmlns:xlink="http://www.w3.org/1999/xlink" width="324.19140625" height="107"><defs/><g><g transform="translate(-238,-904) scale(1,1)"><rect fill="#C0C0C0" stroke="none" x="255" y="921" width="304.19140625" height="87" opacity="0.2"/></g><g transform="translate(-238,-904) scale(1,1)"><rect fill="#ffffff" stroke="none" x="248" y="914" width="304.19140625" height="87"/></g><g transform="translate(-238,-904) scale(1,1)"><path fill="none" stroke="#000000" d="M 248 914 L 552.19140625 914 L 552.19140625 1001 L 248 1001 L 248 914 Z Z" stroke-miterlimit="10"/></g><g transform="translate(-238,-904) scale(1,1)"><path fill="none" stroke="#000000" d="M 248 939 L 552.19140625 939" stroke-miterlimit="10"/></g><g transform="translate(-238,-904) scale(1,1)"><path fill="none" stroke="#000000" d="M 248 949 L 552.19140625 949" stroke-miterlimit="10"/></g><g transform="translate(-238,-904) scale(1,1)"><g><path fill="none" stroke="none"/><text fill="#000000" stroke="none" font-family="Arial" font-size="13px" font-style="italic" font-weight="bold" text-decoration="none" x="363.609375" y="933.5">IDataAccess</text></g></g><g transform="translate(-238,-904) scale(1,1)"><g><path fill="none" stroke="none"/><text fill="#000000" stroke="none" font-family="Arial" font-size="13px" font-style="italic" font-weight="normal" text-decoration="none" x="253" y="966.5">+bindToDataStore(dataStore: *AContextDataStore)</text></g></g><g transform="translate(-238,-904) scale(1,1)"><g><path fill="none" stroke="none"/><text fill="#000000" stroke="none" font-family="Arial" font-size="13px" font-style="italic" font-weight="normal" text-decoration="none" x="253" y="981.5">+getInputDataTypes(): const vector&lt;EDataType&gt;</text></g></g><g transform="translate(-238,-904) scale(1,1)"><g><path fill="none" stroke="none"/><text fill="#000000" stroke="none" font-family="Arial" font-size="13px" font-style="italic" font-weight="normal" text-decoration="none" x="253" y="996.5">+getOutputDataTypes(): const vector&lt;EDataType&gt;</text></g></g></g></svg>