<svg version="1.1" xmlns="http://www.w3.org/2000/svg" xmlns:xlink="http://www.w3.org/1999/xlink" width="324.19140625" height="107"><defs/><g><g transform="translate(-598,-443) scale(1,1)"><rect fill="#C0C0C0" stroke="none" x="615" y="460" width="304.19140625" height="87" opacity="0.2"/></g><g transform="translate(-598,-443) scale(1,1)"><rect fill="#ffffff" stroke="none" x="608" y="453" width="304.19140625" height="87"/></g><g transform="translate(-598,-443) scale(1,1)"><path fill="none" stroke="#000000" d="M 608 453 L 912.19140625 453 L 912.19140625 540 L 608 540 L 608 453 Z Z" stroke-miterlimit="10"/></g><g transform="translate(-598,-443) scale(1,1)"><path fill="none" stroke="#000000" d="M 608 478 L 912.19140625 478" stroke-miterlimit="10"/></g><g transform="translate(-598,-443) scale(1,1)"><path fill="none" stroke="#000000" d="M 608 488 L 912.19140625 488" stroke-miterlimit="10"/></g><g transform="translate(-598,-443) scale(1,1)"><g><path fill="none" stroke="none"/><text fill="#000000" stroke="none" font-family="Arial" font-size="13px" font-style="italic" font-weight="bold" text-decoration="none" x="723.609375" y="472.5">IDataAccess</text></g></g><g transform="translate(-598,-443) scale(1,1)"><g><path fill="none" stroke="none"/><text fill="#000000" stroke="none" font-family="Arial" font-size="13px" font-style="italic" font-weight="normal" text-decoration="none" x="613" y="505.5">+bindToDataStore(dataStore: *AContextDataStore)</text></g></g><g transform="translate(-598,-443) scale(1,1)"><g><path fill="none" stroke="none"/><text fill="#000000" stroke="none" font-family="Arial" font-size="13px" font-style="italic" font-weight="normal" text-decoration="none" x="613" y="520.5">+getInputDataTypes(): const vector&lt;EDataType&gt;</text></g></g><g transform="translate(-598,-443) scale(1,1)"><g><path fill="none" stroke="none"/><text fill="#000000" stroke="none" font-family="Arial" font-size="13px" font-style="italic" font-weight="normal" text-decoration="none" x="613" y="535.5">+getOutputDataTypes(): const vector&lt;EDataType&gt;</text></g></g></g></svg>