<svg version="1.1" xmlns="http://www.w3.org/2000/svg" xmlns:xlink="http://www.w3.org/1999/xlink" width="345.525390625" height="72"><defs/><g><g transform="translate(-239,-230) scale(1,1)"><rect fill="#C0C0C0" stroke="none" x="256" y="257" width="76.8818359375" height="24" opacity="0.2"/></g><g transform="translate(-239,-230) scale(1,1)"><rect fill="#ffffff" stroke="none" x="249" y="250" width="76.8818359375" height="24"/></g><g transform="translate(-239,-230) scale(1,1)"><path fill="none" stroke="#000000" d="M 249 250 L 325.8818359375 250 L 325.8818359375 274 L 249 274 L 249 250 Z Z" stroke-miterlimit="10"/></g><g transform="translate(-239,-230) scale(1,1)"><g><path fill="none" stroke="none"/><text fill="#000000" stroke="none" font-family="Arial" font-size="13px" font-style="italic" font-weight="bold" text-decoration="none" x="256.3818359375" y="269.5">AWorkflow</text></g></g><g transform="translate(-239,-230) scale(1,1)"><rect fill="#C0C0C0" stroke="none" x="423" y="247" width="158.525390625" height="52" opacity="0.2"/></g><g transform="translate(-239,-230) scale(1,1)"><rect fill="#ffffff" stroke="none" x="416" y="240" width="158.525390625" height="52"/></g><g transform="translate(-239,-230) scale(1,1)"><path fill="none" stroke="#000000" d="M 416 240 L 574.525390625 240 L 574.525390625 292 L 416 292 L 416 240 Z Z" stroke-miterlimit="10"/></g><g transform="translate(-239,-230) scale(1,1)"><g><path fill="none" stroke="none"/><text fill="#000000" stroke="none" font-family="Arial" font-size="13px" font-style="normal" font-weight="normal" text-decoration="none" x="471.049560546875" y="257.5">«signal»</text></g></g><g transform="translate(-239,-230) scale(1,1)"><g><path fill="none" stroke="none"/><text fill="#000000" stroke="none" font-family="Arial" font-size="13px" font-style="normal" font-weight="bold" text-decoration="none" x="425.156005859375" y="272.5">ExecutionStateChanged</text></g></g><g transform="translate(-239,-230) scale(1,1)"><g><path fill="none" stroke="none"/><text fill="#000000" stroke="none" font-family="Arial" font-size="13px" font-style="normal" font-weight="normal" text-decoration="none" x="445.068603515625" y="287.5">(from AWorkflow)</text></g></g><g transform="translate(-239,-230) scale(1,1)"><path fill="none" stroke="#000000" d="M 327 263 L 415 264" stroke-miterlimit="10" stroke-dasharray="3"/></g><g transform="translate(-239,-230) scale(1,1)"><path fill="none" stroke="#000000" d="M 404.79014890247754 268.09376850425366 L 415 264 L 404.8858135840713 259.6752765240026" stroke-miterlimit="10"/></g></g></svg>