<svg version="1.1" xmlns="http://www.w3.org/2000/svg" xmlns:xlink="http://www.w3.org/1999/xlink" width="1167" height="1176"><defs/><g><g transform="translate(-142,-46) scale(1,1)"><rect fill="#C0C0C0" stroke="none" x="887" y="71" width="358" height="115" opacity="0.2"/></g><g transform="translate(-142,-46) scale(1,1)"><rect fill="#ffffff" stroke="none" x="880" y="64" width="358" height="115"/></g><g transform="translate(-142,-46) scale(1,1)"><path fill="none" stroke="#000000" d="M 880 64 L 1238 64 L 1238 179 L 880 179 L 880 64 Z Z" stroke-miterlimit="10"/></g><g transform="translate(-142,-46) scale(1,1)"><path fill="none" stroke="#000000" d="M 880 102 L 1238 102" stroke-miterlimit="10"/></g><g transform="translate(-142,-46) scale(1,1)"><path fill="none" stroke="#000000" d="M 880 112 L 1238 112" stroke-miterlimit="10"/></g><g transform="translate(-142,-46) scale(1,1)"><g><path fill="none" stroke="none"/><text fill="#000000" stroke="none" font-family="Arial" font-size="13px" font-style="normal" font-weight="normal" text-decoration="none" x="1025.7509765625" y="81.5">«singleton»</text></g></g><g transform="translate(-142,-46) scale(1,1)"><g><path fill="none" stroke="none"/><text fill="#000000" stroke="none" font-family="Arial" font-size="13px" font-style="normal" font-weight="bold" text-decoration="none" x="1010.583251953125" y="96.5">CPluginManager</text></g></g><g transform="translate(-142,-46) scale(1,1)"><g><path fill="none" stroke="none"/><text fill="#000000" stroke="none" font-family="Arial" font-size="13px" font-style="normal" font-weight="normal" text-decoration="none" x="885" y="129.5">+Instance(): *CPluginManager</text><path fill="none" stroke="#000000" d="M 885 129.5 L 1059.509765625 129.5" stroke-miterlimit="10"/></g></g><g transform="translate(-142,-46) scale(1,1)"><g><path fill="none" stroke="none"/><text fill="#000000" stroke="none" font-family="Arial" font-size="13px" font-style="normal" font-weight="normal" text-decoration="none" x="885" y="144.5">+Initialize(): uint32</text></g></g><g transform="translate(-142,-46) scale(1,1)"><g><path fill="none" stroke="none"/><text fill="#000000" stroke="none" font-family="Arial" font-size="13px" font-style="normal" font-weight="normal" text-decoration="none" x="885" y="159.5">+getPlugins(): const vector&lt;*APlugin&gt;</text></g></g><g transform="translate(-142,-46) scale(1,1)"><g><path fill="none" stroke="none"/><text fill="#000000" stroke="none" font-family="Arial" font-size="13px" font-style="normal" font-weight="normal" text-decoration="none" x="885" y="174.5">+getPlugins(type: const EAlgorithmType): vector&lt;*APlugin&gt;</text></g></g><g transform="translate(-142,-46) scale(1,1)"><rect fill="#C0C0C0" stroke="none" x="511" y="303" width="229.009765625" height="147" opacity="0.2"/></g><g transform="translate(-142,-46) scale(1,1)"><rect fill="#ffffff" stroke="none" x="504" y="296" width="229.009765625" height="147"/></g><g transform="translate(-142,-46) scale(1,1)"><path fill="none" stroke="#000000" d="M 504 296 L 733.009765625 296 L 733.009765625 443 L 504 443 L 504 296 Z Z" stroke-miterlimit="10"/></g><g transform="translate(-142,-46) scale(1,1)"><path fill="none" stroke="#000000" d="M 504 321 L 733.009765625 321" stroke-miterlimit="10"/></g><g transform="translate(-142,-46) scale(1,1)"><path fill="none" stroke="#000000" d="M 504 331 L 733.009765625 331" stroke-miterlimit="10"/></g><g transform="translate(-142,-46) scale(1,1)"><g><path fill="none" stroke="none"/><text fill="#000000" stroke="none" font-family="Arial" font-size="13px" font-style="italic" font-weight="bold" text-decoration="none" x="596.100830078125" y="315.5">APlugin</text></g></g><g transform="translate(-142,-46) scale(1,1)"><g><path fill="none" stroke="none"/><text fill="#000000" stroke="none" font-family="Arial" font-size="13px" font-style="italic" font-weight="normal" text-decoration="none" x="509" y="348.5">+DataAccess(): const *IDataAccess</text></g></g><g transform="translate(-142,-46) scale(1,1)"><g><path fill="none" stroke="none"/><text fill="#000000" stroke="none" font-family="Arial" font-size="13px" font-style="italic" font-weight="normal" text-decoration="none" x="509" y="363.5">+GetAlgorithm(): const *IAlgorithm</text></g></g><g transform="translate(-142,-46) scale(1,1)"><g><path fill="none" stroke="none"/><text fill="#000000" stroke="none" font-family="Arial" font-size="13px" font-style="normal" font-weight="normal" text-decoration="none" x="509" y="378.5">+Autor(): String</text></g></g><g transform="translate(-142,-46) scale(1,1)"><g><path fill="none" stroke="none"/><text fill="#000000" stroke="none" font-family="Arial" font-size="13px" font-style="normal" font-weight="normal" text-decoration="none" x="509" y="393.5">+Date(): TimeStamp</text></g></g><g transform="translate(-142,-46) scale(1,1)"><g><path fill="none" stroke="none"/><text fill="#000000" stroke="none" font-family="Arial" font-size="13px" font-style="normal" font-weight="normal" text-decoration="none" x="509" y="408.5">+Version(): int32</text></g></g><g transform="translate(-142,-46) scale(1,1)"><path fill="none" stroke="#000000" d="M 954 180 L 734 304" stroke-miterlimit="10"/></g><g transform="translate(-142,-46) scale(1,1)"><path fill="none" stroke="#000000" d="M 740.7863084449496 295.34286319329505 L 734 304 L 744.9201648623281 302.67712457896664" stroke-miterlimit="10"/></g><g transform="translate(-142,-46) scale(1,1)"><g><path fill="none" stroke="none"/><text fill="#000000" stroke="none" font-family="Arial" font-size="13px" font-style="normal" font-weight="normal" text-decoration="none" x="826" y="262">+Plugins</text></g></g><g transform="translate(-142,-46) scale(1,1)"><g><path fill="none" stroke="none"/><text fill="#000000" stroke="none" font-family="Arial" font-size="13px" font-style="normal" font-weight="normal" text-decoration="none" x="926" y="186">1</text></g></g><g transform="translate(-142,-46) scale(1,1)"><g><path fill="none" stroke="none"/><text fill="#000000" stroke="none" font-family="Arial" font-size="13px" font-style="normal" font-weight="normal" text-decoration="none" x="737" y="289">0..*</text></g></g><g transform="translate(-142,-46) scale(1,1)"><rect fill="#C0C0C0" stroke="none" x="207" y="527" width="209" height="72" opacity="0.2"/></g><g transform="translate(-142,-46) scale(1,1)"><rect fill="#ffffff" stroke="none" x="200" y="520" width="209" height="72"/></g><g transform="translate(-142,-46) scale(1,1)"><path fill="none" stroke="#000000" d="M 200 520 L 409 520 L 409 592 L 200 592 L 200 520 Z Z" stroke-miterlimit="10"/></g><g transform="translate(-142,-46) scale(1,1)"><path fill="none" stroke="#000000" d="M 200 558 L 409 558" stroke-miterlimit="10"/></g><g transform="translate(-142,-46) scale(1,1)"><path fill="none" stroke="#000000" d="M 200 568 L 409 568" stroke-miterlimit="10"/></g><g transform="translate(-142,-46) scale(1,1)"><g><path fill="none" stroke="none"/><text fill="#000000" stroke="none" font-family="Arial" font-size="13px" font-style="normal" font-weight="normal" text-decoration="none" x="260.77734375" y="537.5">«template&lt;T&gt;»</text></g></g><g transform="translate(-142,-46) scale(1,1)"><g><path fill="none" stroke="none"/><text fill="#000000" stroke="none" font-family="Arial" font-size="13px" font-style="italic" font-weight="bold" text-decoration="none" x="273.075927734375" y="552.5">TAlgorithm</text></g></g><g transform="translate(-142,-46) scale(1,1)"><g><path fill="none" stroke="none"/><text fill="#000000" stroke="none" font-family="Arial" font-size="13px" font-style="italic" font-weight="normal" text-decoration="none" x="205" y="585.5">+setData(data: *T)</text></g></g><g transform="translate(-142,-46) scale(1,1)"><rect fill="#C0C0C0" stroke="none" x="567" y="63" width="109.39453125" height="105" opacity="0.2"/></g><g transform="translate(-142,-46) scale(1,1)"><rect fill="#ffffff" stroke="none" x="560" y="56" width="109.39453125" height="105"/></g><g transform="translate(-142,-46) scale(1,1)"><path fill="none" stroke="#000000" d="M 560 56 L 669.39453125 56 L 669.39453125 161 L 560 161 L 560 56 Z Z" stroke-miterlimit="10"/></g><g transform="translate(-142,-46) scale(1,1)"><path fill="none" stroke="#000000" d="M 560 94 L 669.39453125 94" stroke-miterlimit="10"/></g><g transform="translate(-142,-46) scale(1,1)"><g><path fill="none" stroke="none"/><text fill="#000000" stroke="none" font-family="Arial" font-size="13px" font-style="normal" font-weight="normal" text-decoration="none" x="571.333251953125" y="73.5">«enumeration»</text></g></g><g transform="translate(-142,-46) scale(1,1)"><g><path fill="none" stroke="none"/><text fill="#000000" stroke="none" font-family="Arial" font-size="13px" font-style="normal" font-weight="bold" text-decoration="none" x="568.457763671875" y="88.5">EAlgorithmType</text></g></g><g transform="translate(-142,-46) scale(1,1)"><g><path fill="none" stroke="none"/><text fill="#000000" stroke="none" font-family="Arial" font-size="13px" font-style="normal" font-weight="normal" text-decoration="none" x="565" y="111.5">FeatureMatcher</text></g></g><g transform="translate(-142,-46) scale(1,1)"><g><path fill="none" stroke="none"/><text fill="#000000" stroke="none" font-family="Arial" font-size="13px" font-style="normal" font-weight="normal" text-decoration="none" x="565" y="126.5">DepthMapper</text></g></g><g transform="translate(-142,-46) scale(1,1)"><g><path fill="none" stroke="none"/><text fill="#000000" stroke="none" font-family="Arial" font-size="13px" font-style="normal" font-weight="normal" text-decoration="none" x="565" y="141.5">PoseEstimator</text></g></g><g transform="translate(-142,-46) scale(1,1)"><g><path fill="none" stroke="none"/><text fill="#000000" stroke="none" font-family="Arial" font-size="13px" font-style="normal" font-weight="normal" text-decoration="none" x="565" y="156.5">PclReconstuctor</text></g></g><g transform="translate(-142,-46) scale(1,1)"><path fill="none" stroke="#000000" d="M 617 295 L 615 162" stroke-miterlimit="10"/></g><g transform="translate(-142,-46) scale(1,1)"><path fill="none" stroke="#000000" d="M 619.3618467916687 172.0982321505306 L 615 162 L 610.9437630132495 172.22481987652188" stroke-miterlimit="10"/></g><g transform="translate(-142,-46) scale(1,1)"><g><path fill="none" stroke="none"/><text fill="#000000" stroke="none" font-family="Arial" font-size="13px" font-style="normal" font-weight="normal" text-decoration="none" x="627" y="236">+AlgorithmType</text></g></g><g transform="translate(-142,-46) scale(1,1)"><g><path fill="none" stroke="none"/><text fill="#000000" stroke="none" font-family="Arial" font-size="13px" font-style="normal" font-weight="normal" text-decoration="none" x="620" y="280">0..*</text></g></g><g transform="translate(-142,-46) scale(1,1)"><g><path fill="none" stroke="none"/><text fill="#000000" stroke="none" font-family="Arial" font-size="13px" font-style="normal" font-weight="normal" text-decoration="none" x="624" y="190">1</text></g></g><g transform="translate(-142,-46) scale(1,1)"><rect fill="#C0C0C0" stroke="none" x="463" y="575" width="340" height="207" opacity="0.2"/></g><g transform="translate(-142,-46) scale(1,1)"><rect fill="#ffffff" stroke="none" x="456" y="568" width="340" height="207"/></g><g transform="translate(-142,-46) scale(1,1)"><path fill="none" stroke="#000000" d="M 456 568 L 796 568 L 796 775 L 456 775 L 456 568 Z Z" stroke-miterlimit="10"/></g><g transform="translate(-142,-46) scale(1,1)"><path fill="none" stroke="#000000" d="M 456 593 L 796 593" stroke-miterlimit="10"/></g><g transform="translate(-142,-46) scale(1,1)"><path fill="none" stroke="#000000" d="M 456 603 L 796 603" stroke-miterlimit="10"/></g><g transform="translate(-142,-46) scale(1,1)"><g><path fill="none" stroke="none"/><text fill="#000000" stroke="none" font-family="Arial" font-size="13px" font-style="italic" font-weight="bold" text-decoration="none" x="594.94091796875" y="587.5">AWorkflow</text></g></g><g transform="translate(-142,-46) scale(1,1)"><g><path fill="none" stroke="none"/><text fill="#000000" stroke="none" font-family="Arial" font-size="13px" font-style="italic" font-weight="normal" text-decoration="none" x="461" y="620.5">+getStepCount(): const uint32</text></g></g><g transform="translate(-142,-46) scale(1,1)"><g><path fill="none" stroke="none"/><text fill="#000000" stroke="none" font-family="Arial" font-size="13px" font-style="italic" font-weight="normal" text-decoration="none" x="461" y="635.5">+getStepType(step: const uint32): EAlgorithmType</text></g></g><g transform="translate(-142,-46) scale(1,1)"><g><path fill="none" stroke="none"/><text fill="#000000" stroke="none" font-family="Arial" font-size="13px" font-style="italic" font-weight="normal" text-decoration="none" x="461" y="650.5">+trySetStep(step: const uint32, algo: *APlugin): Boolean</text></g></g><g transform="translate(-142,-46) scale(1,1)"><g><path fill="none" stroke="none"/><text fill="#000000" stroke="none" font-family="Arial" font-size="13px" font-style="italic" font-weight="normal" text-decoration="none" x="461" y="665.5">+getStep(step: const uint32): *APlugin</text></g></g><g transform="translate(-142,-46) scale(1,1)"><g><path fill="none" stroke="none"/><text fill="#000000" stroke="none" font-family="Arial" font-size="13px" font-style="italic" font-weight="normal" text-decoration="none" x="461" y="680.5">+getDataStores(): vector&lt;*AContextDataStore&gt;</text></g></g><g transform="translate(-142,-46) scale(1,1)"><g><path fill="none" stroke="none"/><text fill="#000000" stroke="none" font-family="Arial" font-size="13px" font-style="italic" font-weight="normal" text-decoration="none" x="461" y="695.5">+addDataStore(): *AContextDataStore</text></g></g><g transform="translate(-142,-46) scale(1,1)"><g><path fill="none" stroke="none"/><text fill="#000000" stroke="none" font-family="Arial" font-size="13px" font-style="italic" font-weight="normal" text-decoration="none" x="461" y="710.5">+removeDataStore(id: const String): Boolean</text></g></g><g transform="translate(-142,-46) scale(1,1)"><g><path fill="none" stroke="none"/><text fill="#000000" stroke="none" font-family="Arial" font-size="13px" font-style="normal" font-weight="normal" text-decoration="none" x="461" y="725.5">+run(storeId: const String)</text></g></g><g transform="translate(-142,-46) scale(1,1)"><g><path fill="none" stroke="none"/><text fill="#000000" stroke="none" font-family="Arial" font-size="13px" font-style="normal" font-weight="normal" text-decoration="none" x="461" y="740.5">+getState(storeId: const String): uint32</text></g></g><g transform="translate(-142,-46) scale(1,1)"><g><path fill="none" stroke="none"/><text fill="#000000" stroke="none" font-family="Arial" font-size="13px" font-style="normal" font-weight="normal" text-decoration="none" x="461" y="755.5">+stop(storeId: const String)</text></g></g><g transform="translate(-142,-46) scale(1,1)"><g><path fill="none" stroke="none"/><text fill="#000000" stroke="none" font-family="Arial" font-size="13px" font-style="normal" font-weight="normal" text-decoration="none" x="461" y="770.5">+checkAvaliableDataTypes(): Boolean</text></g></g><g transform="translate(-142,-46) scale(1,1)"><path fill="none" stroke="#000000" d="M 623 567 L 620 444" stroke-miterlimit="10"/></g><g transform="translate(-142,-46) scale(1,1)"><path fill="none" stroke="#000000" d="M 624.456062651372 454.05701275961445 L 620 444 L 616.0395301973742 454.26229403898026" stroke-miterlimit="10"/></g><g transform="translate(-142,-46) scale(1,1)"><g><path fill="none" stroke="none"/><text fill="#000000" stroke="none" font-family="Arial" font-size="13px" font-style="normal" font-weight="normal" text-decoration="none" x="586" y="512">+Steps</text></g></g><g transform="translate(-142,-46) scale(1,1)"><g><path fill="none" stroke="none"/><text fill="#000000" stroke="none" font-family="Arial" font-size="13px" font-style="normal" font-weight="normal" text-decoration="none" x="625" y="552">0..*</text></g></g><g transform="translate(-142,-46) scale(1,1)"><g><path fill="none" stroke="none"/><text fill="#000000" stroke="none" font-family="Arial" font-size="13px" font-style="normal" font-weight="normal" text-decoration="none" x="624" y="472">0..*</text></g></g><g transform="translate(-142,-46) scale(1,1)"><rect fill="#C0C0C0" stroke="none" x="463" y="871" width="333" height="147" opacity="0.2"/></g><g transform="translate(-142,-46) scale(1,1)"><rect fill="#ffffff" stroke="none" x="456" y="864" width="333" height="147"/></g><g transform="translate(-142,-46) scale(1,1)"><path fill="none" stroke="#000000" d="M 456 864 L 789 864 L 789 1011 L 456 1011 L 456 864 Z Z" stroke-miterlimit="10"/></g><g transform="translate(-142,-46) scale(1,1)"><path fill="none" stroke="#000000" d="M 456 889 L 789 889" stroke-miterlimit="10"/></g><g transform="translate(-142,-46) scale(1,1)"><path fill="none" stroke="#000000" d="M 456 899 L 789 899" stroke-miterlimit="10"/></g><g transform="translate(-142,-46) scale(1,1)"><g><path fill="none" stroke="none"/><text fill="#000000" stroke="none" font-family="Arial" font-size="13px" font-style="italic" font-weight="bold" text-decoration="none" x="566.497802734375" y="883.5">AContextDataStore</text></g></g><g transform="translate(-142,-46) scale(1,1)"><g><path fill="none" stroke="none"/><text fill="#000000" stroke="none" font-family="Arial" font-size="13px" font-style="italic" font-weight="normal" text-decoration="none" x="461" y="916.5">+getSupportedDataTypes(): const vector&lt;EDataTypes&gt;</text></g></g><g transform="translate(-142,-46) scale(1,1)"><g><path fill="none" stroke="none"/><text fill="#000000" stroke="none" font-family="Arial" font-size="13px" font-style="italic" font-weight="normal" text-decoration="none" x="461" y="931.5">+InitializeFromStorage(dataset: DataSet)</text></g></g><g transform="translate(-142,-46) scale(1,1)"><g><path fill="none" stroke="none"/><text fill="#000000" stroke="none" font-family="Arial" font-size="13px" font-style="italic" font-weight="normal" text-decoration="none" x="461" y="946.5">+getData(): *TDataPacket</text></g></g><g transform="translate(-142,-46) scale(1,1)"><g><path fill="none" stroke="none"/><text fill="#000000" stroke="none" font-family="Arial" font-size="13px" font-style="italic" font-weight="normal" text-decoration="none" x="461" y="961.5">+applyToDataView(view: *ADataView)</text></g></g><g transform="translate(-142,-46) scale(1,1)"><g><path fill="none" stroke="none"/><text fill="#000000" stroke="none" font-family="Arial" font-size="13px" font-style="normal" font-weight="normal" text-decoration="none" x="461" y="976.5">+getId(): String</text></g></g><g transform="translate(-142,-46) scale(1,1)"><g><path fill="none" stroke="none"/><text fill="#000000" stroke="none" font-family="Arial" font-size="13px" font-style="normal" font-weight="normal" text-decoration="none" x="461" y="991.5">+Serialize()</text></g></g><g transform="translate(-142,-46) scale(1,1)"><g><path fill="none" stroke="none"/><text fill="#000000" stroke="none" font-family="Arial" font-size="13px" font-style="normal" font-weight="normal" text-decoration="none" x="461" y="1006.5">+getCurrentCalculationStep(): uint32</text></g></g><g transform="translate(-142,-46) scale(1,1)"><path fill="none" stroke="#000000" d="M 624 776 L 623 863" stroke-miterlimit="10"/></g><g transform="translate(-142,-46) scale(1,1)"><path fill="none" stroke="#000000" d="M 618.9075649316002 852.7896143456317 L 623 863 L 627.3260443463025 852.8863784768351" stroke-miterlimit="10"/></g><g transform="translate(-142,-46) scale(1,1)"><g><path fill="none" stroke="none"/><text fill="#000000" stroke="none" font-family="Arial" font-size="13px" font-style="normal" font-weight="normal" text-decoration="none" x="606" y="824">#ActiveDataStores</text></g></g><g transform="translate(-142,-46) scale(1,1)"><g><path fill="none" stroke="none"/><text fill="#000000" stroke="none" font-family="Arial" font-size="13px" font-style="normal" font-weight="normal" text-decoration="none" x="608" y="804">1</text></g></g><g transform="translate(-142,-46) scale(1,1)"><g><path fill="none" stroke="none"/><text fill="#000000" stroke="none" font-family="Arial" font-size="13px" font-style="normal" font-weight="normal" text-decoration="none" x="601" y="848">0..*</text></g></g><g transform="translate(-142,-46) scale(1,1)"><rect fill="#C0C0C0" stroke="none" x="495" y="1119" width="192.88525390625" height="100" opacity="0.2"/></g><g transform="translate(-142,-46) scale(1,1)"><rect fill="#ffffff" stroke="none" x="488" y="1112" width="192.88525390625" height="100"/></g><g transform="translate(-142,-46) scale(1,1)"><path fill="none" stroke="#000000" d="M 488 1112 L 680.88525390625 1112 L 680.88525390625 1212 L 488 1212 L 488 1112 Z Z" stroke-miterlimit="10"/></g><g transform="translate(-142,-46) scale(1,1)"><path fill="none" stroke="#000000" d="M 488 1137 L 680.88525390625 1137" stroke-miterlimit="10"/></g><g transform="translate(-142,-46) scale(1,1)"><path fill="none" stroke="#000000" d="M 488 1160 L 680.88525390625 1160" stroke-miterlimit="10"/></g><g transform="translate(-142,-46) scale(1,1)"><g><path fill="none" stroke="none"/><text fill="#000000" stroke="none" font-family="Arial" font-size="13px" font-style="italic" font-weight="bold" text-decoration="none" x="549.035400390625" y="1131.5">IDataPacket</text></g></g><g transform="translate(-142,-46) scale(1,1)"><g><path fill="none" stroke="none"/><text fill="#000000" stroke="none" font-family="Arial" font-size="13px" font-style="normal" font-weight="normal" text-decoration="none" x="493" y="1154.5">+Id: String</text></g></g><g transform="translate(-142,-46) scale(1,1)"><g><path fill="none" stroke="none"/><text fill="#000000" stroke="none" font-family="Arial" font-size="13px" font-style="italic" font-weight="normal" text-decoration="none" x="493" y="1177.5">+getType(): const EDataTypes</text></g></g><g transform="translate(-142,-46) scale(1,1)"><path fill="none" stroke="#000000" d="M 609 1012 L 593 1111" stroke-miterlimit="10"/></g><g transform="translate(-142,-46) scale(1,1)"><path fill="none" stroke="#000000" d="M 590.4658175560089 1100.2958924080253 L 593 1111 L 598.7770094739257 1101.6391153442544" stroke-miterlimit="10"/></g><g transform="translate(-142,-46) scale(1,1)"><g><path fill="none" stroke="none"/><text fill="#000000" stroke="none" font-family="Arial" font-size="13px" font-style="normal" font-weight="normal" text-decoration="none" x="621" y="1073">-DataPackets</text></g></g><g transform="translate(-142,-46) scale(1,1)"><g><path fill="none" stroke="none"/><text fill="#000000" stroke="none" font-family="Arial" font-size="13px" font-style="normal" font-weight="normal" text-decoration="none" x="590" y="1038">1</text></g></g><g transform="translate(-142,-46) scale(1,1)"><g><path fill="none" stroke="none"/><text fill="#000000" stroke="none" font-family="Arial" font-size="13px" font-style="normal" font-weight="normal" text-decoration="none" x="575" y="1094">0..*</text></g></g><g transform="translate(-142,-46) scale(1,1)"><rect fill="#C0C0C0" stroke="none" x="175" y="79" width="307.80322265625" height="87" opacity="0.2"/></g><g transform="translate(-142,-46) scale(1,1)"><rect fill="#ffffff" stroke="none" x="168" y="72" width="307.80322265625" height="87"/></g><g transform="translate(-142,-46) scale(1,1)"><path fill="none" stroke="#000000" d="M 168 72 L 475.80322265625 72 L 475.80322265625 159 L 168 159 L 168 72 Z Z" stroke-miterlimit="10"/></g><g transform="translate(-142,-46) scale(1,1)"><path fill="none" stroke="#000000" d="M 168 97 L 475.80322265625 97" stroke-miterlimit="10"/></g><g transform="translate(-142,-46) scale(1,1)"><path fill="none" stroke="#000000" d="M 168 107 L 475.80322265625 107" stroke-miterlimit="10"/></g><g transform="translate(-142,-46) scale(1,1)"><g><path fill="none" stroke="none"/><text fill="#000000" stroke="none" font-family="Arial" font-size="13px" font-style="italic" font-weight="bold" text-decoration="none" x="285.415283203125" y="91.5">IDataAccess</text></g></g><g transform="translate(-142,-46) scale(1,1)"><g><path fill="none" stroke="none"/><text fill="#000000" stroke="none" font-family="Arial" font-size="13px" font-style="italic" font-weight="normal" text-decoration="none" x="173" y="124.5">+bindToDataStore(dataStore: *AContextDataStore)</text></g></g><g transform="translate(-142,-46) scale(1,1)"><g><path fill="none" stroke="none"/><text fill="#000000" stroke="none" font-family="Arial" font-size="13px" font-style="italic" font-weight="normal" text-decoration="none" x="173" y="139.5">+getInputDataTypes(): const vector&lt;EDataType&gt;</text></g></g><g transform="translate(-142,-46) scale(1,1)"><g><path fill="none" stroke="none"/><text fill="#000000" stroke="none" font-family="Arial" font-size="13px" font-style="italic" font-weight="normal" text-decoration="none" x="173" y="154.5">+getOutputDataTypes(): const vector&lt;EDataType&gt;</text></g></g><g transform="translate(-142,-46) scale(1,1)"><rect fill="#C0C0C0" stroke="none" x="1031" y="855" width="275" height="117" opacity="0.2"/></g><g transform="translate(-142,-46) scale(1,1)"><rect fill="#ffffff" stroke="none" x="1024" y="848" width="275" height="117"/></g><g transform="translate(-142,-46) scale(1,1)"><path fill="none" stroke="#000000" d="M 1024 848 L 1299 848 L 1299 965 L 1024 965 L 1024 848 Z Z" stroke-miterlimit="10"/></g><g transform="translate(-142,-46) scale(1,1)"><path fill="none" stroke="#000000" d="M 1024 873 L 1299 873" stroke-miterlimit="10"/></g><g transform="translate(-142,-46) scale(1,1)"><path fill="none" stroke="#000000" d="M 1024 883 L 1299 883" stroke-miterlimit="10"/></g><g transform="translate(-142,-46) scale(1,1)"><g><path fill="none" stroke="none"/><text fill="#000000" stroke="none" font-family="Arial" font-size="13px" font-style="italic" font-weight="bold" text-decoration="none" x="1131.87548828125" y="867.5">IDataView</text></g></g><g transform="translate(-142,-46) scale(1,1)"><g><path fill="none" stroke="none"/><text fill="#000000" stroke="none" font-family="Arial" font-size="13px" font-style="italic" font-weight="normal" text-decoration="none" x="1029" y="900.5">«template &lt;T&gt;»+applyData(packet: *T)</text></g></g><g transform="translate(-142,-46) scale(1,1)"><path fill="none" stroke="#000000" d="M 531 295 L 374 160" stroke-miterlimit="10"/></g><g transform="translate(-142,-46) scale(1,1)"><path fill="none" stroke="#000000" d="M 384.4502120303238 163.43410374352257 L 374 160 L 378.96113774713626 169.8176938358221" stroke-miterlimit="10"/></g><g transform="translate(-142,-46) scale(1,1)"><g><path fill="none" stroke="none"/><text fill="#000000" stroke="none" font-family="Arial" font-size="13px" font-style="normal" font-weight="normal" text-decoration="none" x="425" y="245">#Data</text></g></g><g transform="translate(-142,-46) scale(1,1)"><path fill="none" stroke="#000000" d="M 1023 914 L 790 927" stroke-miterlimit="10"/></g><g transform="translate(-142,-46) scale(1,1)"><path fill="none" stroke="#000000" d="M 799.9123925607798 922.2308833395484 L 790 927 L 800.3813947283855 930.6368452666354" stroke-miterlimit="10"/></g><g transform="translate(-142,-46) scale(1,1)"><g><path fill="none" stroke="none"/><text fill="#000000" stroke="none" font-family="Arial" font-size="13px" font-style="normal" font-weight="normal" text-decoration="none" x="871" y="941">-Datasource</text></g></g><g transform="translate(-142,-46) scale(1,1)"><rect fill="#C0C0C0" stroke="none" x="919" y="1143" width="203.0224609375" height="70" opacity="0.2"/></g><g transform="translate(-142,-46) scale(1,1)"><rect fill="#ffffff" stroke="none" x="912" y="1136" width="203.0224609375" height="70"/></g><g transform="translate(-142,-46) scale(1,1)"><path fill="none" stroke="#000000" d="M 912 1136 L 1115.0224609375 1136 L 1115.0224609375 1206 L 912 1206 L 912 1136 Z Z" stroke-miterlimit="10"/></g><g transform="translate(-142,-46) scale(1,1)"><path fill="none" stroke="#000000" d="M 912 1174 L 1115.0224609375 1174" stroke-miterlimit="10"/></g><g transform="translate(-142,-46) scale(1,1)"><path fill="none" stroke="#000000" d="M 912 1197 L 1115.0224609375 1197" stroke-miterlimit="10"/></g><g transform="translate(-142,-46) scale(1,1)"><g><path fill="none" stroke="none"/><text fill="#000000" stroke="none" font-family="Arial" font-size="13px" font-style="normal" font-weight="normal" text-decoration="none" x="989.298095703125" y="1153.5">«signal»</text></g></g><g transform="translate(-142,-46) scale(1,1)"><g><path fill="none" stroke="none"/><text fill="#000000" stroke="none" font-family="Arial" font-size="13px" font-style="normal" font-weight="bold" text-decoration="none" x="969.061767578125" y="1168.5">SDataChanged</text></g></g><g transform="translate(-142,-46) scale(1,1)"><g><path fill="none" stroke="none"/><text fill="#000000" stroke="none" font-family="Arial" font-size="13px" font-style="normal" font-weight="normal" text-decoration="none" x="917" y="1191.5">+DataStore: *AContextDataStore</text></g></g><g transform="translate(-142,-46) scale(1,1)"><rect fill="#C0C0C0" stroke="none" x="959" y="287" width="208.08154296875" height="130" opacity="0.2"/></g><g transform="translate(-142,-46) scale(1,1)"><rect fill="#ffffff" stroke="none" x="952" y="280" width="208.08154296875" height="130"/></g><g transform="translate(-142,-46) scale(1,1)"><path fill="none" stroke="#000000" d="M 952 280 L 1160.08154296875 280 L 1160.08154296875 410 L 952 410 L 952 280 Z Z" stroke-miterlimit="10"/></g><g transform="translate(-142,-46) scale(1,1)"><path fill="none" stroke="#000000" d="M 952 318 L 1160.08154296875 318" stroke-miterlimit="10"/></g><g transform="translate(-142,-46) scale(1,1)"><path fill="none" stroke="#000000" d="M 952 401 L 1160.08154296875 401" stroke-miterlimit="10"/></g><g transform="translate(-142,-46) scale(1,1)"><g><path fill="none" stroke="none"/><text fill="#000000" stroke="none" font-family="Arial" font-size="13px" font-style="normal" font-weight="normal" text-decoration="none" x="1031.82763671875" y="297.5">«signal»</text></g></g><g transform="translate(-142,-46) scale(1,1)"><g><path fill="none" stroke="none"/><text fill="#000000" stroke="none" font-family="Arial" font-size="13px" font-style="normal" font-weight="bold" text-decoration="none" x="981.5986328125" y="312.5">SExecutionStateChanged</text></g></g><g transform="translate(-142,-46) scale(1,1)"><g><path fill="none" stroke="none"/><text fill="#000000" stroke="none" font-family="Arial" font-size="13px" font-style="normal" font-weight="normal" text-decoration="none" x="957" y="335.5">+AlgorithmState: EExecutionState</text></g></g><g transform="translate(-142,-46) scale(1,1)"><g><path fill="none" stroke="none"/><text fill="#000000" stroke="none" font-family="Arial" font-size="13px" font-style="normal" font-weight="normal" text-decoration="none" x="957" y="350.5">+ParentWorkflow: *IWorkflow</text></g></g><g transform="translate(-142,-46) scale(1,1)"><g><path fill="none" stroke="none"/><text fill="#000000" stroke="none" font-family="Arial" font-size="13px" font-style="normal" font-weight="normal" text-decoration="none" x="957" y="365.5">+DataStore: *AContextDataStore</text></g></g><g transform="translate(-142,-46) scale(1,1)"><g><path fill="none" stroke="none"/><text fill="#000000" stroke="none" font-family="Arial" font-size="13px" font-style="normal" font-weight="normal" text-decoration="none" x="957" y="380.5">+Algorithm: *APlugin</text></g></g><g transform="translate(-142,-46) scale(1,1)"><g><path fill="none" stroke="none"/><text fill="#000000" stroke="none" font-family="Arial" font-size="13px" font-style="normal" font-weight="normal" text-decoration="none" x="957" y="395.5">+Step: uint32</text></g></g><g transform="translate(-142,-46) scale(1,1)"><path fill="none" stroke="#000000" d="M 763 567 L 969 411" stroke-miterlimit="10"/></g><g transform="translate(-142,-46) scale(1,1)"><rect fill="#C0C0C0" stroke="none" x="1007" y="535" width="111.58447265625" height="105" opacity="0.2"/></g><g transform="translate(-142,-46) scale(1,1)"><rect fill="#ffffff" stroke="none" x="1000" y="528" width="111.58447265625" height="105"/></g><g transform="translate(-142,-46) scale(1,1)"><path fill="none" stroke="#000000" d="M 1000 528 L 1111.58447265625 528 L 1111.58447265625 633 L 1000 633 L 1000 528 Z Z" stroke-miterlimit="10"/></g><g transform="translate(-142,-46) scale(1,1)"><path fill="none" stroke="#000000" d="M 1000 566 L 1111.58447265625 566" stroke-miterlimit="10"/></g><g transform="translate(-142,-46) scale(1,1)"><g><path fill="none" stroke="none"/><text fill="#000000" stroke="none" font-family="Arial" font-size="13px" font-style="normal" font-weight="normal" text-decoration="none" x="1012.42822265625" y="545.5">«enumeration»</text></g></g><g transform="translate(-142,-46) scale(1,1)"><g><path fill="none" stroke="none"/><text fill="#000000" stroke="none" font-family="Arial" font-size="13px" font-style="normal" font-weight="bold" text-decoration="none" x="1007.734130859375" y="560.5">EExecutionState</text></g></g><g transform="translate(-142,-46) scale(1,1)"><g><path fill="none" stroke="none"/><text fill="#000000" stroke="none" font-family="Arial" font-size="13px" font-style="normal" font-weight="normal" text-decoration="none" x="1005" y="583.5">Ready</text></g></g><g transform="translate(-142,-46) scale(1,1)"><g><path fill="none" stroke="none"/><text fill="#000000" stroke="none" font-family="Arial" font-size="13px" font-style="normal" font-weight="normal" text-decoration="none" x="1005" y="598.5">Running</text></g></g><g transform="translate(-142,-46) scale(1,1)"><g><path fill="none" stroke="none"/><text fill="#000000" stroke="none" font-family="Arial" font-size="13px" font-style="normal" font-weight="normal" text-decoration="none" x="1005" y="613.5">Finished</text></g></g><g transform="translate(-142,-46) scale(1,1)"><g><path fill="none" stroke="none"/><text fill="#000000" stroke="none" font-family="Arial" font-size="13px" font-style="normal" font-weight="normal" text-decoration="none" x="1005" y="628.5">Error</text></g></g><g transform="translate(-142,-46) scale(1,1)"><rect fill="#C0C0C0" stroke="none" x="207" y="351" width="209" height="87" opacity="0.2"/></g><g transform="translate(-142,-46) scale(1,1)"><rect fill="#ffffff" stroke="none" x="200" y="344" width="209" height="87"/></g><g transform="translate(-142,-46) scale(1,1)"><path fill="none" stroke="#000000" d="M 200 344 L 409 344 L 409 431 L 200 431 L 200 344 Z Z" stroke-miterlimit="10"/></g><g transform="translate(-142,-46) scale(1,1)"><path fill="none" stroke="#000000" d="M 200 369 L 409 369" stroke-miterlimit="10"/></g><g transform="translate(-142,-46) scale(1,1)"><path fill="none" stroke="#000000" d="M 200 379 L 409 379" stroke-miterlimit="10"/></g><g transform="translate(-142,-46) scale(1,1)"><g><path fill="none" stroke="none"/><text fill="#000000" stroke="none" font-family="Arial" font-size="13px" font-style="italic" font-weight="bold" text-decoration="none" x="275.240478515625" y="363.5">IAlgorithm</text></g></g><g transform="translate(-142,-46) scale(1,1)"><g><path fill="none" stroke="none"/><text fill="#000000" stroke="none" font-family="Arial" font-size="13px" font-style="italic" font-weight="normal" text-decoration="none" x="205" y="396.5">+setLogger(log: *Logger)</text></g></g><g transform="translate(-142,-46) scale(1,1)"><g><path fill="none" stroke="none"/><text fill="#000000" stroke="none" font-family="Arial" font-size="13px" font-style="italic" font-weight="normal" text-decoration="none" x="205" y="411.5">+setParameters(p: *PropertyTree)</text></g></g><g transform="translate(-142,-46) scale(1,1)"><g><path fill="none" stroke="none"/><text fill="#000000" stroke="none" font-family="Arial" font-size="13px" font-style="italic" font-weight="normal" text-decoration="none" x="205" y="426.5">+run()</text></g></g><g transform="translate(-142,-46) scale(1,1)"><path fill="none" stroke="#000000" d="M 304 519 L 304 432" stroke-miterlimit="10"/></g><g transform="translate(-142,-46) scale(1,1)"><path fill="#FFFFFF" stroke="none" d="M 312.419035512032 452.3253497152483 L 304 432 L 295.580964487968 452.3253497152483"/></g><g transform="translate(-142,-46) scale(1,1)"><path fill="none" stroke="#000000" d="M 312.419035512032 452.3253497152483 L 304 432 L 295.580964487968 452.3253497152483 L 312.419035512032 452.3253497152483" stroke-miterlimit="10"/></g><g transform="translate(-142,-46) scale(1,1)"><path fill="none" stroke="#000000" d="M 503 376 L 410 381" stroke-miterlimit="10"/></g><g transform="translate(-142,-46) scale(1,1)"><path fill="#000000" stroke="none" d="M 419.9220271987293 376.25096048998586 L 410 381 L 420.37401075699273 384.657854673685 L 431.9682731801119 379.81891004408"/></g><g transform="translate(-142,-46) scale(1,1)"><path fill="none" stroke="#000000" d="M 419.9220271987293 376.25096048998586 L 410 381 L 420.37401075699273 384.657854673685 L 431.9682731801119 379.81891004408 L 419.9220271987293 376.25096048998586" stroke-miterlimit="10"/></g><g transform="translate(-142,-46) scale(1,1)"><g><path fill="none" stroke="none"/><text fill="#000000" stroke="none" font-family="Arial" font-size="13px" font-style="normal" font-weight="normal" text-decoration="none" x="449" y="418">#Algorithm</text></g></g><g transform="translate(-142,-46) scale(1,1)"><g><path fill="none" stroke="none"/><text fill="#000000" stroke="none" font-family="Arial" font-size="13px" font-style="normal" font-weight="normal" text-decoration="none" x="477" y="371">1</text></g></g><g transform="translate(-142,-46) scale(1,1)"><g><path fill="none" stroke="none"/><text fill="#000000" stroke="none" font-family="Arial" font-size="13px" font-style="normal" font-weight="normal" text-decoration="none" x="427" y="374">1</text></g></g><g transform="translate(-142,-46) scale(1,1)"><path fill="#ffffff" stroke="none" d="M 739.39453125 56 L 827.39453125 56 L 837.39453125 66 L 837.39453125 104 L 739.39453125 104 L 739.39453125 56"/></g><g transform="translate(-142,-46) scale(1,1)"><path fill="none" stroke="#000000" d="M 739.39453125 56 L 827.39453125 56 L 837.39453125 66 L 837.39453125 104 L 739.39453125 104 L 739.39453125 56 L 739.39453125 56" stroke-miterlimit="10"/></g><g transform="translate(-142,-46) scale(1,1)"><path fill="none" stroke="#000000" d="M 827.39453125 56 L 827.39453125 66 L 837.39453125 66 L 827.39453125 56" stroke-miterlimit="10"/></g><g transform="translate(-142,-46) scale(1,1)"><g><path fill="none" stroke="none"/><text fill="#000000" stroke="none" font-family="Arial" font-size="13px" font-style="normal" font-weight="normal" text-decoration="none" x="744.39453125" y="74">const strings</text></g></g><g transform="translate(-142,-46) scale(1,1)"><path fill="none" stroke="#000000" d="M 670 99 L 738 88" stroke-miterlimit="10" stroke-dasharray="3"/></g><g transform="translate(-142,-46) scale(1,1)"><rect fill="#C0C0C0" stroke="none" x="279" y="1143" width="94.6171875" height="70" opacity="0.2"/></g><g transform="translate(-142,-46) scale(1,1)"><rect fill="#ffffff" stroke="none" x="272" y="1136" width="94.6171875" height="70"/></g><g transform="translate(-142,-46) scale(1,1)"><path fill="none" stroke="#000000" d="M 272 1136 L 366.6171875 1136 L 366.6171875 1206 L 272 1206 L 272 1136 Z Z" stroke-miterlimit="10"/></g><g transform="translate(-142,-46) scale(1,1)"><path fill="none" stroke="#000000" d="M 272 1174 L 366.6171875 1174" stroke-miterlimit="10"/></g><g transform="translate(-142,-46) scale(1,1)"><path fill="none" stroke="#000000" d="M 272 1184 L 366.6171875 1184" stroke-miterlimit="10"/></g><g transform="translate(-142,-46) scale(1,1)"><g><path fill="none" stroke="none"/><text fill="#000000" stroke="none" font-family="Arial" font-size="13px" font-style="normal" font-weight="normal" text-decoration="none" x="287.148193359375" y="1153.5">«template»</text></g></g><g transform="translate(-142,-46) scale(1,1)"><g><path fill="none" stroke="none"/><text fill="#000000" stroke="none" font-family="Arial" font-size="13px" font-style="normal" font-weight="bold" text-decoration="none" x="281.73681640625" y="1168.5">TDataPacket</text></g></g><g transform="translate(-142,-46) scale(1,1)"><g><path fill="none" stroke="none"/><text fill="#000000" stroke="none" font-family="Arial" font-size="13px" font-style="normal" font-weight="normal" text-decoration="none" x="277" y="1201.5">+getData(): *T</text></g></g><g transform="translate(-142,-46) scale(1,1)"><path fill="none" stroke="#000000" d="M 368 1169 L 487 1165" stroke-miterlimit="10"/></g><g transform="translate(-142,-46) scale(1,1)"><path fill="#FFFFFF" stroke="none" d="M 466.968956055258 1174.097102752185 L 487 1165 L 466.4032899472063 1157.2685360376481"/></g><g transform="translate(-142,-46) scale(1,1)"><path fill="none" stroke="#000000" d="M 466.968956055258 1174.097102752185 L 487 1165 L 466.4032899472063 1157.2685360376481 L 466.968956055258 1174.097102752185" stroke-miterlimit="10"/></g><g transform="translate(-142,-46) scale(1,1)"><rect fill="#C0C0C0" stroke="none" x="223" y="895" width="187.0771484375" height="72" opacity="0.2"/></g><g transform="translate(-142,-46) scale(1,1)"><rect fill="#ffffff" stroke="none" x="216" y="888" width="187.0771484375" height="72"/></g><g transform="translate(-142,-46) scale(1,1)"><path fill="none" stroke="#000000" d="M 216 888 L 403.0771484375 888 L 403.0771484375 960 L 216 960 L 216 888 Z Z" stroke-miterlimit="10"/></g><g transform="translate(-142,-46) scale(1,1)"><path fill="none" stroke="#000000" d="M 216 913 L 403.0771484375 913" stroke-miterlimit="10"/></g><g transform="translate(-142,-46) scale(1,1)"><path fill="none" stroke="#000000" d="M 216 923 L 403.0771484375 923" stroke-miterlimit="10"/></g><g transform="translate(-142,-46) scale(1,1)"><g><path fill="none" stroke="none"/><text fill="#000000" stroke="none" font-family="Arial" font-size="13px" font-style="normal" font-weight="bold" text-decoration="none" x="274.13134765625" y="907.5">ISerializable</text></g></g><g transform="translate(-142,-46) scale(1,1)"><g><path fill="none" stroke="none"/><text fill="#000000" stroke="none" font-family="Arial" font-size="13px" font-style="normal" font-weight="normal" text-decoration="none" x="221" y="940.5">+Serialize(stream: &amp;Stream)</text></g></g><g transform="translate(-142,-46) scale(1,1)"><g><path fill="none" stroke="none"/><text fill="#000000" stroke="none" font-family="Arial" font-size="13px" font-style="normal" font-weight="normal" text-decoration="none" x="221" y="955.5">+Deserialize(stream: &amp;Stream)</text></g></g><g transform="translate(-142,-46) scale(1,1)"><path fill="none" stroke="#000000" d="M 318 1135 L 310 961" stroke-miterlimit="10"/></g><g transform="translate(-142,-46) scale(1,1)"><g><path fill="none" stroke="none"/><text fill="#000000" stroke="none" font-family="Arial" font-size="13px" font-style="normal" font-weight="normal" text-decoration="none" x="244" y="1055">+where T is of type</text></g></g><g transform="translate(-142,-46) scale(1,1)"><rect fill="#C0C0C0" stroke="none" x="943" y="1015" width="159.2744140625" height="85" opacity="0.2"/></g><g transform="translate(-142,-46) scale(1,1)"><rect fill="#ffffff" stroke="none" x="936" y="1008" width="159.2744140625" height="85"/></g><g transform="translate(-142,-46) scale(1,1)"><path fill="none" stroke="#000000" d="M 936 1008 L 1095.2744140625 1008 L 1095.2744140625 1093 L 936 1093 L 936 1008 Z Z" stroke-miterlimit="10"/></g><g transform="translate(-142,-46) scale(1,1)"><path fill="none" stroke="#000000" d="M 936 1061 L 1095.2744140625 1061" stroke-miterlimit="10"/></g><g transform="translate(-142,-46) scale(1,1)"><path fill="none" stroke="#000000" d="M 936 1084 L 1095.2744140625 1084" stroke-miterlimit="10"/></g><g transform="translate(-142,-46) scale(1,1)"><g><path fill="none" stroke="none"/><text fill="#000000" stroke="none" font-family="Arial" font-size="13px" font-style="normal" font-weight="normal" text-decoration="none" x="991.424072265625" y="1025.5">«signal»</text></g></g><g transform="translate(-142,-46) scale(1,1)"><g><path fill="none" stroke="none"/><text fill="#000000" stroke="none" font-family="Arial" font-size="13px" font-style="normal" font-weight="bold" text-decoration="none" x="975.523193359375" y="1040.5">DataChanged</text></g></g><g transform="translate(-142,-46) scale(1,1)"><g><path fill="none" stroke="none"/><text fill="#000000" stroke="none" font-family="Arial" font-size="13px" font-style="normal" font-weight="normal" text-decoration="none" x="940.5" y="1055.5">(from AContextDataStore)</text></g></g><g transform="translate(-142,-46) scale(1,1)"><g><path fill="none" stroke="none"/><text fill="#000000" stroke="none" font-family="Arial" font-size="13px" font-style="normal" font-weight="normal" text-decoration="none" x="941" y="1078.5">+data: *SDataChanged</text></g></g><g transform="translate(-142,-46) scale(1,1)"><path fill="none" stroke="#000000" d="M 790 985 L 935 1027" stroke-miterlimit="10" stroke-dasharray="3"/></g><g transform="translate(-142,-46) scale(1,1)"><path fill="none" stroke="#000000" d="M 924.0674035424776 1028.2158678780884 L 935 1027 L 926.4097384872866 1020.129235330533" stroke-miterlimit="10"/></g><g transform="translate(-142,-46) scale(1,1)"><rect fill="#C0C0C0" stroke="none" x="967" y="687" width="203.060546875" height="85" opacity="0.2"/></g><g transform="translate(-142,-46) scale(1,1)"><rect fill="#ffffff" stroke="none" x="960" y="680" width="203.060546875" height="85"/></g><g transform="translate(-142,-46) scale(1,1)"><path fill="none" stroke="#000000" d="M 960 680 L 1163.060546875 680 L 1163.060546875 765 L 960 765 L 960 680 Z Z" stroke-miterlimit="10"/></g><g transform="translate(-142,-46) scale(1,1)"><path fill="none" stroke="#000000" d="M 960 733 L 1163.060546875 733" stroke-miterlimit="10"/></g><g transform="translate(-142,-46) scale(1,1)"><path fill="none" stroke="#000000" d="M 960 756 L 1163.060546875 756" stroke-miterlimit="10"/></g><g transform="translate(-142,-46) scale(1,1)"><g><path fill="none" stroke="none"/><text fill="#000000" stroke="none" font-family="Arial" font-size="13px" font-style="normal" font-weight="normal" text-decoration="none" x="1037.317138671875" y="697.5">«signal»</text></g></g><g transform="translate(-142,-46) scale(1,1)"><g><path fill="none" stroke="none"/><text fill="#000000" stroke="none" font-family="Arial" font-size="13px" font-style="normal" font-weight="bold" text-decoration="none" x="991.423583984375" y="712.5">ExecutionStateChanged</text></g></g><g transform="translate(-142,-46) scale(1,1)"><g><path fill="none" stroke="none"/><text fill="#000000" stroke="none" font-family="Arial" font-size="13px" font-style="normal" font-weight="normal" text-decoration="none" x="1011.336181640625" y="727.5">(from AWorkflow)</text></g></g><g transform="translate(-142,-46) scale(1,1)"><g><path fill="none" stroke="none"/><text fill="#000000" stroke="none" font-family="Arial" font-size="13px" font-style="normal" font-weight="normal" text-decoration="none" x="965" y="750.5">+data: *SExecutionStateChanged</text></g></g><g transform="translate(-142,-46) scale(1,1)"><path fill="none" stroke="#000000" d="M 797 691 L 959 710" stroke-miterlimit="10" stroke-dasharray="3"/></g><g transform="translate(-142,-46) scale(1,1)"><path fill="none" stroke="#000000" d="M 948.4161607827021 712.9970564596597 L 959 710 L 949.3968565722363 704.6353344646849" stroke-miterlimit="10"/></g><g transform="translate(-142,-46) scale(1,1)"><rect fill="#C0C0C0" stroke="none" x="159" y="687" width="263.6298828125" height="100" opacity="0.2"/></g><g transform="translate(-142,-46) scale(1,1)"><rect fill="#ffffff" stroke="none" x="152" y="680" width="263.6298828125" height="100"/></g><g transform="translate(-142,-46) scale(1,1)"><path fill="none" stroke="#000000" d="M 152 680 L 415.6298828125 680 L 415.6298828125 780 L 152 780 L 152 680 Z Z" stroke-miterlimit="10"/></g><g transform="translate(-142,-46) scale(1,1)"><path fill="none" stroke="#000000" d="M 152 718 L 415.6298828125 718" stroke-miterlimit="10"/></g><g transform="translate(-142,-46) scale(1,1)"><path fill="none" stroke="#000000" d="M 152 728 L 415.6298828125 728" stroke-miterlimit="10"/></g><g transform="translate(-142,-46) scale(1,1)"><g><path fill="none" stroke="none"/><text fill="#000000" stroke="none" font-family="Arial" font-size="13px" font-style="normal" font-weight="normal" text-decoration="none" x="250.56591796875" y="697.5">«singleton»</text></g></g><g transform="translate(-142,-46) scale(1,1)"><g><path fill="none" stroke="none"/><text fill="#000000" stroke="none" font-family="Arial" font-size="13px" font-style="normal" font-weight="bold" text-decoration="none" x="226.7431640625" y="712.5">CWorkflowManager</text></g></g><g transform="translate(-142,-46) scale(1,1)"><g><path fill="none" stroke="none"/><text fill="#000000" stroke="none" font-family="Arial" font-size="13px" font-style="normal" font-weight="normal" text-decoration="none" x="157" y="745.5">+Instance(): *CWorkflowManager</text><path fill="none" stroke="#000000" d="M 157 745.5 L 348.81982421875 745.5" stroke-miterlimit="10"/></g></g><g transform="translate(-142,-46) scale(1,1)"><g><path fill="none" stroke="none"/><text fill="#000000" stroke="none" font-family="Arial" font-size="13px" font-style="normal" font-weight="normal" text-decoration="none" x="157" y="760.5">+GetAvailableWorkflows(): vector&lt;string&gt;</text></g></g><g transform="translate(-142,-46) scale(1,1)"><g><path fill="none" stroke="none"/><text fill="#000000" stroke="none" font-family="Arial" font-size="13px" font-style="normal" font-weight="normal" text-decoration="none" x="157" y="775.5">+GetWorkflow(workflow: string): *AWorkflow</text></g></g></g></svg>