<svg version="1.1" xmlns="http://www.w3.org/2000/svg" xmlns:xlink="http://www.w3.org/1999/xlink" width="661" height="693"><defs/><g><g transform="translate(-6,-110) scale(1,1)"><rect fill="#C0C0C0" stroke="none" x="95" y="383" width="229.009765625" height="147" opacity="0.2"/></g><g transform="translate(-6,-110) scale(1,1)"><rect fill="#ffffff" stroke="none" x="88" y="376" width="229.009765625" height="147"/></g><g transform="translate(-6,-110) scale(1,1)"><path fill="none" stroke="#000000" d="M 88 376 L 317.009765625 376 L 317.009765625 523 L 88 523 L 88 376 Z Z" stroke-miterlimit="10"/></g><g transform="translate(-6,-110) scale(1,1)"><path fill="none" stroke="#000000" d="M 88 401 L 317.009765625 401" stroke-miterlimit="10"/></g><g transform="translate(-6,-110) scale(1,1)"><path fill="none" stroke="#000000" d="M 88 411 L 317.009765625 411" stroke-miterlimit="10"/></g><g transform="translate(-6,-110) scale(1,1)"><g><path fill="none" stroke="none"/><text fill="#000000" stroke="none" font-family="Arial" font-size="13px" font-style="italic" font-weight="bold" text-decoration="none" x="180.100830078125" y="395.5">APlugin</text></g></g><g transform="translate(-6,-110) scale(1,1)"><g><path fill="none" stroke="none"/><text fill="#000000" stroke="none" font-family="Arial" font-size="13px" font-style="italic" font-weight="normal" text-decoration="none" x="93" y="428.5">+DataAccess(): const *IDataAccess</text></g></g><g transform="translate(-6,-110) scale(1,1)"><g><path fill="none" stroke="none"/><text fill="#000000" stroke="none" font-family="Arial" font-size="13px" font-style="italic" font-weight="normal" text-decoration="none" x="93" y="443.5">+GetAlgorithm(): const *IAlgorithm</text></g></g><g transform="translate(-6,-110) scale(1,1)"><g><path fill="none" stroke="none"/><text fill="#000000" stroke="none" font-family="Arial" font-size="13px" font-style="normal" font-weight="normal" text-decoration="none" x="93" y="458.5">+Autor(): String</text></g></g><g transform="translate(-6,-110) scale(1,1)"><g><path fill="none" stroke="none"/><text fill="#000000" stroke="none" font-family="Arial" font-size="13px" font-style="normal" font-weight="normal" text-decoration="none" x="93" y="473.5">+Date(): TimeStamp</text></g></g><g transform="translate(-6,-110) scale(1,1)"><g><path fill="none" stroke="none"/><text fill="#000000" stroke="none" font-family="Arial" font-size="13px" font-style="normal" font-weight="normal" text-decoration="none" x="93" y="488.5">+Version(): int32</text></g></g><g transform="translate(-6,-110) scale(1,1)"><rect fill="#C0C0C0" stroke="none" x="455" y="551" width="209" height="72" opacity="0.2"/></g><g transform="translate(-6,-110) scale(1,1)"><rect fill="#ffffff" stroke="none" x="448" y="544" width="209" height="72"/></g><g transform="translate(-6,-110) scale(1,1)"><path fill="none" stroke="#000000" d="M 448 544 L 657 544 L 657 616 L 448 616 L 448 544 Z Z" stroke-miterlimit="10"/></g><g transform="translate(-6,-110) scale(1,1)"><path fill="none" stroke="#000000" d="M 448 582 L 657 582" stroke-miterlimit="10"/></g><g transform="translate(-6,-110) scale(1,1)"><path fill="none" stroke="#000000" d="M 448 592 L 657 592" stroke-miterlimit="10"/></g><g transform="translate(-6,-110) scale(1,1)"><g><path fill="none" stroke="none"/><text fill="#000000" stroke="none" font-family="Arial" font-size="13px" font-style="normal" font-weight="normal" text-decoration="none" x="508.77734375" y="561.5">«template&lt;T&gt;»</text></g></g><g transform="translate(-6,-110) scale(1,1)"><g><path fill="none" stroke="none"/><text fill="#000000" stroke="none" font-family="Arial" font-size="13px" font-style="italic" font-weight="bold" text-decoration="none" x="521.075927734375" y="576.5">TAlgorithm</text></g></g><g transform="translate(-6,-110) scale(1,1)"><g><path fill="none" stroke="none"/><text fill="#000000" stroke="none" font-family="Arial" font-size="13px" font-style="italic" font-weight="normal" text-decoration="none" x="453" y="609.5">+setData(data: *T)</text></g></g><g transform="translate(-6,-110) scale(1,1)"><rect fill="#C0C0C0" stroke="none" x="471" y="311" width="176.578125" height="44" opacity="0.2"/></g><g transform="translate(-6,-110) scale(1,1)"><rect fill="#ffffff" stroke="none" x="464" y="304" width="176.578125" height="44"/></g><g transform="translate(-6,-110) scale(1,1)"><path fill="none" stroke="#000000" d="M 464 304 L 640.578125 304 L 640.578125 348 L 464 348 L 464 304 Z Z" stroke-miterlimit="10"/></g><g transform="translate(-6,-110) scale(1,1)"><path fill="none" stroke="#000000" d="M 464 329 L 640.578125 329" stroke-miterlimit="10"/></g><g transform="translate(-6,-110) scale(1,1)"><path fill="none" stroke="#000000" d="M 464 339 L 640.578125 339" stroke-miterlimit="10"/></g><g transform="translate(-6,-110) scale(1,1)"><g><path fill="none" stroke="none"/><text fill="#000000" stroke="none" font-family="Arial" font-size="13px" font-style="normal" font-weight="bold" text-decoration="none" x="474.971435546875" y="323.5">CStereoRectificationPlugin</text></g></g><g transform="translate(-6,-110) scale(1,1)"><rect fill="#C0C0C0" stroke="none" x="463" y="423" width="198.24267578125" height="44" opacity="0.2"/></g><g transform="translate(-6,-110) scale(1,1)"><rect fill="#ffffff" stroke="none" x="456" y="416" width="198.24267578125" height="44"/></g><g transform="translate(-6,-110) scale(1,1)"><path fill="none" stroke="#000000" d="M 456 416 L 654.24267578125 416 L 654.24267578125 460 L 456 460 L 456 416 Z Z" stroke-miterlimit="10"/></g><g transform="translate(-6,-110) scale(1,1)"><path fill="none" stroke="#000000" d="M 456 441 L 654.24267578125 441" stroke-miterlimit="10"/></g><g transform="translate(-6,-110) scale(1,1)"><path fill="none" stroke="#000000" d="M 456 451 L 654.24267578125 451" stroke-miterlimit="10"/></g><g transform="translate(-6,-110) scale(1,1)"><g><path fill="none" stroke="none"/><text fill="#000000" stroke="none" font-family="Arial" font-size="13px" font-style="normal" font-weight="bold" text-decoration="none" x="468.418701171875" y="435.5">CStereoRectificationAlgorithm</text></g></g><g transform="translate(-6,-110) scale(1,1)"><path fill="none" stroke="#000000" d="M 487 349 L 318 408" stroke-miterlimit="10"/></g><g transform="translate(-6,-110) scale(1,1)"><path fill="#FFFFFF" stroke="none" d="M 334.41460981094656 393.35211330073935 L 318 408 L 339.964501922951 409.2492618927521"/></g><g transform="translate(-6,-110) scale(1,1)"><path fill="none" stroke="#000000" d="M 334.41460981094656 393.35211330073935 L 318 408 L 339.964501922951 409.2492618927521 L 334.41460981094656 393.35211330073935" stroke-miterlimit="10"/></g><g transform="translate(-6,-110) scale(1,1)"><path fill="none" stroke="#000000" d="M 555 461 L 553 543" stroke-miterlimit="10"/></g><g transform="translate(-6,-110) scale(1,1)"><path fill="#FFFFFF" stroke="none" d="M 545.0790603947485 522.4754119220395 L 553 543 L 561.912125302744 522.8859744807711"/></g><g transform="translate(-6,-110) scale(1,1)"><path fill="none" stroke="#000000" d="M 545.0790603947485 522.4754119220395 L 553 543 L 561.912125302744 522.8859744807711 L 545.0790603947485 522.4754119220395" stroke-miterlimit="10"/></g><g transform="translate(-6,-110) scale(1,1)"><path fill="none" stroke="#000000" d="M 553 349 L 554 415" stroke-miterlimit="10"/></g><g transform="translate(-6,-110) scale(1,1)"><path fill="none" stroke="#000000" d="M 549.6370030962939 404.9022647084482 L 554 415 L 558.0550724023766 404.77471820381055" stroke-miterlimit="10"/></g><g transform="translate(-6,-110) scale(1,1)"><rect fill="#C0C0C0" stroke="none" x="23" y="127" width="307.80322265625" height="87" opacity="0.2"/></g><g transform="translate(-6,-110) scale(1,1)"><rect fill="#ffffff" stroke="none" x="16" y="120" width="307.80322265625" height="87"/></g><g transform="translate(-6,-110) scale(1,1)"><path fill="none" stroke="#000000" d="M 16 120 L 323.80322265625 120 L 323.80322265625 207 L 16 207 L 16 120 Z Z" stroke-miterlimit="10"/></g><g transform="translate(-6,-110) scale(1,1)"><path fill="none" stroke="#000000" d="M 16 145 L 323.80322265625 145" stroke-miterlimit="10"/></g><g transform="translate(-6,-110) scale(1,1)"><path fill="none" stroke="#000000" d="M 16 155 L 323.80322265625 155" stroke-miterlimit="10"/></g><g transform="translate(-6,-110) scale(1,1)"><g><path fill="none" stroke="none"/><text fill="#000000" stroke="none" font-family="Arial" font-size="13px" font-style="italic" font-weight="bold" text-decoration="none" x="133.415283203125" y="139.5">IDataAccess</text></g></g><g transform="translate(-6,-110) scale(1,1)"><g><path fill="none" stroke="none"/><text fill="#000000" stroke="none" font-family="Arial" font-size="13px" font-style="italic" font-weight="normal" text-decoration="none" x="21" y="172.5">+bindToDataStore(dataStore: *AContextDataStore)</text></g></g><g transform="translate(-6,-110) scale(1,1)"><g><path fill="none" stroke="none"/><text fill="#000000" stroke="none" font-family="Arial" font-size="13px" font-style="italic" font-weight="normal" text-decoration="none" x="21" y="187.5">+getInputDataTypes(): const vector&lt;EDataType&gt;</text></g></g><g transform="translate(-6,-110) scale(1,1)"><g><path fill="none" stroke="none"/><text fill="#000000" stroke="none" font-family="Arial" font-size="13px" font-style="italic" font-weight="normal" text-decoration="none" x="21" y="202.5">+getOutputDataTypes(): const vector&lt;EDataType&gt;</text></g></g><g transform="translate(-6,-110) scale(1,1)"><rect fill="#C0C0C0" stroke="none" x="479" y="159" width="165.0380859375" height="44" opacity="0.2"/></g><g transform="translate(-6,-110) scale(1,1)"><rect fill="#ffffff" stroke="none" x="472" y="152" width="165.0380859375" height="44"/></g><g transform="translate(-6,-110) scale(1,1)"><path fill="none" stroke="#000000" d="M 472 152 L 637.0380859375 152 L 637.0380859375 196 L 472 196 L 472 152 Z Z" stroke-miterlimit="10"/></g><g transform="translate(-6,-110) scale(1,1)"><path fill="none" stroke="#000000" d="M 472 177 L 637.0380859375 177" stroke-miterlimit="10"/></g><g transform="translate(-6,-110) scale(1,1)"><path fill="none" stroke="#000000" d="M 472 187 L 637.0380859375 187" stroke-miterlimit="10"/></g><g transform="translate(-6,-110) scale(1,1)"><g><path fill="none" stroke="none"/><text fill="#000000" stroke="none" font-family="Arial" font-size="13px" font-style="normal" font-weight="bold" text-decoration="none" x="481.5400390625" y="171.5">CStereoRectificationData</text></g></g><g transform="translate(-6,-110) scale(1,1)"><path fill="none" stroke="#000000" d="M 552 303 L 554 197" stroke-miterlimit="10"/></g><g transform="translate(-6,-110) scale(1,1)"><path fill="none" stroke="#000000" d="M 558.0170542046347 207.240277121105 L 554 197 L 549.5995168749283 207.08145566205394" stroke-miterlimit="10"/></g><g transform="translate(-6,-110) scale(1,1)"><path fill="none" stroke="#000000" d="M 471 172 L 325 167" stroke-miterlimit="10"/></g><g transform="translate(-6,-110) scale(1,1)"><path fill="#FFFFFF" stroke="none" d="M 345.60159532627307 159.28156298124526 L 325 167 L 345.02528691459156 176.109768602346"/></g><g transform="translate(-6,-110) scale(1,1)"><path fill="none" stroke="#000000" d="M 345.60159532627307 159.28156298124526 L 325 167 L 345.02528691459156 176.109768602346 L 345.60159532627307 159.28156298124526" stroke-miterlimit="10"/></g><g transform="translate(-6,-110) scale(1,1)"><path fill="none" stroke="#000000" d="M 193 375 L 174 208" stroke-miterlimit="10"/></g><g transform="translate(-6,-110) scale(1,1)"><path fill="none" stroke="#000000" d="M 179.33135617319658 217.62167560014984 L 174 208 L 170.96628603974497 218.57339016623115" stroke-miterlimit="10"/></g><g transform="translate(-6,-110) scale(1,1)"><g><path fill="none" stroke="none"/><text fill="#000000" stroke="none" font-family="Arial" font-size="13px" font-style="normal" font-weight="normal" text-decoration="none" x="151" y="299">#Data</text></g></g><g transform="translate(-6,-110) scale(1,1)"><rect fill="#C0C0C0" stroke="none" x="31" y="695" width="125.34619140625" height="105" opacity="0.2"/></g><g transform="translate(-6,-110) scale(1,1)"><rect fill="#ffffff" stroke="none" x="24" y="688" width="125.34619140625" height="105"/></g><g transform="translate(-6,-110) scale(1,1)"><path fill="none" stroke="#000000" d="M 24 688 L 149.34619140625 688 L 149.34619140625 793 L 24 793 L 24 688 Z Z" stroke-miterlimit="10"/></g><g transform="translate(-6,-110) scale(1,1)"><path fill="none" stroke="#000000" d="M 24 726 L 149.34619140625 726" stroke-miterlimit="10"/></g><g transform="translate(-6,-110) scale(1,1)"><g><path fill="none" stroke="none"/><text fill="#000000" stroke="none" font-family="Arial" font-size="13px" font-style="normal" font-weight="normal" text-decoration="none" x="43.30908203125" y="705.5">«enumeration»</text></g></g><g transform="translate(-6,-110) scale(1,1)"><g><path fill="none" stroke="none"/><text fill="#000000" stroke="none" font-family="Arial" font-size="13px" font-style="normal" font-weight="bold" text-decoration="none" x="40.43359375" y="720.5">EAlgorithmType</text></g></g><g transform="translate(-6,-110) scale(1,1)"><g><path fill="none" stroke="none"/><text fill="#000000" stroke="none" font-family="Arial" font-size="13px" font-style="normal" font-weight="normal" text-decoration="none" x="29" y="743.5">FeatureMatcher</text></g></g><g transform="translate(-6,-110) scale(1,1)"><g><path fill="none" stroke="none"/><text fill="#000000" stroke="none" font-family="Arial" font-size="13px" font-style="normal" font-weight="normal" text-decoration="none" x="29" y="758.5">DepthMapper</text></g></g><g transform="translate(-6,-110) scale(1,1)"><g><path fill="none" stroke="none"/><text fill="#000000" stroke="none" font-family="Arial" font-size="13px" font-style="normal" font-weight="normal" text-decoration="none" x="29" y="773.5">PoseEstimator</text></g></g><g transform="translate(-6,-110) scale(1,1)"><g><path fill="none" stroke="none"/><text fill="#000000" stroke="none" font-family="Arial" font-size="13px" font-style="normal" font-weight="normal" text-decoration="none" x="29" y="788.5">PclReconstuctor</text></g></g><g transform="translate(-6,-110) scale(1,1)"><path fill="none" stroke="#000000" d="M 172 524 L 107 687" stroke-miterlimit="10"/></g><g transform="translate(-6,-110) scale(1,1)"><path fill="none" stroke="#000000" d="M 106.85424430779715 676.000965711564 L 107 687 L 114.67442689350325 679.1194434297904" stroke-miterlimit="10"/></g><g transform="translate(-6,-110) scale(1,1)"><g><path fill="none" stroke="none"/><text fill="#000000" stroke="none" font-family="Arial" font-size="13px" font-style="normal" font-weight="normal" text-decoration="none" x="42" y="590">+AlgorithmType</text></g></g><g transform="translate(-6,-110) scale(1,1)"><g><path fill="none" stroke="none"/><text fill="#000000" stroke="none" font-family="Arial" font-size="13px" font-style="normal" font-weight="normal" text-decoration="none" x="116" y="546">0..*</text></g></g><g transform="translate(-6,-110) scale(1,1)"><g><path fill="none" stroke="none"/><text fill="#000000" stroke="none" font-family="Arial" font-size="13px" font-style="normal" font-weight="normal" text-decoration="none" x="100" y="669">1</text></g></g><g transform="translate(-6,-110) scale(1,1)"><rect fill="#C0C0C0" stroke="none" x="223" y="703" width="275.9697265625" height="87" opacity="0.2"/></g><g transform="translate(-6,-110) scale(1,1)"><rect fill="#ffffff" stroke="none" x="216" y="696" width="275.9697265625" height="87"/></g><g transform="translate(-6,-110) scale(1,1)"><path fill="none" stroke="#000000" d="M 216 696 L 491.9697265625 696 L 491.9697265625 783 L 216 783 L 216 696 Z Z" stroke-miterlimit="10"/></g><g transform="translate(-6,-110) scale(1,1)"><path fill="none" stroke="#000000" d="M 216 721 L 491.9697265625 721" stroke-miterlimit="10"/></g><g transform="translate(-6,-110) scale(1,1)"><path fill="none" stroke="#000000" d="M 216 731 L 491.9697265625 731" stroke-miterlimit="10"/></g><g transform="translate(-6,-110) scale(1,1)"><g><path fill="none" stroke="none"/><text fill="#000000" stroke="none" font-family="Arial" font-size="13px" font-style="italic" font-weight="bold" text-decoration="none" x="324.725341796875" y="715.5">IAlgorithm</text></g></g><g transform="translate(-6,-110) scale(1,1)"><g><path fill="none" stroke="none"/><text fill="#000000" stroke="none" font-family="Arial" font-size="13px" font-style="italic" font-weight="normal" text-decoration="none" x="221" y="748.5">+setLogger(log: *Logger)</text></g></g><g transform="translate(-6,-110) scale(1,1)"><g><path fill="none" stroke="none"/><text fill="#000000" stroke="none" font-family="Arial" font-size="13px" font-style="italic" font-weight="normal" text-decoration="none" x="221" y="763.5">+setParameters(p: *CAlgorithmSettingsModel)</text></g></g><g transform="translate(-6,-110) scale(1,1)"><g><path fill="none" stroke="none"/><text fill="#000000" stroke="none" font-family="Arial" font-size="13px" font-style="italic" font-weight="normal" text-decoration="none" x="221" y="778.5">+run()</text></g></g><g transform="translate(-6,-110) scale(1,1)"><path fill="none" stroke="#000000" d="M 506 617 L 408 695" stroke-miterlimit="10"/></g><g transform="translate(-6,-110) scale(1,1)"><path fill="#FFFFFF" stroke="none" d="M 418.6601268207559 675.7552163907878 L 408 695 L 429.14596495580673 688.9297309707235"/></g><g transform="translate(-6,-110) scale(1,1)"><path fill="none" stroke="#000000" d="M 418.6601268207559 675.7552163907878 L 408 695 L 429.14596495580673 688.9297309707235 L 418.6601268207559 675.7552163907878" stroke-miterlimit="10"/></g><g transform="translate(-6,-110) scale(1,1)"><path fill="none" stroke="#000000" d="M 241 524 L 330 695" stroke-miterlimit="10"/></g><g transform="translate(-6,-110) scale(1,1)"><path fill="#000000" stroke="none" d="M 321.5740631143139 687.9286785111667 L 330 695 L 329.04214226698565 684.0417835135773 L 319.8430538955729 675.4849687207076"/></g><g transform="translate(-6,-110) scale(1,1)"><path fill="none" stroke="#000000" d="M 321.5740631143139 687.9286785111667 L 330 695 L 329.04214226698565 684.0417835135773 L 319.8430538955729 675.4849687207076 L 321.5740631143139 687.9286785111667" stroke-miterlimit="10"/></g><g transform="translate(-6,-110) scale(1,1)"><g><path fill="none" stroke="none"/><text fill="#000000" stroke="none" font-family="Arial" font-size="13px" font-style="normal" font-weight="normal" text-decoration="none" x="315" y="626">#Algorithm</text></g></g><g transform="translate(-6,-110) scale(1,1)"><g><path fill="none" stroke="none"/><text fill="#000000" stroke="none" font-family="Arial" font-size="13px" font-style="normal" font-weight="normal" text-decoration="none" x="257" y="551">1</text></g></g><g transform="translate(-6,-110) scale(1,1)"><g><path fill="none" stroke="none"/><text fill="#000000" stroke="none" font-family="Arial" font-size="13px" font-style="normal" font-weight="normal" text-decoration="none" x="305" y="688">1</text></g></g></g></svg>