<svg version="1.1" xmlns="http://www.w3.org/2000/svg" xmlns:xlink="http://www.w3.org/1999/xlink" width="446.24267578125" height="377"><defs/><g><g transform="translate(-10,-86) scale(1,1)"><rect fill="#C0C0C0" stroke="none" x="119" y="231" width="64" height="24" opacity="0.2"/></g><g transform="translate(-10,-86) scale(1,1)"><rect fill="#ffffff" stroke="none" x="112" y="224" width="64" height="24"/></g><g transform="translate(-10,-86) scale(1,1)"><path fill="none" stroke="#000000" d="M 112 224 L 176 224 L 176 248 L 112 248 L 112 224 Z Z" stroke-miterlimit="10"/></g><g transform="translate(-10,-86) scale(1,1)"><g><path fill="none" stroke="none"/><text fill="#000000" stroke="none" font-family="Arial" font-size="13px" font-style="italic" font-weight="bold" text-decoration="none" x="121.595947265625" y="243.5">APlugin</text></g></g><g transform="translate(-10,-86) scale(1,1)"><rect fill="#C0C0C0" stroke="none" x="319" y="423" width="96.4453125" height="37" opacity="0.2"/></g><g transform="translate(-10,-86) scale(1,1)"><rect fill="#ffffff" stroke="none" x="312" y="416" width="96.4453125" height="37"/></g><g transform="translate(-10,-86) scale(1,1)"><path fill="none" stroke="#000000" d="M 312 416 L 408.4453125 416 L 408.4453125 453 L 312 453 L 312 416 Z Z" stroke-miterlimit="10"/></g><g transform="translate(-10,-86) scale(1,1)"><g><path fill="none" stroke="none"/><text fill="#000000" stroke="none" font-family="Arial" font-size="13px" font-style="normal" font-weight="normal" text-decoration="none" x="316.5" y="433.5">«template&lt;T&gt;»</text></g></g><g transform="translate(-10,-86) scale(1,1)"><g><path fill="none" stroke="none"/><text fill="#000000" stroke="none" font-family="Arial" font-size="13px" font-style="italic" font-weight="bold" text-decoration="none" x="328.798583984375" y="448.5">TAlgorithm</text></g></g><g transform="translate(-10,-86) scale(1,1)"><rect fill="#C0C0C0" stroke="none" x="271" y="231" width="176.578125" height="24" opacity="0.2"/></g><g transform="translate(-10,-86) scale(1,1)"><rect fill="#ffffff" stroke="none" x="264" y="224" width="176.578125" height="24"/></g><g transform="translate(-10,-86) scale(1,1)"><path fill="none" stroke="#000000" d="M 264 224 L 440.578125 224 L 440.578125 248 L 264 248 L 264 224 Z Z" stroke-miterlimit="10"/></g><g transform="translate(-10,-86) scale(1,1)"><g><path fill="none" stroke="none"/><text fill="#000000" stroke="none" font-family="Arial" font-size="13px" font-style="normal" font-weight="bold" text-decoration="none" x="274.971435546875" y="243.5">CStereoRectificationPlugin</text></g></g><g transform="translate(-10,-86) scale(1,1)"><rect fill="#C0C0C0" stroke="none" x="255" y="327" width="198.24267578125" height="24" opacity="0.2"/></g><g transform="translate(-10,-86) scale(1,1)"><rect fill="#ffffff" stroke="none" x="248" y="320" width="198.24267578125" height="24"/></g><g transform="translate(-10,-86) scale(1,1)"><path fill="none" stroke="#000000" d="M 248 320 L 446.24267578125 320 L 446.24267578125 344 L 248 344 L 248 320 Z Z" stroke-miterlimit="10"/></g><g transform="translate(-10,-86) scale(1,1)"><g><path fill="none" stroke="none"/><text fill="#000000" stroke="none" font-family="Arial" font-size="13px" font-style="normal" font-weight="bold" text-decoration="none" x="260.418701171875" y="339.5">CStereoRectificationAlgorithm</text></g></g><g transform="translate(-10,-86) scale(1,1)"><path fill="none" stroke="#000000" d="M 263 236 L 177 236" stroke-miterlimit="10"/></g><g transform="translate(-10,-86) scale(1,1)"><path fill="#FFFFFF" stroke="none" d="M 197.3253497152483 227.58096448796803 L 177 236 L 197.3253497152483 244.41903551203197"/></g><g transform="translate(-10,-86) scale(1,1)"><path fill="none" stroke="#000000" d="M 197.3253497152483 227.58096448796803 L 177 236 L 197.3253497152483 244.41903551203197 L 197.3253497152483 227.58096448796803" stroke-miterlimit="10"/></g><g transform="translate(-10,-86) scale(1,1)"><path fill="none" stroke="#000000" d="M 349 345 L 358 415" stroke-miterlimit="10"/></g><g transform="translate(-10,-86) scale(1,1)"><path fill="#FFFFFF" stroke="none" d="M 347.05777537216926 395.9142010857786 L 358 415 L 363.75837660100325 393.76698092778565"/></g><g transform="translate(-10,-86) scale(1,1)"><path fill="none" stroke="#000000" d="M 347.05777537216926 395.9142010857786 L 358 415 L 363.75837660100325 393.76698092778565 L 347.05777537216926 395.9142010857786" stroke-miterlimit="10"/></g><g transform="translate(-10,-86) scale(1,1)"><path fill="none" stroke="#000000" d="M 351 249 L 348 319" stroke-miterlimit="10"/></g><g transform="translate(-10,-86) scale(1,1)"><path fill="none" stroke="#000000" d="M 344.22948658000973 308.6664029230053 L 348 319 L 352.6408009593624 309.02688782497756" stroke-miterlimit="10"/></g><g transform="translate(-10,-86) scale(1,1)"><rect fill="#C0C0C0" stroke="none" x="103" y="103" width="86.3271484375" height="24" opacity="0.2"/></g><g transform="translate(-10,-86) scale(1,1)"><rect fill="#ffffff" stroke="none" x="96" y="96" width="86.3271484375" height="24"/></g><g transform="translate(-10,-86) scale(1,1)"><path fill="none" stroke="#000000" d="M 96 96 L 182.3271484375 96 L 182.3271484375 120 L 96 120 L 96 96 Z Z" stroke-miterlimit="10"/></g><g transform="translate(-10,-86) scale(1,1)"><g><path fill="none" stroke="none"/><text fill="#000000" stroke="none" font-family="Arial" font-size="13px" font-style="italic" font-weight="bold" text-decoration="none" x="102.67724609375" y="115.5">IDataAccess</text></g></g><g transform="translate(-10,-86) scale(1,1)"><rect fill="#C0C0C0" stroke="none" x="263" y="103" width="165.0380859375" height="24" opacity="0.2"/></g><g transform="translate(-10,-86) scale(1,1)"><rect fill="#ffffff" stroke="none" x="256" y="96" width="165.0380859375" height="24"/></g><g transform="translate(-10,-86) scale(1,1)"><path fill="none" stroke="#000000" d="M 256 96 L 421.0380859375 96 L 421.0380859375 120 L 256 120 L 256 96 Z Z" stroke-miterlimit="10"/></g><g transform="translate(-10,-86) scale(1,1)"><g><path fill="none" stroke="none"/><text fill="#000000" stroke="none" font-family="Arial" font-size="13px" font-style="normal" font-weight="bold" text-decoration="none" x="265.5400390625" y="115.5">CStereoRectificationData</text></g></g><g transform="translate(-10,-86) scale(1,1)"><path fill="none" stroke="#000000" d="M 351 223 L 339 121" stroke-miterlimit="10"/></g><g transform="translate(-10,-86) scale(1,1)"><path fill="none" stroke="#000000" d="M 344.36810471228176 130.60122137011632 L 339 121 L 336.0067345056915 131.58491198265634" stroke-miterlimit="10"/></g><g transform="translate(-10,-86) scale(1,1)"><path fill="none" stroke="#000000" d="M 255 108 L 183 108" stroke-miterlimit="10"/></g><g transform="translate(-10,-86) scale(1,1)"><path fill="#FFFFFF" stroke="none" d="M 203.3253497152483 99.58096448796803 L 183 108 L 203.3253497152483 116.41903551203197"/></g><g transform="translate(-10,-86) scale(1,1)"><path fill="none" stroke="#000000" d="M 203.3253497152483 99.58096448796803 L 183 108 L 203.3253497152483 116.41903551203197 L 203.3253497152483 99.58096448796803" stroke-miterlimit="10"/></g><g transform="translate(-10,-86) scale(1,1)"><path fill="none" stroke="#000000" d="M 143 223 L 140 121" stroke-miterlimit="10"/></g><g transform="translate(-10,-86) scale(1,1)"><path fill="none" stroke="#000000" d="M 144.50647121331127 131.03452625705853 L 140 121 L 136.09107479179383 131.28203791651492" stroke-miterlimit="10"/></g><g transform="translate(-10,-86) scale(1,1)"><g><path fill="none" stroke="none"/><text fill="#000000" stroke="none" font-family="Arial" font-size="13px" font-style="normal" font-weight="normal" text-decoration="none" x="109" y="179">#Data</text></g></g><g transform="translate(-10,-86) scale(1,1)"><rect fill="#C0C0C0" stroke="none" x="47" y="423" width="109.39453125" height="37" opacity="0.2"/></g><g transform="translate(-10,-86) scale(1,1)"><rect fill="#ffffff" stroke="none" x="40" y="416" width="109.39453125" height="37"/></g><g transform="translate(-10,-86) scale(1,1)"><path fill="none" stroke="#000000" d="M 40 416 L 149.39453125 416 L 149.39453125 453 L 40 453 L 40 416 Z Z" stroke-miterlimit="10"/></g><g transform="translate(-10,-86) scale(1,1)"><g><path fill="none" stroke="none"/><text fill="#000000" stroke="none" font-family="Arial" font-size="13px" font-style="normal" font-weight="normal" text-decoration="none" x="51.333251953125" y="433.5">«enumeration»</text></g></g><g transform="translate(-10,-86) scale(1,1)"><g><path fill="none" stroke="none"/><text fill="#000000" stroke="none" font-family="Arial" font-size="13px" font-style="normal" font-weight="bold" text-decoration="none" x="48.457763671875" y="448.5">EAlgorithmType</text></g></g><g transform="translate(-10,-86) scale(1,1)"><path fill="none" stroke="#000000" d="M 141 249 L 99 415" stroke-miterlimit="10"/></g><g transform="translate(-10,-86) scale(1,1)"><path fill="none" stroke="#000000" d="M 97.41180708972499 404.1152563980702 L 99 415 L 105.5736540357136 406.1803020109107" stroke-miterlimit="10"/></g><g transform="translate(-10,-86) scale(1,1)"><g><path fill="none" stroke="none"/><text fill="#000000" stroke="none" font-family="Arial" font-size="13px" font-style="normal" font-weight="normal" text-decoration="none" x="20" y="324">+AlgorithmType</text></g></g><g transform="translate(-10,-86) scale(1,1)"><g><path fill="none" stroke="none"/><text fill="#000000" stroke="none" font-family="Arial" font-size="13px" font-style="normal" font-weight="normal" text-decoration="none" x="88" y="277">0..*</text></g></g><g transform="translate(-10,-86) scale(1,1)"><g><path fill="none" stroke="none"/><text fill="#000000" stroke="none" font-family="Arial" font-size="13px" font-style="normal" font-weight="normal" text-decoration="none" x="89" y="397">1</text></g></g><g transform="translate(-10,-86) scale(1,1)"><rect fill="#C0C0C0" stroke="none" x="175" y="431" width="73.99365234375" height="24" opacity="0.2"/></g><g transform="translate(-10,-86) scale(1,1)"><rect fill="#ffffff" stroke="none" x="168" y="424" width="73.99365234375" height="24"/></g><g transform="translate(-10,-86) scale(1,1)"><path fill="none" stroke="#000000" d="M 168 424 L 241.99365234375 424 L 241.99365234375 448 L 168 448 L 168 424 Z Z" stroke-miterlimit="10"/></g><g transform="translate(-10,-86) scale(1,1)"><g><path fill="none" stroke="none"/><text fill="#000000" stroke="none" font-family="Arial" font-size="13px" font-style="italic" font-weight="bold" text-decoration="none" x="175.7373046875" y="443.5">IAlgorithm</text></g></g><g transform="translate(-10,-86) scale(1,1)"><path fill="none" stroke="#000000" d="M 311 435 L 243 436" stroke-miterlimit="10"/></g><g transform="translate(-10,-86) scale(1,1)"><path fill="#FFFFFF" stroke="none" d="M 263.19935630110876 427.2830048169764 L 243 436 L 263.4469482216037 444.1192554106308"/></g><g transform="translate(-10,-86) scale(1,1)"><path fill="none" stroke="#000000" d="M 263.19935630110876 427.2830048169764 L 243 436 L 263.4469482216037 444.1192554106308 L 263.19935630110876 427.2830048169764" stroke-miterlimit="10"/></g><g transform="translate(-10,-86) scale(1,1)"><path fill="none" stroke="#000000" d="M 148 249 L 200 423" stroke-miterlimit="10"/></g><g transform="translate(-10,-86) scale(1,1)"><path fill="#000000" stroke="none" d="M 193.05678604469892 414.468190111652 L 200 423 L 201.1233069568228 412.05750570113224 L 193.70057805842 401.9211650416362"/></g><g transform="translate(-10,-86) scale(1,1)"><path fill="none" stroke="#000000" d="M 193.05678604469892 414.468190111652 L 200 423 L 201.1233069568228 412.05750570113224 L 193.70057805842 401.9211650416362 L 193.05678604469892 414.468190111652" stroke-miterlimit="10"/></g><g transform="translate(-10,-86) scale(1,1)"><g><path fill="none" stroke="none"/><text fill="#000000" stroke="none" font-family="Arial" font-size="13px" font-style="normal" font-weight="normal" text-decoration="none" x="200" y="365">#Algorithm</text></g></g><g transform="translate(-10,-86) scale(1,1)"><g><path fill="none" stroke="none"/><text fill="#000000" stroke="none" font-family="Arial" font-size="13px" font-style="normal" font-weight="normal" text-decoration="none" x="160" y="279">1</text></g></g><g transform="translate(-10,-86) scale(1,1)"><g><path fill="none" stroke="none"/><text fill="#000000" stroke="none" font-family="Arial" font-size="13px" font-style="normal" font-weight="normal" text-decoration="none" x="178" y="412">1</text></g></g></g></svg>