<svg version="1.1" xmlns="http://www.w3.org/2000/svg" xmlns:xlink="http://www.w3.org/1999/xlink" width="219.41064453125" height="90"><defs/><g><g transform="translate(-268,-397) scale(1,1)"><rect fill="#C0C0C0" stroke="none" x="285" y="414" width="199.41064453125" height="70" opacity="0.2"/></g><g transform="translate(-268,-397) scale(1,1)"><rect fill="#ffffff" stroke="none" x="278" y="407" width="199.41064453125" height="70"/></g><g transform="translate(-268,-397) scale(1,1)"><path fill="none" stroke="#000000" d="M 278 407 L 477.41064453125 407 L 477.41064453125 477 L 278 477 L 278 407 Z Z" stroke-miterlimit="10"/></g><g transform="translate(-268,-397) scale(1,1)"><path fill="none" stroke="#000000" d="M 278 445 L 477.41064453125 445" stroke-miterlimit="10"/></g><g transform="translate(-268,-397) scale(1,1)"><path fill="none" stroke="#000000" d="M 278 468 L 477.41064453125 468" stroke-miterlimit="10"/></g><g transform="translate(-268,-397) scale(1,1)"><g><path fill="none" stroke="none"/><text fill="#000000" stroke="none" font-family="Arial" font-size="13px" font-style="normal" font-weight="normal" text-decoration="none" x="353.4921875" y="424.5">«signal»</text></g></g><g transform="translate(-268,-397) scale(1,1)"><g><path fill="none" stroke="none"/><text fill="#000000" stroke="none" font-family="Arial" font-size="13px" font-style="normal" font-weight="bold" text-decoration="none" x="333.255859375" y="439.5">SDataChanged</text></g></g><g transform="translate(-268,-397) scale(1,1)"><g><path fill="none" stroke="none"/><text fill="#000000" stroke="none" font-family="Arial" font-size="13px" font-style="normal" font-weight="normal" text-decoration="none" x="283" y="462.5">+DataStore: *AContextDataStore</text></g></g></g></svg>