<svg version="1.1" xmlns="http://www.w3.org/2000/svg" xmlns:xlink="http://www.w3.org/1999/xlink" width="225.193359375" height="150"><defs/><g><g transform="translate(-398,-484) scale(1,1)"><rect fill="#C0C0C0" stroke="none" x="415" y="501" width="205.193359375" height="130" opacity="0.2"/></g><g transform="translate(-398,-484) scale(1,1)"><rect fill="#ffffff" stroke="none" x="408" y="494" width="205.193359375" height="130"/></g><g transform="translate(-398,-484) scale(1,1)"><path fill="none" stroke="#000000" d="M 408 494 L 613.193359375 494 L 613.193359375 624 L 408 624 L 408 494 Z Z" stroke-miterlimit="10"/></g><g transform="translate(-398,-484) scale(1,1)"><path fill="none" stroke="#000000" d="M 408 532 L 613.193359375 532" stroke-miterlimit="10"/></g><g transform="translate(-398,-484) scale(1,1)"><path fill="none" stroke="#000000" d="M 408 615 L 613.193359375 615" stroke-miterlimit="10"/></g><g transform="translate(-398,-484) scale(1,1)"><g><path fill="none" stroke="none"/><text fill="#000000" stroke="none" font-family="Arial" font-size="13px" font-style="normal" font-weight="normal" text-decoration="none" x="486.383544921875" y="511.5">«signal»</text></g></g><g transform="translate(-398,-484) scale(1,1)"><g><path fill="none" stroke="none"/><text fill="#000000" stroke="none" font-family="Arial" font-size="13px" font-style="normal" font-weight="bold" text-decoration="none" x="436.154541015625" y="526.5">SExecutionStateChanged</text></g></g><g transform="translate(-398,-484) scale(1,1)"><g><path fill="none" stroke="none"/><text fill="#000000" stroke="none" font-family="Arial" font-size="13px" font-style="normal" font-weight="normal" text-decoration="none" x="413" y="549.5">+AlgorithmState: EExecutionState</text></g></g><g transform="translate(-398,-484) scale(1,1)"><g><path fill="none" stroke="none"/><text fill="#000000" stroke="none" font-family="Arial" font-size="13px" font-style="normal" font-weight="normal" text-decoration="none" x="413" y="564.5">+ParentWorkflow: *IWorkflow</text></g></g><g transform="translate(-398,-484) scale(1,1)"><g><path fill="none" stroke="none"/><text fill="#000000" stroke="none" font-family="Arial" font-size="13px" font-style="normal" font-weight="normal" text-decoration="none" x="413" y="579.5">+DataStore: *AContextDataStore</text></g></g><g transform="translate(-398,-484) scale(1,1)"><g><path fill="none" stroke="none"/><text fill="#000000" stroke="none" font-family="Arial" font-size="13px" font-style="normal" font-weight="normal" text-decoration="none" x="413" y="594.5">+Algorithm: *APlugin</text></g></g><g transform="translate(-398,-484) scale(1,1)"><g><path fill="none" stroke="none"/><text fill="#000000" stroke="none" font-family="Arial" font-size="13px" font-style="normal" font-weight="normal" text-decoration="none" x="413" y="609.5">+Step: uint32</text></g></g></g></svg>