<svg version="1.1" xmlns="http://www.w3.org/2000/svg" xmlns:xlink="http://www.w3.org/1999/xlink" width="334.99365234375" height="90"><defs/><g><g transform="translate(-501,-389) scale(1,1)"><rect fill="#C0C0C0" stroke="none" x="518" y="406" width="115.5771484375" height="70" opacity="0.2"/></g><g transform="translate(-501,-389) scale(1,1)"><rect fill="#ffffff" stroke="none" x="511" y="399" width="115.5771484375" height="70"/></g><g transform="translate(-501,-389) scale(1,1)"><path fill="none" stroke="#000000" d="M 511 399 L 626.5771484375 399 L 626.5771484375 469 L 511 469 L 511 399 Z Z" stroke-miterlimit="10"/></g><g transform="translate(-501,-389) scale(1,1)"><path fill="none" stroke="#000000" d="M 511 437 L 626.5771484375 437" stroke-miterlimit="10"/></g><g transform="translate(-501,-389) scale(1,1)"><path fill="none" stroke="#000000" d="M 511 447 L 626.5771484375 447" stroke-miterlimit="10"/></g><g transform="translate(-501,-389) scale(1,1)"><g><path fill="none" stroke="none"/><text fill="#000000" stroke="none" font-family="Arial" font-size="13px" font-style="normal" font-weight="normal" text-decoration="none" x="525.06591796875" y="416.5">«template&lt;T&gt;»</text></g></g><g transform="translate(-501,-389) scale(1,1)"><g><path fill="none" stroke="none"/><text fill="#000000" stroke="none" font-family="Arial" font-size="13px" font-style="italic" font-weight="bold" text-decoration="none" x="537.364501953125" y="431.5">TAlgorithm</text></g></g><g transform="translate(-501,-389) scale(1,1)"><g><path fill="none" stroke="none"/><text fill="#000000" stroke="none" font-family="Arial" font-size="13px" font-style="italic" font-weight="normal" text-decoration="none" x="516" y="464.5">+setData(data: *T)</text></g></g><g transform="translate(-501,-389) scale(1,1)"><rect fill="#C0C0C0" stroke="none" x="759" y="431" width="73.99365234375" height="24" opacity="0.2"/></g><g transform="translate(-501,-389) scale(1,1)"><rect fill="#ffffff" stroke="none" x="752" y="424" width="73.99365234375" height="24"/></g><g transform="translate(-501,-389) scale(1,1)"><path fill="none" stroke="#000000" d="M 752 424 L 825.99365234375 424 L 825.99365234375 448 L 752 448 L 752 424 Z Z" stroke-miterlimit="10"/></g><g transform="translate(-501,-389) scale(1,1)"><g><path fill="none" stroke="none"/><text fill="#000000" stroke="none" font-family="Arial" font-size="13px" font-style="italic" font-weight="bold" text-decoration="none" x="759.7373046875" y="443.5">IAlgorithm</text></g></g><g transform="translate(-501,-389) scale(1,1)"><path fill="none" stroke="#000000" d="M 628 435 L 751 436" stroke-miterlimit="10"/></g><g transform="translate(-501,-389) scale(1,1)"><path fill="#FFFFFF" stroke="none" d="M 730.6068768050194 444.2535159995206 L 751 436 L 730.7437671673638 427.4160014311492"/></g><g transform="translate(-501,-389) scale(1,1)"><path fill="none" stroke="#000000" d="M 730.6068768050194 444.2535159995206 L 751 436 L 730.7437671673638 427.4160014311492 L 730.6068768050194 444.2535159995206" stroke-miterlimit="10"/></g></g></svg>