<svg version="1.1" xmlns="http://www.w3.org/2000/svg" xmlns:xlink="http://www.w3.org/1999/xlink" width="285.708984375" height="90"><defs/><g><g transform="translate(-383,-346) scale(1,1)"><rect fill="#C0C0C0" stroke="none" x="583" y="383" width="82.708984375" height="24" opacity="0.2"/></g><g transform="translate(-383,-346) scale(1,1)"><rect fill="#ffffff" stroke="none" x="576" y="376" width="82.708984375" height="24"/></g><g transform="translate(-383,-346) scale(1,1)"><path fill="none" stroke="#000000" d="M 576 376 L 658.708984375 376 L 658.708984375 400 L 576 400 L 576 376 Z Z" stroke-miterlimit="10"/></g><g transform="translate(-383,-346) scale(1,1)"><g><path fill="none" stroke="none"/><text fill="#000000" stroke="none" font-family="Arial" font-size="13px" font-style="italic" font-weight="bold" text-decoration="none" x="581.947265625" y="395.5">IDataPacket</text></g></g><g transform="translate(-383,-346) scale(1,1)"><rect fill="#C0C0C0" stroke="none" x="400" y="363" width="91.00537109375" height="70" opacity="0.2"/></g><g transform="translate(-383,-346) scale(1,1)"><rect fill="#ffffff" stroke="none" x="393" y="356" width="91.00537109375" height="70"/></g><g transform="translate(-383,-346) scale(1,1)"><path fill="none" stroke="#000000" d="M 393 356 L 484.00537109375 356 L 484.00537109375 426 L 393 426 L 393 356 Z Z" stroke-miterlimit="10"/></g><g transform="translate(-383,-346) scale(1,1)"><path fill="none" stroke="#000000" d="M 393 394 L 484.00537109375 394" stroke-miterlimit="10"/></g><g transform="translate(-383,-346) scale(1,1)"><path fill="none" stroke="#000000" d="M 393 404 L 484.00537109375 404" stroke-miterlimit="10"/></g><g transform="translate(-383,-346) scale(1,1)"><g><path fill="none" stroke="none"/><text fill="#000000" stroke="none" font-family="Arial" font-size="13px" font-style="normal" font-weight="normal" text-decoration="none" x="406.34228515625" y="373.5">«template»</text></g></g><g transform="translate(-383,-346) scale(1,1)"><g><path fill="none" stroke="none"/><text fill="#000000" stroke="none" font-family="Arial" font-size="13px" font-style="normal" font-weight="bold" text-decoration="none" x="400.930908203125" y="388.5">TDataPacket</text></g></g><g transform="translate(-383,-346) scale(1,1)"><g><path fill="none" stroke="none"/><text fill="#000000" stroke="none" font-family="Arial" font-size="13px" font-style="normal" font-weight="normal" text-decoration="none" x="398" y="421.5">+getData(): *T</text></g></g><g transform="translate(-383,-346) scale(1,1)"><path fill="none" stroke="#000000" d="M 485 390 L 575 389" stroke-miterlimit="10"/></g><g transform="translate(-383,-346) scale(1,1)"><path fill="#FFFFFF" stroke="none" d="M 554.7694438849936 397.6443391463766 L 575 389 L 554.5823657546248 380.80730741318325"/></g><g transform="translate(-383,-346) scale(1,1)"><path fill="none" stroke="#000000" d="M 554.7694438849936 397.6443391463766 L 575 389 L 554.5823657546248 380.80730741318325 L 554.7694438849936 397.6443391463766" stroke-miterlimit="10"/></g></g></svg>