<svg version="1.1" xmlns="http://www.w3.org/2000/svg" xmlns:xlink="http://www.w3.org/1999/xlink" width="490.71044921875" height="228"><defs/><g><g transform="translate(-230,-294) scale(1,1)"><rect fill="#C0C0C0" stroke="none" x="407" y="447" width="310.71044921875" height="72" opacity="0.2"/></g><g transform="translate(-230,-294) scale(1,1)"><rect fill="#ffffff" stroke="none" x="400" y="440" width="310.71044921875" height="72"/></g><g transform="translate(-230,-294) scale(1,1)"><path fill="none" stroke="#000000" d="M 400 440 L 710.71044921875 440 L 710.71044921875 512 L 400 512 L 400 440 Z Z" stroke-miterlimit="10"/></g><g transform="translate(-230,-294) scale(1,1)"><path fill="none" stroke="#000000" d="M 400 465 L 710.71044921875 465" stroke-miterlimit="10"/></g><g transform="translate(-230,-294) scale(1,1)"><path fill="none" stroke="#000000" d="M 400 475 L 710.71044921875 475" stroke-miterlimit="10"/></g><g transform="translate(-230,-294) scale(1,1)"><g><path fill="none" stroke="none"/><text fill="#000000" stroke="none" font-family="Arial" font-size="13px" font-style="normal" font-weight="bold" text-decoration="none" x="500.441650390625" y="459.5">CFeatureDataView</text></g></g><g transform="translate(-230,-294) scale(1,1)"><g><path fill="none" stroke="none"/><text fill="#000000" stroke="none" font-family="Arial" font-size="13px" font-style="normal" font-weight="normal" text-decoration="none" x="405" y="492.5">«template&lt;T&gt;»+applyData(packet: *T)</text></g></g><g transform="translate(-230,-294) scale(1,1)"><g><path fill="none" stroke="none"/><text fill="#000000" stroke="none" font-family="Arial" font-size="13px" font-style="normal" font-weight="normal" text-decoration="none" x="405" y="507.5">«template&lt;&gt;»+applyData&lt;&gt;(packet: *CFeatureData)</text></g></g><g transform="translate(-230,-294) scale(1,1)"><rect fill="#C0C0C0" stroke="none" x="255" y="479" width="93.525390625" height="24" opacity="0.2"/></g><g transform="translate(-230,-294) scale(1,1)"><rect fill="#ffffff" stroke="none" x="248" y="472" width="93.525390625" height="24"/></g><g transform="translate(-230,-294) scale(1,1)"><path fill="none" stroke="#000000" d="M 248 472 L 341.525390625 472 L 341.525390625 496 L 248 496 L 248 472 Z Z" stroke-miterlimit="10"/></g><g transform="translate(-230,-294) scale(1,1)"><g><path fill="none" stroke="none"/><text fill="#000000" stroke="none" font-family="Arial" font-size="13px" font-style="normal" font-weight="bold" text-decoration="none" x="253.937744140625" y="491.5">CFeatureData</text></g></g><g transform="translate(-230,-294) scale(1,1)"><rect fill="#C0C0C0" stroke="none" x="447" y="311" width="233.37060546875" height="57" opacity="0.2"/></g><g transform="translate(-230,-294) scale(1,1)"><rect fill="#ffffff" stroke="none" x="440" y="304" width="233.37060546875" height="57"/></g><g transform="translate(-230,-294) scale(1,1)"><path fill="none" stroke="#000000" d="M 440 304 L 673.37060546875 304 L 673.37060546875 361 L 440 361 L 440 304 Z Z" stroke-miterlimit="10"/></g><g transform="translate(-230,-294) scale(1,1)"><path fill="none" stroke="#000000" d="M 440 329 L 673.37060546875 329" stroke-miterlimit="10"/></g><g transform="translate(-230,-294) scale(1,1)"><path fill="none" stroke="#000000" d="M 440 339 L 673.37060546875 339" stroke-miterlimit="10"/></g><g transform="translate(-230,-294) scale(1,1)"><g><path fill="none" stroke="none"/><text fill="#000000" stroke="none" font-family="Arial" font-size="13px" font-style="italic" font-weight="bold" text-decoration="none" x="527.060791015625" y="323.5">IDataView</text></g></g><g transform="translate(-230,-294) scale(1,1)"><g><path fill="none" stroke="none"/><text fill="#000000" stroke="none" font-family="Arial" font-size="13px" font-style="italic" font-weight="normal" text-decoration="none" x="445" y="356.5">«template &lt;T&gt;»+applyData(packet: *T)</text></g></g><g transform="translate(-230,-294) scale(1,1)"><path fill="none" stroke="#000000" d="M 555 439 L 556 362" stroke-miterlimit="10"/></g><g transform="translate(-230,-294) scale(1,1)"><path fill="#FFFFFF" stroke="none" d="M 564.1543822910306 382.43296477390703 L 556 362 L 547.3177310629998 382.2143069657508"/></g><g transform="translate(-230,-294) scale(1,1)"><path fill="none" stroke="#000000" d="M 564.1543822910306 382.43296477390703 L 556 362 L 547.3177310629998 382.2143069657508 L 564.1543822910306 382.43296477390703" stroke-miterlimit="10"/></g><g transform="translate(-230,-294) scale(1,1)"><rect fill="#C0C0C0" stroke="none" x="247" y="327" width="82.708984375" height="24" opacity="0.2"/></g><g transform="translate(-230,-294) scale(1,1)"><rect fill="#ffffff" stroke="none" x="240" y="320" width="82.708984375" height="24"/></g><g transform="translate(-230,-294) scale(1,1)"><path fill="none" stroke="#000000" d="M 240 320 L 322.708984375 320 L 322.708984375 344 L 240 344 L 240 320 Z Z" stroke-miterlimit="10"/></g><g transform="translate(-230,-294) scale(1,1)"><g><path fill="none" stroke="none"/><text fill="#000000" stroke="none" font-family="Arial" font-size="13px" font-style="italic" font-weight="bold" text-decoration="none" x="245.947265625" y="339.5">IDataPacket</text></g></g><g transform="translate(-230,-294) scale(1,1)"><rect fill="#C0C0C0" stroke="none" x="247" y="407" width="87.0380859375" height="37" opacity="0.2"/></g><g transform="translate(-230,-294) scale(1,1)"><rect fill="#ffffff" stroke="none" x="240" y="400" width="87.0380859375" height="37"/></g><g transform="translate(-230,-294) scale(1,1)"><path fill="none" stroke="#000000" d="M 240 400 L 327.0380859375 400 L 327.0380859375 437 L 240 437 L 240 400 Z Z" stroke-miterlimit="10"/></g><g transform="translate(-230,-294) scale(1,1)"><g><path fill="none" stroke="none"/><text fill="#000000" stroke="none" font-family="Arial" font-size="13px" font-style="normal" font-weight="normal" text-decoration="none" x="251.358642578125" y="417.5">«template»</text></g></g><g transform="translate(-230,-294) scale(1,1)"><g><path fill="none" stroke="none"/><text fill="#000000" stroke="none" font-family="Arial" font-size="13px" font-style="normal" font-weight="bold" text-decoration="none" x="245.947265625" y="432.5">TDataPacket</text></g></g><g transform="translate(-230,-294) scale(1,1)"><path fill="none" stroke="#000000" d="M 283 399 L 281 345" stroke-miterlimit="10"/></g><g transform="translate(-230,-294) scale(1,1)"><path fill="#FFFFFF" stroke="none" d="M 290.1655420165881 364.9998209877528 L 281 345 L 273.33900787022264 365.6230259561367"/></g><g transform="translate(-230,-294) scale(1,1)"><path fill="none" stroke="#000000" d="M 290.1655420165881 364.9998209877528 L 281 345 L 273.33900787022264 365.6230259561367 L 290.1655420165881 364.9998209877528" stroke-miterlimit="10"/></g></g></svg>