<svg version="1.1" xmlns="http://www.w3.org/2000/svg" xmlns:xlink="http://www.w3.org/1999/xlink" width="525.47265625" height="292"><defs/><g><g transform="translate(-122,-310) scale(1,1)"><rect fill="#C0C0C0" stroke="none" x="207" y="575" width="76.8818359375" height="24" opacity="0.2"/></g><g transform="translate(-122,-310) scale(1,1)"><rect fill="#ffffff" stroke="none" x="200" y="568" width="76.8818359375" height="24"/></g><g transform="translate(-122,-310) scale(1,1)"><path fill="none" stroke="#000000" d="M 200 568 L 276.8818359375 568 L 276.8818359375 592 L 200 592 L 200 568 Z Z" stroke-miterlimit="10"/></g><g transform="translate(-122,-310) scale(1,1)"><g><path fill="none" stroke="none"/><text fill="#000000" stroke="none" font-family="Arial" font-size="13px" font-style="italic" font-weight="bold" text-decoration="none" x="207.3818359375" y="587.5">AWorkflow</text></g></g><g transform="translate(-122,-310) scale(1,1)"><rect fill="#C0C0C0" stroke="none" x="191" y="327" width="128.18359375" height="24" opacity="0.2"/></g><g transform="translate(-122,-310) scale(1,1)"><rect fill="#ffffff" stroke="none" x="184" y="320" width="128.18359375" height="24"/></g><g transform="translate(-122,-310) scale(1,1)"><path fill="none" stroke="#000000" d="M 184 320 L 312.18359375 320 L 312.18359375 344 L 184 344 L 184 320 Z Z" stroke-miterlimit="10"/></g><g transform="translate(-122,-310) scale(1,1)"><g><path fill="none" stroke="none"/><text fill="#000000" stroke="none" font-family="Arial" font-size="13px" font-style="italic" font-weight="bold" text-decoration="none" x="192.089599609375" y="339.5">AContextDataStore</text></g></g><g transform="translate(-122,-310) scale(1,1)"><path fill="none" stroke="#000000" d="M 239 567 L 247 345" stroke-miterlimit="10"/></g><g transform="translate(-122,-310) scale(1,1)"><path fill="none" stroke="#000000" d="M 250.8408022227201 355.3076786080062 L 247 345 L 242.42722785486907 355.00448673889446" stroke-miterlimit="10"/></g><g transform="translate(-122,-310) scale(1,1)"><g><path fill="none" stroke="none"/><text fill="#000000" stroke="none" font-family="Arial" font-size="13px" font-style="normal" font-weight="normal" text-decoration="none" x="132" y="463">#ActiveDataStores</text></g></g><g transform="translate(-122,-310) scale(1,1)"><g><path fill="none" stroke="none"/><text fill="#000000" stroke="none" font-family="Arial" font-size="13px" font-style="normal" font-weight="normal" text-decoration="none" x="249" y="552">1</text></g></g><g transform="translate(-122,-310) scale(1,1)"><g><path fill="none" stroke="none"/><text fill="#000000" stroke="none" font-family="Arial" font-size="13px" font-style="normal" font-weight="normal" text-decoration="none" x="249" y="374">0..*</text></g></g><g transform="translate(-122,-310) scale(1,1)"><rect fill="#C0C0C0" stroke="none" x="479" y="575" width="144.0654296875" height="24" opacity="0.2"/></g><g transform="translate(-122,-310) scale(1,1)"><rect fill="#ffffff" stroke="none" x="472" y="568" width="144.0654296875" height="24"/></g><g transform="translate(-122,-310) scale(1,1)"><path fill="none" stroke="#000000" d="M 472 568 L 616.0654296875 568 L 616.0654296875 592 L 472 592 L 472 568 Z Z" stroke-miterlimit="10"/></g><g transform="translate(-122,-310) scale(1,1)"><g><path fill="none" stroke="none"/><text fill="#000000" stroke="none" font-family="Arial" font-size="13px" font-style="normal" font-weight="bold" text-decoration="none" x="480.819580078125" y="587.5">CFourPhaseWorkflow</text></g></g><g transform="translate(-122,-310) scale(1,1)"><rect fill="#C0C0C0" stroke="none" x="439" y="327" width="205.47265625" height="24" opacity="0.2"/></g><g transform="translate(-122,-310) scale(1,1)"><rect fill="#ffffff" stroke="none" x="432" y="320" width="205.47265625" height="24"/></g><g transform="translate(-122,-310) scale(1,1)"><path fill="none" stroke="#000000" d="M 432 320 L 637.47265625 320 L 637.47265625 344 L 432 344 L 432 320 Z Z" stroke-miterlimit="10"/></g><g transform="translate(-122,-310) scale(1,1)"><g><path fill="none" stroke="none"/><text fill="#000000" stroke="none" font-family="Arial" font-size="13px" font-style="normal" font-weight="bold" text-decoration="none" x="442.25732421875" y="339.5">CFourPhaseWorkflowDataStore</text></g></g><g transform="translate(-122,-310) scale(1,1)"><path fill="none" stroke="#000000" d="M 471 580 L 278 580" stroke-miterlimit="10"/></g><g transform="translate(-122,-310) scale(1,1)"><path fill="#FFFFFF" stroke="none" d="M 298.3253497152483 571.580964487968 L 278 580 L 298.3253497152483 588.419035512032"/></g><g transform="translate(-122,-310) scale(1,1)"><path fill="none" stroke="#000000" d="M 298.3253497152483 571.580964487968 L 278 580 L 298.3253497152483 588.419035512032 L 298.3253497152483 571.580964487968" stroke-miterlimit="10"/></g><g transform="translate(-122,-310) scale(1,1)"><path fill="none" stroke="#000000" d="M 431 332 L 313 332" stroke-miterlimit="10"/></g><g transform="translate(-122,-310) scale(1,1)"><path fill="#FFFFFF" stroke="none" d="M 333.3253497152483 323.580964487968 L 313 332 L 333.3253497152483 340.419035512032"/></g><g transform="translate(-122,-310) scale(1,1)"><path fill="none" stroke="#000000" d="M 333.3253497152483 323.580964487968 L 313 332 L 333.3253497152483 340.419035512032 L 333.3253497152483 323.580964487968" stroke-miterlimit="10"/></g><g transform="translate(-122,-310) scale(1,1)"><path fill="none" stroke="#000000" d="M 543 567 L 535 345" stroke-miterlimit="10"/></g><g transform="translate(-122,-310) scale(1,1)"><path fill="none" stroke="#000000" d="M 539.5727721451309 355.00448673889446 L 535 345 L 531.1591977772799 355.3076786080062" stroke-miterlimit="10"/></g><g transform="translate(-122,-310) scale(1,1)"><g><path fill="none" stroke="none"/><text fill="#000000" stroke="none" font-family="Arial" font-size="13px" font-style="normal" font-weight="normal" text-decoration="none" x="450" y="463">#DataStores</text></g></g><g transform="translate(-122,-310) scale(1,1)"><rect fill="#C0C0C0" stroke="none" x="319" y="399" width="166" height="37" opacity="0.2"/></g><g transform="translate(-122,-310) scale(1,1)"><rect fill="#ffffff" stroke="none" x="312" y="392" width="166" height="37"/></g><g transform="translate(-122,-310) scale(1,1)"><path fill="none" stroke="#000000" d="M 312 392 L 478 392 L 478 429 L 312 429 L 312 392 Z Z" stroke-miterlimit="10"/></g><g transform="translate(-122,-310) scale(1,1)"><g><path fill="none" stroke="none"/><text fill="#000000" stroke="none" font-family="Arial" font-size="13px" font-style="normal" font-weight="normal" text-decoration="none" x="361.7509765625" y="409.5">«singleton»</text></g></g><g transform="translate(-122,-310) scale(1,1)"><g><path fill="none" stroke="none"/><text fill="#000000" stroke="none" font-family="Arial" font-size="13px" font-style="normal" font-weight="bold" text-decoration="none" x="337.92822265625" y="424.5">CWorkflowManager</text></g></g></g></svg>