<svg version="1.1" xmlns="http://www.w3.org/2000/svg" xmlns:xlink="http://www.w3.org/1999/xlink" width="713.47265625" height="555"><defs/><g><g transform="translate(-118,-278) scale(1,1)"><rect fill="#C0C0C0" stroke="none" x="135" y="623" width="340" height="207" opacity="0.2"/></g><g transform="translate(-118,-278) scale(1,1)"><rect fill="#ffffff" stroke="none" x="128" y="616" width="340" height="207"/></g><g transform="translate(-118,-278) scale(1,1)"><path fill="none" stroke="#000000" d="M 128 616 L 468 616 L 468 823 L 128 823 L 128 616 Z Z" stroke-miterlimit="10"/></g><g transform="translate(-118,-278) scale(1,1)"><path fill="none" stroke="#000000" d="M 128 641 L 468 641" stroke-miterlimit="10"/></g><g transform="translate(-118,-278) scale(1,1)"><path fill="none" stroke="#000000" d="M 128 651 L 468 651" stroke-miterlimit="10"/></g><g transform="translate(-118,-278) scale(1,1)"><g><path fill="none" stroke="none"/><text fill="#000000" stroke="none" font-family="Arial" font-size="13px" font-style="italic" font-weight="bold" text-decoration="none" x="266.94091796875" y="635.5">AWorkflow</text></g></g><g transform="translate(-118,-278) scale(1,1)"><g><path fill="none" stroke="none"/><text fill="#000000" stroke="none" font-family="Arial" font-size="13px" font-style="italic" font-weight="normal" text-decoration="none" x="133" y="668.5">+getStepCount(): const uint32</text></g></g><g transform="translate(-118,-278) scale(1,1)"><g><path fill="none" stroke="none"/><text fill="#000000" stroke="none" font-family="Arial" font-size="13px" font-style="italic" font-weight="normal" text-decoration="none" x="133" y="683.5">+getStepType(step: const uint32): EAlgorithmType</text></g></g><g transform="translate(-118,-278) scale(1,1)"><g><path fill="none" stroke="none"/><text fill="#000000" stroke="none" font-family="Arial" font-size="13px" font-style="italic" font-weight="normal" text-decoration="none" x="133" y="698.5">+trySetStep(step: const uint32, algo: *APlugin): Boolean</text></g></g><g transform="translate(-118,-278) scale(1,1)"><g><path fill="none" stroke="none"/><text fill="#000000" stroke="none" font-family="Arial" font-size="13px" font-style="italic" font-weight="normal" text-decoration="none" x="133" y="713.5">+getStep(step: const uint32): *APlugin</text></g></g><g transform="translate(-118,-278) scale(1,1)"><g><path fill="none" stroke="none"/><text fill="#000000" stroke="none" font-family="Arial" font-size="13px" font-style="italic" font-weight="normal" text-decoration="none" x="133" y="728.5">+getDataStores(): vector&lt;*AContextDataStore&gt;</text></g></g><g transform="translate(-118,-278) scale(1,1)"><g><path fill="none" stroke="none"/><text fill="#000000" stroke="none" font-family="Arial" font-size="13px" font-style="italic" font-weight="normal" text-decoration="none" x="133" y="743.5">+addDataStore(): *AContextDataStore</text></g></g><g transform="translate(-118,-278) scale(1,1)"><g><path fill="none" stroke="none"/><text fill="#000000" stroke="none" font-family="Arial" font-size="13px" font-style="italic" font-weight="normal" text-decoration="none" x="133" y="758.5">+removeDataStore(id: const String): Boolean</text></g></g><g transform="translate(-118,-278) scale(1,1)"><g><path fill="none" stroke="none"/><text fill="#000000" stroke="none" font-family="Arial" font-size="13px" font-style="normal" font-weight="normal" text-decoration="none" x="133" y="773.5">+run(storeId: const String)</text></g></g><g transform="translate(-118,-278) scale(1,1)"><g><path fill="none" stroke="none"/><text fill="#000000" stroke="none" font-family="Arial" font-size="13px" font-style="normal" font-weight="normal" text-decoration="none" x="133" y="788.5">+getState(storeId: const String): uint32</text></g></g><g transform="translate(-118,-278) scale(1,1)"><g><path fill="none" stroke="none"/><text fill="#000000" stroke="none" font-family="Arial" font-size="13px" font-style="normal" font-weight="normal" text-decoration="none" x="133" y="803.5">+stop(storeId: const String)</text></g></g><g transform="translate(-118,-278) scale(1,1)"><g><path fill="none" stroke="none"/><text fill="#000000" stroke="none" font-family="Arial" font-size="13px" font-style="normal" font-weight="normal" text-decoration="none" x="133" y="818.5">+checkAvaliableDataTypes(): Boolean</text></g></g><g transform="translate(-118,-278) scale(1,1)"><rect fill="#C0C0C0" stroke="none" x="135" y="295" width="333" height="147" opacity="0.2"/></g><g transform="translate(-118,-278) scale(1,1)"><rect fill="#ffffff" stroke="none" x="128" y="288" width="333" height="147"/></g><g transform="translate(-118,-278) scale(1,1)"><path fill="none" stroke="#000000" d="M 128 288 L 461 288 L 461 435 L 128 435 L 128 288 Z Z" stroke-miterlimit="10"/></g><g transform="translate(-118,-278) scale(1,1)"><path fill="none" stroke="#000000" d="M 128 313 L 461 313" stroke-miterlimit="10"/></g><g transform="translate(-118,-278) scale(1,1)"><path fill="none" stroke="#000000" d="M 128 323 L 461 323" stroke-miterlimit="10"/></g><g transform="translate(-118,-278) scale(1,1)"><g><path fill="none" stroke="none"/><text fill="#000000" stroke="none" font-family="Arial" font-size="13px" font-style="italic" font-weight="bold" text-decoration="none" x="238.497802734375" y="307.5">AContextDataStore</text></g></g><g transform="translate(-118,-278) scale(1,1)"><g><path fill="none" stroke="none"/><text fill="#000000" stroke="none" font-family="Arial" font-size="13px" font-style="italic" font-weight="normal" text-decoration="none" x="133" y="340.5">+getSupportedDataTypes(): const vector&lt;EDataTypes&gt;</text></g></g><g transform="translate(-118,-278) scale(1,1)"><g><path fill="none" stroke="none"/><text fill="#000000" stroke="none" font-family="Arial" font-size="13px" font-style="italic" font-weight="normal" text-decoration="none" x="133" y="355.5">+InitializeFromStorage(dataset: DataSet)</text></g></g><g transform="translate(-118,-278) scale(1,1)"><g><path fill="none" stroke="none"/><text fill="#000000" stroke="none" font-family="Arial" font-size="13px" font-style="italic" font-weight="normal" text-decoration="none" x="133" y="370.5">+getData(): *TDataPacket</text></g></g><g transform="translate(-118,-278) scale(1,1)"><g><path fill="none" stroke="none"/><text fill="#000000" stroke="none" font-family="Arial" font-size="13px" font-style="italic" font-weight="normal" text-decoration="none" x="133" y="385.5">+applyToDataView(view: *ADataView)</text></g></g><g transform="translate(-118,-278) scale(1,1)"><g><path fill="none" stroke="none"/><text fill="#000000" stroke="none" font-family="Arial" font-size="13px" font-style="normal" font-weight="normal" text-decoration="none" x="133" y="400.5">+getId(): String</text></g></g><g transform="translate(-118,-278) scale(1,1)"><g><path fill="none" stroke="none"/><text fill="#000000" stroke="none" font-family="Arial" font-size="13px" font-style="normal" font-weight="normal" text-decoration="none" x="133" y="415.5">+Serialize()</text></g></g><g transform="translate(-118,-278) scale(1,1)"><g><path fill="none" stroke="none"/><text fill="#000000" stroke="none" font-family="Arial" font-size="13px" font-style="normal" font-weight="normal" text-decoration="none" x="133" y="430.5">+getCurrentCalculationStep(): uint32</text></g></g><g transform="translate(-118,-278) scale(1,1)"><path fill="none" stroke="#000000" d="M 297 615 L 295 436" stroke-miterlimit="10"/></g><g transform="translate(-118,-278) scale(1,1)"><path fill="none" stroke="#000000" d="M 299.32279737506946 446.11500978022724 L 295 436 L 290.9042873302401 446.20907134497395" stroke-miterlimit="10"/></g><g transform="translate(-118,-278) scale(1,1)"><g><path fill="none" stroke="none"/><text fill="#000000" stroke="none" font-family="Arial" font-size="13px" font-style="normal" font-weight="normal" text-decoration="none" x="185" y="534">#ActiveDataStores</text></g></g><g transform="translate(-118,-278) scale(1,1)"><g><path fill="none" stroke="none"/><text fill="#000000" stroke="none" font-family="Arial" font-size="13px" font-style="normal" font-weight="normal" text-decoration="none" x="306" y="600">1</text></g></g><g transform="translate(-118,-278) scale(1,1)"><g><path fill="none" stroke="none"/><text fill="#000000" stroke="none" font-family="Arial" font-size="13px" font-style="normal" font-weight="normal" text-decoration="none" x="298" y="464">0..*</text></g></g><g transform="translate(-118,-278) scale(1,1)"><rect fill="#C0C0C0" stroke="none" x="663" y="711" width="144.0654296875" height="44" opacity="0.2"/></g><g transform="translate(-118,-278) scale(1,1)"><rect fill="#ffffff" stroke="none" x="656" y="704" width="144.0654296875" height="44"/></g><g transform="translate(-118,-278) scale(1,1)"><path fill="none" stroke="#000000" d="M 656 704 L 800.0654296875 704 L 800.0654296875 748 L 656 748 L 656 704 Z Z" stroke-miterlimit="10"/></g><g transform="translate(-118,-278) scale(1,1)"><path fill="none" stroke="#000000" d="M 656 729 L 800.0654296875 729" stroke-miterlimit="10"/></g><g transform="translate(-118,-278) scale(1,1)"><path fill="none" stroke="#000000" d="M 656 739 L 800.0654296875 739" stroke-miterlimit="10"/></g><g transform="translate(-118,-278) scale(1,1)"><g><path fill="none" stroke="none"/><text fill="#000000" stroke="none" font-family="Arial" font-size="13px" font-style="normal" font-weight="bold" text-decoration="none" x="664.819580078125" y="723.5">CFourPhaseWorkflow</text></g></g><g transform="translate(-118,-278) scale(1,1)"><rect fill="#C0C0C0" stroke="none" x="623" y="335" width="205.47265625" height="44" opacity="0.2"/></g><g transform="translate(-118,-278) scale(1,1)"><rect fill="#ffffff" stroke="none" x="616" y="328" width="205.47265625" height="44"/></g><g transform="translate(-118,-278) scale(1,1)"><path fill="none" stroke="#000000" d="M 616 328 L 821.47265625 328 L 821.47265625 372 L 616 372 L 616 328 Z Z" stroke-miterlimit="10"/></g><g transform="translate(-118,-278) scale(1,1)"><path fill="none" stroke="#000000" d="M 616 353 L 821.47265625 353" stroke-miterlimit="10"/></g><g transform="translate(-118,-278) scale(1,1)"><path fill="none" stroke="#000000" d="M 616 363 L 821.47265625 363" stroke-miterlimit="10"/></g><g transform="translate(-118,-278) scale(1,1)"><g><path fill="none" stroke="none"/><text fill="#000000" stroke="none" font-family="Arial" font-size="13px" font-style="normal" font-weight="bold" text-decoration="none" x="626.25732421875" y="347.5">CFourPhaseWorkflowDataStore</text></g></g><g transform="translate(-118,-278) scale(1,1)"><path fill="none" stroke="#000000" d="M 655 725 L 469 722" stroke-miterlimit="10"/></g><g transform="translate(-118,-278) scale(1,1)"><path fill="#FFFFFF" stroke="none" d="M 489.4584796910774 713.9098449502019 L 469 722 L 489.1869332188909 730.7457262257653"/></g><g transform="translate(-118,-278) scale(1,1)"><path fill="none" stroke="#000000" d="M 489.4584796910774 713.9098449502019 L 469 722 L 489.1869332188909 730.7457262257653 L 489.4584796910774 713.9098449502019" stroke-miterlimit="10"/></g><g transform="translate(-118,-278) scale(1,1)"><path fill="none" stroke="#000000" d="M 615 353 L 462 357" stroke-miterlimit="10"/></g><g transform="translate(-118,-278) scale(1,1)"><path fill="#FFFFFF" stroke="none" d="M 482.0983767867742 348.0526400241828 L 462 357 L 482.5384374293878 364.88495960415287"/></g><g transform="translate(-118,-278) scale(1,1)"><path fill="none" stroke="#000000" d="M 482.0983767867742 348.0526400241828 L 462 357 L 482.5384374293878 364.88495960415287 L 482.0983767867742 348.0526400241828" stroke-miterlimit="10"/></g><g transform="translate(-118,-278) scale(1,1)"><path fill="none" stroke="#000000" d="M 727 703 L 719 373" stroke-miterlimit="10"/></g><g transform="translate(-118,-278) scale(1,1)"><path fill="none" stroke="#000000" d="M 723.4545768570446 383.0576709542857 L 719 373 L 715.0380141682144 383.2617088376513" stroke-miterlimit="10"/></g><g transform="translate(-118,-278) scale(1,1)"><g><path fill="none" stroke="none"/><text fill="#000000" stroke="none" font-family="Arial" font-size="13px" font-style="normal" font-weight="normal" text-decoration="none" x="634" y="544">#DataStores</text></g></g><g transform="translate(-118,-278) scale(1,1)"><rect fill="#C0C0C0" stroke="none" x="343" y="479" width="263.6298828125" height="100" opacity="0.2"/></g><g transform="translate(-118,-278) scale(1,1)"><rect fill="#ffffff" stroke="none" x="336" y="472" width="263.6298828125" height="100"/></g><g transform="translate(-118,-278) scale(1,1)"><path fill="none" stroke="#000000" d="M 336 472 L 599.6298828125 472 L 599.6298828125 572 L 336 572 L 336 472 Z Z" stroke-miterlimit="10"/></g><g transform="translate(-118,-278) scale(1,1)"><path fill="none" stroke="#000000" d="M 336 510 L 599.6298828125 510" stroke-miterlimit="10"/></g><g transform="translate(-118,-278) scale(1,1)"><path fill="none" stroke="#000000" d="M 336 520 L 599.6298828125 520" stroke-miterlimit="10"/></g><g transform="translate(-118,-278) scale(1,1)"><g><path fill="none" stroke="none"/><text fill="#000000" stroke="none" font-family="Arial" font-size="13px" font-style="normal" font-weight="normal" text-decoration="none" x="434.56591796875" y="489.5">«singleton»</text></g></g><g transform="translate(-118,-278) scale(1,1)"><g><path fill="none" stroke="none"/><text fill="#000000" stroke="none" font-family="Arial" font-size="13px" font-style="normal" font-weight="bold" text-decoration="none" x="410.7431640625" y="504.5">CWorkflowManager</text></g></g><g transform="translate(-118,-278) scale(1,1)"><g><path fill="none" stroke="none"/><text fill="#000000" stroke="none" font-family="Arial" font-size="13px" font-style="normal" font-weight="normal" text-decoration="none" x="341" y="537.5">+Instance(): *CWorkflowManager</text><path fill="none" stroke="#000000" d="M 341 537.5 L 532.81982421875 537.5" stroke-miterlimit="10"/></g></g><g transform="translate(-118,-278) scale(1,1)"><g><path fill="none" stroke="none"/><text fill="#000000" stroke="none" font-family="Arial" font-size="13px" font-style="normal" font-weight="normal" text-decoration="none" x="341" y="552.5">+GetAvailableWorkflows(): vector&lt;string&gt;</text></g></g><g transform="translate(-118,-278) scale(1,1)"><g><path fill="none" stroke="none"/><text fill="#000000" stroke="none" font-family="Arial" font-size="13px" font-style="normal" font-weight="normal" text-decoration="none" x="341" y="567.5">+GetWorkflow(workflow: string): *AWorkflow</text></g></g></g></svg>